<?xml version="1.0" encoding="iso-8859-1"?>
<!-- Uploaded to: SVG Repo, www.svgrepo.com, Generator: SVG Repo Mixer Tools -->
<svg version="1.1" id="Layer_1" xmlns="http://www.w3.org/2000/svg" xmlns:xlink="http://www.w3.org/1999/xlink" 
	 viewBox="0 0 512.001 512.001" xml:space="preserve">
<path style="fill:#C4A174;" d="M448.496,300.112H63.504c-17.731,0-32.105,15.768-32.105,35.219v19.518
	c0,19.452,14.374,35.219,32.105,35.219h384.992c17.731,0,32.106-15.768,32.106-35.219v-19.516
	C480.601,315.881,466.227,300.112,448.496,300.112z"/>
<path style="fill:#B58E64;" d="M97.474,354.849v-19.518c0-19.452,14.374-35.219,32.106-35.219H63.505
	c-17.731,0-32.106,15.768-32.106,35.219v19.518c0,19.452,14.374,35.219,32.106,35.219h66.075
	C111.848,390.068,97.474,374.3,97.474,354.849z"/>
<rect x="57.041" y="232.369" style="fill:#F97E62;" width="400.366" height="67.74"/>
<rect x="57.041" y="232.369" style="fill:#E86B56;" width="56.647" height="67.74"/>
<g>
	<path style="fill:#F4C67D;" d="M461.077,390.068H50.923c-11.268,0-20.402,9.135-20.402,20.402v38.427
		c0,29.602,23.998,53.6,53.6,53.6h343.76c29.602,0,53.6-23.998,53.6-53.6V410.47C481.48,399.203,472.345,390.068,461.077,390.068z"
		/>
	<path style="fill:#F4C67D;" d="M50.923,232.372h410.155c11.268,0,20.402-9.135,20.402-20.402v-5.069
		c0-108.99-88.354-197.344-197.344-197.344h-56.272c-108.99,0-197.344,88.354-197.344,197.344v5.069
		C30.521,223.238,39.655,232.372,50.923,232.372z"/>
</g>
<g>
	<path style="fill:#E0B16E;" d="M155.278,502.5H84.12c-29.607,0-53.597-24.003-53.597-53.597v-38.425
		c0-11.271,9.136-20.407,20.407-20.407h71.158c-11.271,0-20.407,9.136-20.407,20.407v38.425
		C101.682,478.496,125.671,502.5,155.278,502.5z"/>
	<path style="fill:#E0B16E;" d="M101.682,206.901v5.07c0,11.271,9.136,20.394,20.407,20.394H50.931
		c-11.271,0-20.407-9.123-20.407-20.394v-5.07c0-108.986,88.35-197.349,197.337-197.349h56.278c2.491,0,4.981,0.051,7.446,0.14
		C186.041,13.606,101.682,100.405,101.682,206.901z"/>
</g>
<polyline style="fill:#F4C67D;" points="297.205,300.112 354.561,357.469 408.877,303.152 "/>
<path d="M491.01,211.942v-5.069C491.01,92.803,398.206,0,284.135,0h-56.271C113.794,0,20.991,92.803,20.991,206.874v5.069
	c0,16.505,13.427,29.932,29.933,29.932h323.253c5.264,0,9.53-4.267,9.53-9.53s-4.266-9.53-9.53-9.53H50.923
	c-5.995,0-10.873-4.877-10.873-10.872v-5.069C40.051,103.313,124.304,19.06,227.864,19.06h56.271
	c103.562,0,187.815,84.252,187.815,187.814v5.069c0,5.995-4.878,10.872-10.873,10.872h-48.779c-5.264,0-9.53,4.267-9.53,9.53
	s4.266,9.53,9.53,9.53h35.579v48.681H66.572v-26.444c0-5.263-4.266-9.53-9.53-9.53s-9.53,4.267-9.53,9.53v29.883
	c-15.042,6.752-25.642,22.725-25.642,41.311v19.518c0,12.115,4.51,23.112,11.81,31.179c-7.669,5.426-12.689,14.356-12.689,24.444
	v38.425c0,34.81,28.32,63.13,63.13,63.13h27.026c5.264,0,9.53-4.267,9.53-9.53s-4.266-9.53-9.53-9.53H84.12
	c-24.299,0-44.07-19.769-44.07-44.07v-38.425c0-5.995,4.878-10.873,10.873-10.873h12.581h384.991h12.581
	c5.995,0,10.873,4.877,10.873,10.873v38.425c0,24.3-19.77,44.07-44.071,44.07H141.643c-5.264,0-9.53,4.267-9.53,9.53
	s4.266,9.53,9.53,9.53H427.88c34.812,0,63.131-28.32,63.131-63.13v-38.425c0-10.087-5.02-19.018-12.689-24.444
	c7.3-8.065,11.81-19.064,11.81-31.179v-19.518c0-17.561-9.464-32.782-23.195-40.106v-53.904
	C480.645,238.564,491.01,226.441,491.01,211.942z M388.91,309.615l-34.348,34.349l-34.35-34.349H388.91z M471.072,354.822
	c0,14.164-10.127,25.689-22.576,25.689H63.505c-12.449,0-22.576-11.524-22.576-25.689v-19.518c0-14.164,10.127-25.689,22.576-25.689
	h229.752l54.566,54.564c1.862,1.86,4.301,2.792,6.74,2.792s4.878-0.93,6.74-2.792l54.316-54.316l-0.248-0.248h33.127
	c12.449,0,22.576,11.524,22.576,25.689v19.518H471.072z"/>
<circle cx="156.421" cy="64.545" r="9.53"/>
<circle cx="222.802" cy="64.545" r="9.53"/>
<circle cx="289.195" cy="64.545" r="9.53"/>
<circle cx="355.588" cy="64.545" r="9.53"/>
</svg>