<!DOCTYPE svg PUBLIC "-//W3C//DTD SVG 1.1//EN" "http://www.w3.org/Graphics/SVG/1.1/DTD/svg11.dtd">
<!-- Uploaded to: SVG Repo, www.svgrepo.com, Transformed by: SVG Repo Mixer Tools -->
<svg height="800px" width="800px" version="1.1" id="Layer_1" xmlns="http://www.w3.org/2000/svg" xmlns:xlink="http://www.w3.org/1999/xlink" viewBox="0 0 512 512" xml:space="preserve" fill="#000000">
<g id="SVGRepo_bgCarrier" stroke-width="0"/>
<g id="SVGRepo_tracerCarrier" stroke-linecap="round" stroke-linejoin="round"/>
<g id="SVGRepo_iconCarrier"> <path style="fill:#218327;" d="M256,504C119.033,504,8,392.967,8,256S119.033,8,256,8s248,111.034,248,248 C503.846,392.902,392.902,503.846,256,504z"/> <path style="fill:#ffffff;" d="M256,16c132.548,0,240,107.452,240,240S388.548,496,256,496S16,388.548,16,256 C16.15,123.513,123.513,16.15,256,16 M256,0C114.615,0,0,114.615,0,256s114.615,256,256,256s256-114.615,256-256S397.385,0,256,0z"/> <polygon style="fill:#ffffff;" points="345.032,137.848 216.896,295.887 163.04,242.728 127.528,281.848 221.056,374.152 384.472,172.608 "/> </g>
</svg>