<?xml version="1.0" encoding="iso-8859-1"?>
<!-- Uploaded to: SVG Repo, www.svgrepo.com, Generator: SVG Repo Mixer Tools -->
<svg height="800px" width="800px" version="1.1" id="Layer_1" xmlns="http://www.w3.org/2000/svg" xmlns:xlink="http://www.w3.org/1999/xlink" 
	 viewBox="0 0 512 512" xml:space="preserve">
<circle style="fill:#FF5764;" cx="256" cy="32.402" r="21.953"/>
<path style="fill:#871B00;" d="M19.853,238.583l39.242,28.199l39.379-28.191l39.384,28.199l39.379-28.191l39.384,28.199L256,238.575
	l39.384,28.199l39.379-28.191l39.384,28.199l39.237-28.191l39.384,28.199l39.378-28.213v-0.009l0,0
	c0-27.687-21.584-50.131-48.212-50.131l-375.871,0.047c-26.626,0-48.212,22.444-48.212,50.131l0,0V238.583z"/>
<path style="fill:#FFFFFF;" d="M449.099,197.442C423.962,114.63,347.025,54.352,256,54.352c-91.042,0-167.99,60.301-193.114,143.137
	L449.099,197.442z"/>
<path d="M352.924,299.194h-0.211c-5.771,0-10.449-4.678-10.449-10.449c0-5.771,4.678-10.449,10.449-10.449h0.211
	c5.771,0,10.449,4.678,10.449,10.449C363.373,294.516,358.695,299.194,352.924,299.194z"/>
<path d="M338,140.707c-1.879,0-3.781-0.507-5.495-1.569c-17.279-10.711-37.217-16.373-57.66-16.373
	c-5.771,0-10.449-4.678-10.449-10.449s4.678-10.449,10.449-10.449c24.336,0,48.081,6.746,68.67,19.508
	c4.905,3.041,6.416,9.481,3.375,14.387C344.913,138.953,341.497,140.707,338,140.707z"/>
<path d="M371.407,171.47c-0.007,0-0.014,0-0.021,0h-0.268c-5.771-0.012-10.441-4.698-10.429-10.469
	c0.011-5.764,4.687-10.429,10.449-10.429c0.007,0,0.014,0,0.021,0h0.267c5.771,0.011,10.441,4.698,10.429,10.469
	C381.844,166.804,377.167,171.47,371.407,171.47z"/>
<polygon style="fill:#FF8899;" points="501.551,238.575 411.175,501.551 100.825,501.551 10.449,238.575 10.449,238.583 
	51.402,266.78 51.254,266.78 92.201,238.59 133.153,266.788 174.101,238.597 215.054,266.795 215.054,266.766 256,238.575 
	296.953,266.773 337.899,238.583 378.852,266.78 378.704,266.78 419.652,238.59 460.605,266.788 501.551,238.597 "/>
<polygon style="fill:#FFA1D5;" points="501.551,238.575 411.175,501.551 100.825,501.551 10.449,238.575 10.449,238.583 
	51.402,266.78 51.254,266.78 92.201,238.59 133.153,266.788 174.101,238.597 215.054,266.795 215.054,266.766 256,238.575 
	296.953,266.773 337.899,238.583 378.852,266.78 378.704,266.78 419.652,238.59 460.605,266.788 501.551,238.597 "/>
<g>
	<polygon style="fill:#FF7DBE;" points="92.201,238.59 152.144,501.566 204.073,501.566 174.101,238.597 133.153,266.788 	"/>
	<polygon style="fill:#FF7DBE;" points="256,501.551 307.928,501.551 335.105,240.506 296.953,266.773 256,238.574 256,238.575 	"/>
	<polygon style="fill:#FF7DBE;" points="419.652,238.59 359.651,501.523 411.175,501.551 501.541,238.604 460.605,266.788 	"/>
</g>
<polygon style="fill:#FF5764;" points="501.544,238.597 501.541,238.604 501.551,238.597 "/>
<path d="M256,301.26c-5.771,0-10.449-4.678-10.449-10.449v-0.137c0-5.771,4.678-10.449,10.449-10.449
	c5.771,0,10.449,4.678,10.449,10.449v0.137C266.449,296.582,261.77,301.26,256,301.26z"/>
<path d="M105.248,306.321c-4.73,0-9.016-3.234-10.157-8.036l-0.031-0.133c-1.333-5.614,2.137-11.247,7.751-12.582
	c5.613-1.332,11.247,2.137,12.582,7.751l0.031,0.133c1.333,5.614-2.137,11.247-7.751,12.582
	C106.861,306.228,106.048,306.321,105.248,306.321z"/>
<path d="M503.272,228.268c-0.525-0.088-1.046-0.12-1.564-0.129c-4.25-25.182-23.596-45.065-48.031-49.303
	c-28.068-71.766-93.016-122.304-168.263-132.872c1.912-4.129,2.986-8.722,2.986-13.564C288.4,14.535,273.866,0,256,0
	s-32.4,14.535-32.4,32.4c0,4.841,1.075,9.434,2.986,13.563c-75.269,10.57-140.225,61.129-168.284,132.925
	c-24.41,4.242-43.739,24.101-48.004,49.255c-0.52,0.008-1.045,0.041-1.572,0.129C3.691,229.114,0,233.475,0,238.583
	c0,1.248,0.223,2.467,0.643,3.607l90.301,262.757c1.45,4.22,5.42,7.053,9.882,7.053h310.349c4.462,0,8.431-2.833,9.882-7.053
	l90.244-262.59c0.457-1.184,0.7-2.457,0.7-3.761v-0.022C512,233.469,508.309,229.111,503.272,228.268z M256,20.898
	c6.343,0,11.502,5.16,11.502,11.502S262.343,43.903,256,43.903c-6.343,0-11.502-5.16-11.502-11.502S249.657,20.898,256,20.898z
	 M256,64.801c75.705,0,144.113,44.91,174.681,113.186L81.3,178.032C111.856,109.728,180.273,64.801,256,64.801z M160.476,491.102
	l-37.535-164.667c-1.283-5.626-6.878-9.147-12.511-7.865c-5.626,1.283-9.148,6.884-7.865,12.511l36.476,160.021h-30.76
	L30.637,265.17l13.651,9.399c1.871,1.673,4.33,2.66,6.966,2.66h0.147c2.635,0,5.094-0.987,6.965-2.66l33.834-23.293l35.027,24.118
	c3.568,2.458,8.283,2.458,11.851,0l26.61-18.321l26.673,234.029H160.476z M266.449,491.102V324.615
	c0-5.771-4.678-10.449-10.449-10.449c-5.771,0-10.449,4.678-10.449,10.449v166.487h-32.156l-26.314-230.88l22.045,15.179
	c3.197,2.201,7.35,2.434,10.788,0.629c0.518-0.273,1.007-0.585,1.464-0.933L256,251.261l35.027,24.118
	c3.569,2.458,8.283,2.458,11.851,0l22.041-15.174l-26.317,230.896H266.449z M403.717,491.102h-30.963L409.23,331.08
	c1.283-5.626-2.239-11.227-7.865-12.51c-5.628-1.28-11.227,2.24-12.511,7.866l-37.536,164.665h-31.683l26.674-234.042l25.429,17.509
	c1.871,1.673,4.33,2.66,6.966,2.66h0.147c2.635,0,5.094-0.987,6.965-2.66l33.834-23.293l35.027,24.118
	c3.569,2.458,8.283,2.458,11.851,0l14.827-10.209L403.717,491.102z M460.605,254.101l-35.027-24.118
	c-3.568-2.457-8.282-2.457-11.851,0l-34.948,24.061l-34.953-24.068c-3.568-2.457-8.282-2.457-11.851,0l-35.021,24.111
	l-35.027-24.118c-3.569-2.457-8.283-2.457-11.851,0l-35.043,24.126l-35.005-24.104c-3.569-2.457-8.283-2.457-11.851,0
	l-35.021,24.111l-35.027-24.118c-3.568-2.457-8.282-2.457-11.851,0L51.33,254.044l-21.072-14.509
	c0.026-0.304,0.046-0.61,0.046-0.921c0-21.88,16.94-39.682,37.764-39.682l375.87-0.047c20.822,0,37.763,17.801,37.763,39.682
	c0,0.331,0.02,0.657,0.049,0.98L460.605,254.101z"/>
<path d="M406.548,306.321c-0.799,0-1.611-0.092-2.423-0.285c-5.615-1.334-9.085-6.966-7.751-12.582l0.031-0.133
	c1.333-5.614,6.964-9.086,12.582-7.751c5.615,1.334,9.085,6.966,7.751,12.582l-0.031,0.133
	C415.564,303.086,411.277,306.321,406.548,306.321z"/>
</svg>