<?xml version="1.0" encoding="iso-8859-1"?>
<!-- Uploaded to: SVG Repo, www.svgrepo.com, Generator: SVG Repo Mixer Tools -->
<svg height="800px" width="800px" version="1.1" id="Layer_1" xmlns="http://www.w3.org/2000/svg" xmlns:xlink="http://www.w3.org/1999/xlink" 
	 viewBox="0 0 512.001 512.001" xml:space="preserve">
<path style="fill:#BF4F28;" d="M36.889,278.419c-52.957,78.448-24.735,183.449,70.829,183.449H403.43
	c96.201,0,124.94-104.477,71.629-183.449c0,0-92.257-144.376-219.085-144.376S36.889,278.419,36.889,278.419z"/>
<path style="fill:#871B00;" d="M501.232,354.882v-2.704c-1.732-24.565-10.327-50.289-26.172-73.761
	c0,0-92.257-144.376-219.086-144.376S36.89,278.419,36.89,278.419c-10.264,15.204-17.464,31.405-21.73,47.647
	c3.253-12.225,14.497-21.438,27.782-21.187c15.317,0.289,27.643,12.656,27.643,27.869v2.211c0,15.213,12.325,27.58,27.642,27.87
	c15.805,0.299,28.742-12.79,28.742-28.42V320.78c0-19.235,15.584-34.87,34.948-35.236c19.983-0.378,36.339,16.17,36.339,35.933
	v34.502c0,19.235,15.584,34.87,34.948,35.236c19.983,0.378,36.339-16.17,36.339-35.932v-58.8c0-15.63,12.936-28.719,28.742-28.42
	c15.317,0.289,27.643,12.656,27.643,27.87v33.705c0,19.235,15.584,34.87,34.948,35.236c19.983,0.378,36.339-16.17,36.339-35.932
	v-16.824c0-15.63,12.936-28.719,28.742-28.42c15.317,0.289,27.643,12.656,27.643,27.87v23.392c0,15.213,12.325,27.58,27.643,27.87
	C488.991,362.975,496.047,359.897,501.232,354.882z"/>
<ellipse style="fill:#3FD0FC;" cx="257.474" cy="91.603" rx="42.045" ry="41.467"/>
<ellipse style="fill:#FF7DBE;" cx="215.429" cy="163.437" rx="42.045" ry="41.467"/>
<ellipse style="fill:#BA40CC;" cx="299.519" cy="163.437" rx="42.045" ry="41.467"/>
<path d="M483.791,272.679c-3.049-4.747-54.526-83.575-134.177-124.784c-6.09-19.154-23.129-33.545-43.827-35.992
	c2.691-6.239,4.183-13.1,4.183-20.301c0-28.627-23.55-51.917-52.498-51.917c-28.948,0-52.498,23.29-52.498,51.917
	c0,7.2,1.492,14.062,4.184,20.301c-20.03,2.368-36.627,15.923-43.198,34.154C84.296,186.667,31.303,267.783,28.159,272.676
	C-3.178,319.168-8.872,376.573,13.654,418.958c18.287,34.408,51.692,53.357,94.063,53.357H403.43
	c42.878,0,76.621-19.06,95.015-53.668C520.874,376.446,515.118,319.162,483.791,272.679z M331.123,163.437
	c0,17.104-14.176,31.02-31.601,31.02c-17.425,0-31.601-13.915-31.601-31.02s14.176-31.02,31.601-31.02
	C316.947,132.418,331.123,146.333,331.123,163.437z M257.473,60.584c17.425,0,31.601,13.915,31.601,31.02
	s-14.176,31.02-31.601,31.02s-31.601-13.915-31.601-31.02S240.048,60.584,257.473,60.584z M215.423,132.418
	c17.425,0,31.601,13.915,31.601,31.02s-14.176,31.02-31.601,31.02s-31.601-13.915-31.601-31.02S197.998,132.418,215.423,132.418z
	 M45.694,284.045c0.49-0.768,47.06-72.772,117.799-113.004c3.732,25.035,25.594,44.312,51.929,44.312
	c17.185,0,32.467-8.207,42.049-20.867c9.582,12.659,24.864,20.867,42.049,20.867c25.78,0,47.262-18.475,51.66-42.737
	c69.078,40.443,114.599,110.687,115.072,111.429c0.048,0.073,0.096,0.147,0.145,0.219c13.901,20.591,22.062,43.47,24.193,65.664
	c-2.776,1.647-5.921,2.513-9.154,2.453c-9.591-0.182-17.393-7.997-17.393-17.423v-23.392c0-20.732-16.999-37.921-37.893-38.316
	c-10.315-0.203-20.182,3.736-27.662,11.074c-7.453,7.313-11.727,17.443-11.727,27.792v16.824c0,6.773-2.82,13.425-7.738,18.252
	c-4.883,4.792-11.249,7.343-17.955,7.235c-13.618-0.258-24.697-11.379-24.697-24.789v-33.705c0-20.732-17-37.921-37.894-38.316
	c-10.369-0.191-20.184,3.736-27.662,11.074c-7.453,7.314-11.727,17.443-11.727,27.792v58.8c0,6.773-2.82,13.425-7.738,18.252
	c-4.884,4.791-11.27,7.359-17.955,7.235c-13.618-0.258-24.697-11.379-24.697-24.789v-34.502c0-12.348-5.103-24.436-13.999-33.166
	c-8.921-8.754-20.628-13.453-32.986-13.212c-24.923,0.471-45.199,20.964-45.199,45.682v13.628c0,4.845-1.941,9.418-5.466,12.877
	c-3.44,3.375-7.918,5.194-12.629,5.097c-9.59-0.182-17.392-7.997-17.392-17.423v-2.211c0-20.732-17-37.921-37.894-38.316
	c-1.328-0.026-2.645,0.027-3.95,0.141c1.97-3.488,4.08-6.932,6.359-10.308C45.599,284.192,45.647,284.119,45.694,284.045z
	 M479.993,408.84c-14.592,27.457-41.783,42.578-76.562,42.578H107.718c-34.273,0-61.125-15.01-75.61-42.267
	c-12.201-22.957-14.351-51.435-7.12-79.529c0.065-0.203,0.134-0.403,0.186-0.612c2.02-8.083,9.401-13.833,17.568-13.685
	c9.591,0.182,17.393,7.997,17.393,17.423v2.211c0,20.732,16.999,37.921,37.893,38.316c10.399,0.196,20.182-3.736,27.662-11.074
	c7.453-7.313,11.727-17.443,11.727-27.792V320.78c0-13.411,11.08-24.532,24.698-24.789c6.67-0.118,13.072,2.443,17.955,7.235
	c4.918,4.826,7.738,11.478,7.738,18.251v34.502c0,24.718,20.275,45.211,45.198,45.682c0.294,0.005,0.587,0.008,0.88,0.008
	c12.026,0,23.399-4.676,32.107-13.221c8.897-8.73,13.999-20.819,13.999-33.167v-58.8c0-4.845,1.941-9.417,5.466-12.877
	c3.441-3.376,7.945-5.182,12.629-5.097c9.591,0.182,17.393,7.997,17.393,17.423v33.705c0,24.718,20.275,45.211,45.198,45.682
	c12.381,0.241,24.065-4.458,32.986-13.212c8.897-8.73,13.999-20.819,13.999-33.167v-16.824c0-4.845,1.94-9.417,5.466-12.876
	c3.44-3.376,7.96-5.172,12.629-5.097c9.59,0.182,17.392,7.997,17.392,17.423v23.392c0,20.732,17,37.921,37.895,38.316
	c3.28,0.067,6.507-0.289,9.624-1.034C489.431,385.301,485.898,397.728,479.993,408.84z"/>
<path d="M155.953,219.97c2.675,0,5.348-1.02,7.388-3.06l0.097-0.097c4.08-4.08,4.08-10.696,0-14.777
	c-4.081-4.08-10.695-4.08-14.777,0l-0.097,0.097c-4.08,4.08-4.08,10.696,0,14.777C150.606,218.951,153.278,219.97,155.953,219.97z"
	/>
<path d="M72.892,295.251c1.894,1.447,4.124,2.147,6.336,2.147c3.145,0,6.252-1.414,8.31-4.104
	c10.548-13.8,27.774-34.51,49.945-54.794c4.258-3.895,4.551-10.504,0.656-14.762c-3.894-4.257-10.503-4.551-14.762-0.656
	c-23.303,21.32-41.381,43.049-52.442,57.523C67.431,285.19,68.307,291.748,72.892,295.251z"/>
</svg>