<?xml version="1.0" encoding="iso-8859-1"?>
<!-- Uploaded to: SVG Repo, www.svgrepo.com, Generator: SVG Repo Mixer Tools -->
<svg height="800px" width="800px" version="1.1" id="Layer_1" xmlns="http://www.w3.org/2000/svg" xmlns:xlink="http://www.w3.org/1999/xlink" 
	 viewBox="0 0 512 512" xml:space="preserve">
<polygon style="fill:#0092E0;" points="392.359,501.551 119.641,501.551 78.89,221.519 433.11,221.519 "/>
<g>
	<polygon style="fill:#3FD0FC;" points="410.014,380.227 417.752,327.058 312.812,221.519 252.208,221.519 	"/>
	<polygon style="fill:#3FD0FC;" points="287.326,501.551 226.722,501.551 101.283,375.396 90.893,303.997 91.302,304.78 
		206.648,420.126 230.552,444.028 230.649,444.126 	"/>
	<polygon style="fill:#3FD0FC;" points="160.848,221.519 100.244,221.519 378.686,501.551 392.359,501.551 398.351,460.378 
		323.598,385.626 	"/>
</g>
<polygon style="fill:#FFDF9F;" points="378.732,123.052 378.732,39.707 416.391,39.707 416.391,173.449 "/>
<path style="fill:#FF5764;" d="M340.09,112.871c3.673,0,7.281,0.273,10.819,0.762c1.137-5.575,1.751-11.338,1.751-17.249
	c0-47.46-38.474-85.933-85.933-85.933c-37.185,0-68.847,23.621-80.816,56.674c2.271-0.162,4.562-0.25,6.873-0.25
	c43.587,0,80.321,29.328,91.552,69.327C298.539,121.802,318.268,112.871,340.09,112.871z"/>
<path style="fill:#9AE523;" d="M266.901,221.519c13.115-16.299,20.969-37.01,20.969-59.559c0-52.514-42.571-95.086-95.085-95.086
	s-95.086,42.571-95.086,95.086c0,22.549,7.854,43.26,20.969,59.559H266.901z"/>
<path style="fill:#F777F1;" d="M340.09,112.871c-21.822,0-41.551,8.933-55.754,23.33c2.301,8.193,3.534,16.831,3.534,25.759
	c0,22.174-7.608,42.561-20.332,58.733c0.112,0.274,0.21,0.554,0.324,0.827h144.455c3.921-9.329,6.093-19.574,6.093-30.328
	C418.41,147.935,383.346,112.871,340.09,112.871z"/>
<path d="M441.012,214.683c-1.984-2.295-4.869-3.613-7.903-3.613h-6.512c1.486-6.479,2.261-13.122,2.261-19.879
	c0-6.445-0.707-12.725-2.019-18.782V39.707c0-5.771-4.678-10.449-10.449-10.449h-37.66c-5.771,0-10.449,4.678-10.449,10.449v67.331
	c-1.843-0.62-3.705-1.194-5.6-1.693c0.28-2.987,0.426-5.982,0.426-8.961C363.109,43.237,319.872,0,266.727,0
	c-38.48,0-72.708,22.41-88.155,57.386c-51.495,6.962-91.323,51.202-91.323,104.574c0,17.156,4.254,34.048,12.162,49.11H78.89
	c-3.033,0-5.918,1.319-7.903,3.613s-2.875,5.338-2.438,8.34l40.751,280.032c0.747,5.136,5.15,8.944,10.34,8.944h272.718
	c5.19,0,9.593-3.809,10.34-8.944l40.751-280.032C443.887,220.022,442.998,216.978,441.012,214.683z M391.011,438.261l-60.024-60.023
	c-4.08-4.08-10.697-4.08-14.777,0s-4.08,10.697,0,14.777l71.046,71.046l-3.935,27.041h-0.66c-0.395-0.619-0.858-1.207-1.396-1.749
	L125.383,231.968h30.616L269.321,345.29c2.041,2.041,4.715,3.06,7.388,3.06s5.349-1.02,7.388-3.06c4.08-4.08,4.08-10.697,0-14.778
	l-98.544-98.544h62.34c0.038,0.039,0.069,0.082,0.108,0.119l150.797,151.7c0.04,0.04,0.084,0.073,0.123,0.113L391.011,438.261z
	 M277.348,231.968h31.118l98.191,98.772l-3.975,27.313L277.348,231.968z M337.933,231.968h74.328c0.018,0,0.034,0.002,0.052,0.002
	c0.011,0,0.023-0.002,0.034-0.002h8.683l-10.611,72.915L337.933,231.968z M286.158,211.07c7.908-15.062,12.162-31.954,12.162-49.11
	c0-7.644-0.824-15.099-2.376-22.287c12.298-10.569,27.796-16.355,44.147-16.355c37.424,0,67.871,30.447,67.871,67.871
	c0,6.811-0.994,13.472-2.957,19.879H286.158V211.07z M389.181,50.156h16.761v81.577c-4.957-5.485-10.59-10.343-16.762-14.456V50.156
	H389.181z M266.727,20.898c41.622,0,75.484,33.863,75.484,75.485c0,2.022-0.096,4.054-0.262,6.085
	c-0.621-0.013-1.236-0.047-1.86-0.047c-18.533,0-36.227,5.686-51.089,16.193c-15.314-33.86-47.995-58.246-86.611-61.746
	C215.951,34.679,240.028,20.898,266.727,20.898z M108.147,161.96c0-46.669,37.967-84.637,84.637-84.637s84.637,37.967,84.637,84.637
	c0,17.864-5.413,34.742-15.7,49.11H123.848C113.56,196.702,108.147,179.823,108.147,161.96z M95.915,231.968l257.621,259.134
	h-61.881l-29.582-29.582c-4.08-4.08-10.697-4.08-14.778,0c-4.081,4.08-4.08,10.697,0,14.778l14.804,14.804h-31.042L111.125,370.469
	l-5.294-36.382l93.429,93.428c2.041,2.041,4.715,3.06,7.388,3.06c2.674,0,5.349-1.02,7.388-3.06c4.08-4.08,4.08-10.697,0-14.778
	L101.401,300.102c-0.191-0.191-0.393-0.364-0.595-0.537l-9.837-67.597H95.915z M116.178,405.192l85.411,85.91h-72.91
	L116.178,405.192z"/>
<path d="M152.074,110.262c-15.881,12.552-24.991,31.349-24.991,51.571c0,5.771,4.678,10.449,10.449,10.449
	c5.771,0,10.449-4.678,10.449-10.449c0-13.791,6.215-26.611,17.051-35.175c4.528-3.579,5.297-10.149,1.719-14.677
	S156.602,106.683,152.074,110.262z"/>
<path d="M223.26,451.514c2.041,2.041,4.715,3.06,7.388,3.06c2.674,0,5.349-1.02,7.388-3.06c4.08-4.08,4.08-10.697,0-14.778
	l-0.097-0.097c-4.08-4.08-10.697-4.08-14.778,0c-4.08,4.08-4.08,10.697,0,14.778L223.26,451.514z"/>
<path d="M308.001,354.415c-4.08-4.08-10.697-4.08-14.778,0c-4.08,4.08-4.08,10.697,0,14.778l0.097,0.097
	c2.041,2.041,4.715,3.06,7.388,3.06c2.674,0,5.349-1.02,7.388-3.06c4.08-4.08,4.08-10.697,0-14.778L308.001,354.415z"/>
<path d="M192.824,96.131l-0.267-0.001c-0.014,0-0.027,0-0.041,0c-5.751,0-10.426,4.652-10.448,10.409
	c-0.022,5.771,4.638,10.467,10.409,10.489l0.267,0.001c0.014,0,0.027,0,0.041,0c5.751,0,10.426-4.652,10.448-10.409
	C203.255,100.85,198.595,96.153,192.824,96.131z"/>
</svg>