<?xml version="1.0" encoding="iso-8859-1"?>
<!-- Uploaded to: SVG Repo, www.svgrepo.com, Generator: SVG Repo Mixer Tools -->
<svg height="800px" width="800px" version="1.1" id="Layer_1" xmlns="http://www.w3.org/2000/svg" xmlns:xlink="http://www.w3.org/1999/xlink" 
	 viewBox="0 0 512.001 512.001" xml:space="preserve">
<path style="fill:#F4C67D;" d="M456.892,372.679c-20.773-1.712-41.419-5.276-61.659-10.716
	c-20.557-5.517-40.709-12.948-60.15-22.295c-34.393-16.525-66.643-39.035-95.165-67.556c-13.798-13.798-26.175-28.471-37.158-43.816
	v-0.025h-0.013c-6.062-8.459-11.693-17.133-16.905-25.998l-13.494-25.326c-9.347-19.454-16.765-39.606-22.295-60.15
	c-5.428-20.24-9.004-40.886-10.716-61.659C137.03,26.996,111.552,6.54,83.525,9.913c-10.171,1.217-19.479,5.479-26.886,11.908
	S43.716,36.85,41.129,46.767c-1.078,4.109-2.067,8.231-2.98,12.378c-6.861,30.893-9.448,62.534-7.787,94.011l-7.977,2.435
	c-7.964,2.41-13.291,9.943-12.847,18.249c2.372,45.389,13.62,90.397,33.708,132.221c1.116,2.333,2.257,4.642,3.437,6.95l-4.21,2.283
	c-10.475,5.694-14.369,18.871-8.535,29.27c15.244,27.215,34.431,52.807,57.576,75.952c23.144,23.144,48.737,42.332,75.939,57.576
	c10.412,5.834,23.588,1.94,29.283-8.535l2.283-4.21c2.308,1.179,4.616,2.321,6.95,3.437c41.812,20.088,86.82,31.337,132.221,33.708
	c8.307,0.431,15.84-4.883,18.249-12.847l2.422-7.977c6.138,0.33,12.289,0.482,18.439,0.482c25.364,0,50.702-2.752,75.571-8.281
	c4.147-0.913,8.269-1.902,12.39-2.98c19.822-5.162,34.406-22.041,36.854-42.383c0.241-2.029,0.368-4.058,0.368-6.062
	C502.484,396.889,482.992,374.835,456.892,372.679z"/>
<path style="fill:#E0B16E;" d="M419.291,459.296c-23.969-1.978-47.798-6.1-71.171-12.378c-23.728-6.366-46.986-14.939-69.433-25.732
	c-39.707-19.074-76.928-45.071-109.851-77.994c-15.928-15.928-30.208-32.859-42.89-50.588l-0.013-0.013h-0.013
	c-6.988-9.778-13.494-19.784-19.505-30.018l-15.573-29.232C80.05,210.896,71.477,187.625,65.11,163.91
	c-6.278-23.373-10.399-47.202-12.378-71.171c-1.078-13.024-6.442-24.616-14.584-33.594c-6.861,30.893-9.448,62.534-7.787,94.011
	l-7.977,2.435c-7.964,2.41-13.291,9.943-12.847,18.249c2.372,45.389,13.62,90.397,33.708,132.221
	c1.116,2.333,2.257,4.642,3.437,6.95l-4.21,2.283c-10.475,5.694-14.369,18.871-8.535,29.27
	c15.244,27.215,34.431,52.807,57.576,75.952s48.737,42.332,75.939,57.576c10.412,5.834,23.588,1.94,29.283-8.535l2.283-4.21
	c2.308,1.179,4.616,2.321,6.95,3.437c41.812,20.088,86.82,31.337,132.221,33.708c8.307,0.431,15.84-4.883,18.249-12.847l2.422-7.977
	c6.138,0.33,12.289,0.482,18.439,0.482c25.364,0,50.702-2.752,75.571-8.281C443.906,465.739,432.302,460.374,419.291,459.296z"/>
<path d="M498.542,384.727c-10.255-12.57-24.772-20.223-40.872-21.549c-20.229-1.666-40.408-5.173-59.974-10.422
	c-20.145-5.415-39.826-12.71-58.497-21.685c-34.274-16.466-65.413-38.576-92.554-65.718c-20.417-20.417-38.113-43.271-52.597-67.926
	c-2.662-4.53-8.489-6.043-13.019-3.384c-4.529,2.661-6.044,8.489-3.384,13.019c3.565,6.068,7.321,12.029,11.248,17.881
	l-138.02,74.937c-18.802-39.802-29.526-82.368-31.84-126.568c-0.207-3.94,2.307-7.501,6.113-8.657l118.42-35.972
	c5.368,17.982,12.142,35.555,20.216,52.355c1.637,3.406,5.037,5.394,8.579,5.394c1.381,0,2.785-0.303,4.114-0.941
	c4.734-2.275,6.728-7.958,4.453-12.693c-8.974-18.673-16.27-38.354-21.682-58.491c-5.249-19.569-8.757-39.749-10.423-59.978
	c-1.327-16.102-8.98-30.618-21.549-40.872C114.585,3.106,98.641-1.517,82.384,0.441C57.917,3.388,38.113,20.619,31.931,44.337
	c-8.668,33.251-12.485,67.471-11.377,101.834l-0.935,0.284C7.424,150.159-0.627,161.613,0.038,174.31
	c2.47,47.161,13.996,92.572,34.232,134.973c-5.446,4.023-9.424,9.659-11.338,16.281c-2.311,7.995-1.348,16.384,2.709,23.625
	c15.955,28.476,35.856,54.725,59.151,78.02c23.293,23.294,49.542,43.195,78.02,59.151c4.659,2.611,9.796,3.939,14.995,3.939
	c2.88,0,5.78-0.407,8.629-1.231c6.622-1.914,12.26-5.893,16.282-11.339c42.416,20.239,87.821,31.763,134.973,34.232
	c0.49,0.025,0.977,0.038,1.462,0.038c12.104,0,22.83-7.896,26.392-19.619l0.289-0.952c3.862,0.124,7.722,0.208,11.58,0.208
	c30.462,0,60.74-3.876,90.249-11.568c23.719-6.182,40.95-25.988,43.897-50.455C513.517,413.355,508.895,397.414,498.542,384.727z
	 M50.337,49.136c4.198-16.101,17.67-27.801,34.321-29.808c11.08-1.333,21.942,1.815,30.587,8.868
	c8.527,6.957,13.718,16.792,14.616,27.695c1.508,18.301,4.453,36.562,8.749,54.418l-99.17,30.126
	C38.912,109.62,42.562,78.965,50.337,49.136z M338.684,492.966c-44.191-2.314-86.752-13.036-126.568-31.84l40.084-73.826
	c2.506-4.616,0.795-10.39-3.821-12.897c-4.619-2.506-10.39-0.794-12.897,3.821l-47.108,86.762c-1.546,2.847-4.11,4.91-7.222,5.81
	c-3.065,0.885-6.278,0.521-9.043-1.03c-26.955-15.103-51.808-33.947-73.868-56.006c-22.061-22.061-40.904-46.914-56.006-73.868
	c-1.55-2.766-1.915-5.978-1.03-9.045c0.899-3.112,2.962-5.676,5.81-7.222l152.974-83.056c10.123,13.466,21.219,26.252,33.205,38.237
	c12.021,12.021,24.797,23.096,38.24,33.202L254.1,343.928c-2.506,4.616-0.795,10.39,3.821,12.898
	c1.442,0.782,2.997,1.154,4.53,1.154c3.375,0,6.644-1.801,8.368-4.975l16.234-29.9c14.005,9.391,28.656,17.786,43.905,25.111
	c16.797,8.073,34.369,14.845,52.355,20.215L347.34,486.85C346.186,490.657,342.634,493.172,338.684,492.966z M492.672,427.341
	c-2.006,16.653-13.707,30.125-29.809,34.321c-29.827,7.775-60.485,11.423-91.297,10.895l30.125-99.17
	c17.854,4.297,36.114,7.241,54.417,8.749c10.903,0.898,20.739,6.089,27.695,14.616C490.857,405.397,494.007,416.26,492.672,427.341z
	"/>
</svg>