<?xml version="1.0" encoding="iso-8859-1"?>
<!-- Uploaded to: SVG Repo, www.svgrepo.com, Generator: SVG Repo Mixer Tools -->
<svg version="1.1" id="Layer_1" xmlns="http://www.w3.org/2000/svg" xmlns:xlink="http://www.w3.org/1999/xlink" 
	 viewBox="0 0 511.999 511.999" xml:space="preserve">
<path style="fill:#9E005D;" d="M144.399,159.796v-15.86c0-44.215,35.602-80.059,79.818-80.059c35.86,0,66.093,23.501,76.283,56
	l3.534,39.919L144.399,159.796L144.399,159.796z"/>
<circle style="fill:#FF1D25;" cx="272.013" cy="135.932" r="24.021"/>
<path style="fill:#FF7BAC;" d="M244.174,66.464c-6.444-1.672-12.972-2.587-19.94-2.587c-44.214,0-79.836,35.843-79.836,80.059v15.86
	h39.619v-15.86C184.018,106.592,209.588,75.313,244.174,66.464z"/>
<g>
	<circle style="fill:#FF1D25;" cx="320.045" cy="135.932" r="24.021"/>
	<circle style="fill:#FF1D25;" cx="368.077" cy="135.932" r="24.021"/>
</g>
<path style="fill:#FBB03B;" d="M444.138,400.122H67.863c-11.054,0-20.015-8.961-20.015-20.015l0,0
	c0-11.054,8.961-20.015,20.015-20.015h376.274c11.054,0,20.015,8.961,20.015,20.015l0,0
	C464.152,391.161,455.191,400.122,444.138,400.122z"/>
<path style="fill:#FCC062;" d="M444.138,361.017h-48.035c11.054,0,20.015,8.756,20.015,19.809c0,11.054-8.961,19.809-20.015,19.809
	h48.035c11.054,0,20.015-8.756,20.015-19.809S455.191,361.017,444.138,361.017z"/>
<path style="fill:#AE7418;" d="M71.866,361.017h48.035c-11.054,0-20.015,8.756-20.015,19.809c0,11.054,8.961,19.809,20.015,19.809
	H71.866c-11.054,0-20.015-8.756-20.015-19.809S60.812,361.017,71.866,361.017z"/>
<path style="fill:#FBB03B;" d="M444.138,360.093H67.863c-11.054,0-20.015-8.961-20.015-20.015l0,0
	c0-11.054,8.961-20.015,20.015-20.015h376.274c11.054,0,20.015,8.961,20.015,20.015l0,0
	C464.152,351.133,455.191,360.093,444.138,360.093z"/>
<path style="fill:#FCC062;" d="M444.138,320.356h-48.035c11.054,0,20.015,9.277,20.015,20.331c0,11.054-8.961,20.331-20.015,20.331
	h48.035c11.054,0,20.015-9.277,20.015-20.331C464.152,329.633,455.191,320.356,444.138,320.356z"/>
<path style="fill:#AE7418;" d="M71.866,320.356h48.035c-11.054,0-20.015,9.277-20.015,20.331c0,11.054,8.961,20.331,20.015,20.331
	H71.866c-11.054,0-20.015-9.277-20.015-20.331C51.851,329.633,60.812,320.356,71.866,320.356z"/>
<path style="fill:#FBB03B;" d="M444.138,320.064H67.863c-11.054,0-20.015-8.961-20.015-20.015l0,0
	c0-11.054,8.961-20.015,20.015-20.015h376.274c11.054,0,20.015,8.961,20.015,20.015l0,0
	C464.152,311.104,455.191,320.064,444.138,320.064z"/>
<path style="fill:#FCC062;" d="M444.138,280.737h-48.035c11.054,0,20.015,8.756,20.015,19.809s-8.961,19.809-20.015,19.809h48.035
	c11.054,0,20.015-8.756,20.015-19.809C464.152,289.493,455.191,280.737,444.138,280.737z"/>
<path style="fill:#AE7418;" d="M71.866,280.737h48.035c-11.054,0-20.015,8.756-20.015,19.809s8.961,19.809,20.015,19.809H71.866
	c-11.054,0-20.015-8.756-20.015-19.809C51.851,289.493,60.812,280.737,71.866,280.737z"/>
<path style="fill:#FBB03B;" d="M444.138,280.035H67.863c-11.054,0-20.015-8.961-20.015-20.015l0,0
	c0-11.054,8.961-20.015,20.015-20.015h376.274c11.054,0,20.015,8.961,20.015,20.015l0,0
	C464.152,271.074,455.191,280.035,444.138,280.035z"/>
<path style="fill:#FCC062;" d="M444.138,240.076h-48.035c11.054,0,20.015,9.277,20.015,20.331c0,11.054-8.961,20.331-20.015,20.331
	h48.035c11.054,0,20.015-9.277,20.015-20.331C464.152,249.353,455.191,240.076,444.138,240.076z"/>
<path style="fill:#AE7418;" d="M71.866,240.076h48.035c-11.054,0-20.015,9.277-20.015,20.331c0,11.054,8.961,20.331,20.015,20.331
	H71.866c-11.054,0-20.015-9.277-20.015-20.331C51.851,249.353,60.812,240.076,71.866,240.076z"/>
<path id="SVGCleanerId_0" style="fill:#FBB03B;" d="M444.138,240.006H67.863c-11.054,0-20.015-8.961-20.015-20.015l0,0
	c0-11.054,8.961-20.015,20.015-20.015h376.274c11.054,0,20.015,8.961,20.015,20.015l0,0
	C464.152,231.045,455.191,240.006,444.138,240.006z"/>
<g>
	<path id="SVGCleanerId_0_1_" style="fill:#FBB03B;" d="M444.138,240.006H67.863c-11.054,0-20.015-8.961-20.015-20.015l0,0
		c0-11.054,8.961-20.015,20.015-20.015h376.274c11.054,0,20.015,8.961,20.015,20.015l0,0
		C464.152,231.045,455.191,240.006,444.138,240.006z"/>
</g>
<path style="fill:#FCC062;" d="M444.138,200.457h-48.035c11.054,0,20.015,8.756,20.015,19.809c0,11.054-8.961,19.809-20.015,19.809
	h48.035c11.054,0,20.015-8.756,20.015-19.809S455.191,200.457,444.138,200.457z"/>
<path style="fill:#AE7418;" d="M71.866,200.457h48.035c-11.054,0-20.015,8.756-20.015,19.809c0,11.054,8.961,19.809,20.015,19.809
	H71.866c-11.054,0-20.015-8.756-20.015-19.809S60.812,200.457,71.866,200.457z"/>
<path style="fill:#BDCCD4;" d="M456.146,448.158H55.855c-26.529,0-48.035-21.506-48.035-48.035l0,0h496.361l0,0
	C504.181,426.651,482.675,448.158,456.146,448.158z"/>
<path style="fill:#CAD6DD;" d="M440.134,400.635c0,26.065-21.506,47.959-48.035,47.959h64.047c26.529,0,48.035-21.894,48.035-47.959
	H440.134z"/>
<path style="fill:#8E999F;" d="M71.866,400.635c0,22.937,21.506,47.959,48.035,47.959H55.855c-26.529,0-48.035-25.022-48.035-47.959
	H71.866z"/>
<path style="fill:#C27428;" d="M444.138,159.947H69.005c-10.469,0-20.009,7.533-21.052,17.949c-1.2,11.98,8.176,22.079,19.91,22.079
	h56.04c15.475,0,28.021,12.546,28.021,28.021v22.431c0,15.173,11.361,28.772,26.513,29.567
	c16.159,0.847,29.527-12.007,29.527-27.981v-24.017c0-15.475,12.546-28.021,28.021-28.021h59.408
	c13.615,0,24.653,11.038,24.653,24.653v7.37c0,13.265,10.753,24.017,24.017,24.017l0,0c13.265,0,24.017-10.753,24.017-24.017v-7.37
	c0-13.615,11.038-24.653,24.653-24.653h50.261c10.47,0,20.009-7.534,21.052-17.95C465.247,170.046,455.872,159.947,444.138,159.947z
	"/>
<g>
	<path style="fill:#754C24;" d="M191.316,227.997v24.017c0,12.672-8.144,23.255-19.687,26.719c2.075,0.656,3.875,1.144,6.145,1.263
		c16.159,0.847,29.181-12.007,29.181-27.981v-24.017c0-15.475,13.556-27.54,29.031-27.54h-16.012
		C204.498,200.457,191.316,212.522,191.316,227.997z"/>
	<path style="fill:#754C24;" d="M351.875,224.63V232c0,10.443-6.607,19.238-15.914,22.547c2.516,0.895,4.948,1.471,7.77,1.471
		c13.265,0,23.783-10.753,23.783-24.017v-7.37c0-13.615,11.605-24.173,25.22-24.173h-16.012
		C363.107,200.457,351.875,211.014,351.875,224.63z"/>
	<path style="fill:#754C24;" d="M444.138,159.796h-16.012c11.734,0,21.11,10.414,19.911,22.395
		c-1.043,10.418-10.582,18.266-21.052,18.266h16.012c10.47,0,20.009-7.85,21.052-18.266
		C465.247,170.21,455.872,159.796,444.138,159.796z"/>
</g>
<rect x="224.679" y="231.736" width="79.237" height="15.639"/>
<rect x="231.977" y="79.518" width="15.639" height="15.639"/>
<rect x="191.316" y="87.858" width="16.681" height="15.639"/>
<rect x="207.997" y="104.54" width="16.681" height="15.639"/>
<path d="M469.151,392.303c1.804-3.685,2.82-7.823,2.82-12.194c0-7.852-3.274-14.95-8.521-20.015
	c5.247-5.065,8.521-12.163,8.521-20.015s-3.274-14.949-8.52-20.014c5.247-5.065,8.52-12.163,8.52-20.015
	c0-7.724-3.207-14.714-8.364-19.736c5.617-5.184,9.196-12.501,9.209-20.469c0,0.019,0,0.041,0,0.041h0.022
	c-0.014-8.341-3.544-15.223-9.133-20.381c5.098-4.953,8.329-11.868,8.398-19.463l0.133-0.004c0-7.98-3.524-15.181-8.959-20.254
	c4.717-4.427,7.889-10.362,8.552-16.978c0.786-7.853-1.783-15.694-7.049-21.514c-5.269-5.823-12.794-9.162-20.643-9.162h-48.662
	c2.819-4.749,4.445-10.287,4.445-16.199c0-17.555-14.282-31.837-31.838-31.837c-9.578,0-18.176,4.258-24.017,10.973
	c-5.842-6.715-14.439-10.973-24.017-10.973c-5.716,0-11.08,1.521-15.721,4.17c-13.928-31.61-45.094-52.242-80.378-52.242
	c-48.462,0-87.889,39.439-87.889,87.916v8.192H69.005c-14.764,0-27.43,10.976-28.833,24.99c-0.786,7.854,1.783,15.696,7.049,21.516
	c0.424,0.469,0.868,0.915,1.321,1.351c-5.242,5.065-8.512,12.159-8.512,20.006c0,7.849,3.266,14.95,8.51,20.014
	c-5.243,5.065-8.51,12.166-8.51,20.015c0,7.852,3.274,14.949,8.52,20.014c-5.247,5.065-8.52,12.163-8.52,20.015
	c0,7.852,3.274,14.95,8.52,20.015c-5.247,5.065-8.52,12.162-8.52,20.014s3.274,14.95,8.521,20.015
	c-5.247,5.065-8.521,12.163-8.521,20.015c0,4.372,1.015,8.51,2.82,12.194H0v7.819c0,30.798,25.056,55.855,55.854,55.855h400.291
	c30.798,0,55.854-25.057,55.854-55.855v-7.819h-42.847V392.303z M368.081,119.731c8.932,0,16.199,7.267,16.199,16.198
	c0,8.932-7.267,16.199-16.199,16.199c-8.931,0-16.198-7.267-16.198-16.199C351.884,126.998,359.151,119.731,368.081,119.731z
	 M320.047,119.731c8.931,0,16.198,7.267,16.198,16.198c0,8.932-7.267,16.199-16.198,16.199s-16.198-7.267-16.198-16.199
	C303.849,126.998,311.115,119.731,320.047,119.731z M288.21,135.929c0,8.932-7.267,16.199-16.198,16.199
	s-16.198-7.267-16.198-16.199c0-8.931,7.267-16.198,16.198-16.198C280.944,119.731,288.21,126.998,288.21,135.929z M151.697,143.936
	c0-2.746,0.169-5.452,0.468-8.12h16.213v-15.639h-12.652c9.847-28.215,36.7-48.518,68.22-48.518
	c26.306,0,49.82,13.946,62.514,35.915c-4.339-2.22-9.248-3.481-14.448-3.481c-17.555,0-31.837,14.281-31.837,31.837
	c0,5.911,1.625,11.45,4.445,16.199h-29.325v-7.972h-15.639v7.972h-47.959V143.936z M55.733,178.677
	c0.613-6.118,6.442-10.91,13.271-10.91h375.132c3.44,0,6.737,1.464,9.048,4.017c2.34,2.586,3.435,5.947,3.083,9.463
	c-0.612,6.118-6.441,10.911-13.271,10.911h-50.261c-17.906,0-32.473,14.567-32.473,32.473V232c0,8.931-7.267,16.198-16.198,16.198
	c-8.931,0-16.198-7.267-16.198-16.198v-7.37c0-17.906-14.567-32.473-32.473-32.473h-59.408c-19.762,0-35.84,16.078-35.84,35.84
	v24.017c0,5.597-2.237,10.801-6.298,14.657c-4.06,3.849-9.395,5.813-15,5.515c-10.534-0.552-19.103-10.313-19.103-21.758v-22.431
	c0-19.762-16.078-35.84-35.84-35.84h-56.04c-3.44,0-6.737-1.464-9.047-4.017C56.476,185.553,55.38,182.192,55.733,178.677z
	 M55.668,300.049c0-6.725,5.47-12.195,12.195-12.195h76.055v-15.639H67.863c-6.725,0-12.195-5.47-12.195-12.194
	c0-6.725,5.47-12.195,12.195-12.195h68.05v-15.639h-68.05c-6.725,0-12.195-5.47-12.195-12.194c0-6.725,5.47-12.195,12.195-12.195
	h56.04c11.139,0,20.201,9.062,20.201,20.201v22.431c0,19.962,14.901,36.379,33.924,37.376c0.652,0.034,1.299,0.052,1.945,0.052
	c9.223-0.001,17.909-3.454,24.638-9.84c7.101-6.738,11.172-16.215,11.172-26v-24.017c0-11.139,9.062-20.201,20.201-20.201h59.408
	c9.281,0,16.834,7.551,16.834,16.834v7.37c0,17.555,14.281,31.837,31.837,31.837c17.555,0,31.837-14.281,31.837-31.837v-7.37
	c0-9.281,7.552-16.834,16.834-16.834h50.261c0.56,0,1.117-0.021,1.67-0.052v0.143c6.256,0,11.794,5.314,11.927,11.897l-0.216,0.004
	c0,6.7-5.377,11.947-12.241,11.947h-59.941v15.639h59.941c6.938,0,13.027,5.815,13.041,12.448
	c-0.014,6.583-6.223,12.575-13.041,12.575H216.338v15.639h227.798c6.839,0,12.195,5.278,12.195,12.014
	c0,6.725-5.471,12.195-12.195,12.195H67.863C61.139,312.245,55.668,306.775,55.668,300.049z M55.668,340.078
	c0-6.724,5.47-12.194,12.195-12.194h376.273c6.725,0,12.195,5.47,12.195,12.194c0,6.725-5.471,12.195-12.195,12.195H67.863
	C61.139,352.274,55.668,346.803,55.668,340.078z M55.668,380.109c0-6.725,5.47-12.195,12.195-12.195h376.273
	c6.725,0,12.195,5.471,12.195,12.195c0,6.724-5.471,12.194-12.195,12.194H67.863C61.139,392.303,55.668,386.832,55.668,380.109z
	 M456.146,440.338H55.854c-19.501,0-35.804-13.951-39.453-32.397h51.461h376.273h51.461
	C491.95,426.387,475.647,440.338,456.146,440.338z"/>
</svg>