<?xml version="1.0" encoding="iso-8859-1"?>
<!-- Uploaded to: SVG Repo, www.svgrepo.com, Generator: SVG Repo Mixer Tools -->
<svg height="800px" width="800px" version="1.1" id="Layer_1" xmlns="http://www.w3.org/2000/svg" xmlns:xlink="http://www.w3.org/1999/xlink" 
	 viewBox="0 0 512 512" xml:space="preserve">
<path style="fill:#3FD0FC;" d="M133.221,189.242c0,36.869,31.796,66.757,71.018,66.757h103.518
	c39.222,0,71.018-29.888,71.018-66.757v-71.283c0-36.869-31.796-66.758-71.018-66.758H204.238
	c-39.222,0-71.018,29.888-71.018,66.758C133.221,117.959,133.221,189.242,133.221,189.242z"/>
<path style="fill:#0092E0;" d="M263.134,128.323H158.498c-13.961,0-25.278,11.317-25.278,25.278l0,0
	c0,13.961,11.317,25.278,25.278,25.278h194.999c13.961,0,25.278-11.317,25.278-25.278l0,0c0-13.961-11.317-25.278-25.278-25.278
	h-28.713L263.134,128.323z"/>
<path style="fill:#FFDF9F;" d="M10.449,394.04c0,36.869,31.796,66.757,71.018,66.757h103.518c39.222,0,71.018-29.888,71.018-66.757
	v-71.283c0-36.869-31.796-66.757-71.018-66.757H81.467c-39.222,0-71.018,29.888-71.018,66.757V394.04z"/>
<path style="fill:#FFA30C;" d="M140.363,333.121H35.726c-13.96,0-25.277,11.317-25.277,25.278l0,0
	c0,13.961,11.317,25.278,25.278,25.278h194.999c13.961,0,25.278-11.317,25.278-25.278l0,0c0-13.961-11.317-25.278-25.278-25.278
	h-28.713H140.363z"/>
<path style="fill:#FFA1D5;" d="M255.997,394.04c0,36.869,31.796,66.757,71.018,66.757h103.518c39.222,0,71.018-29.888,71.018-66.757
	v-71.283c0-36.869-31.796-66.757-71.018-66.757H327.015c-39.222,0-71.018,29.888-71.018,66.757L255.997,394.04L255.997,394.04z"/>
<path style="fill:#FF7DBE;" d="M385.911,333.121H281.274c-13.961,0-25.278,11.317-25.278,25.278l0,0
	c0,13.961,11.317,25.278,25.278,25.278h194.999c13.961,0,25.278-11.317,25.278-25.278l0,0c0-13.961-11.317-25.278-25.278-25.278
	h-28.713H385.911z"/>
<path d="M171.443,343.57h0.078c5.77,0,10.409-4.678,10.409-10.449s-4.718-10.449-10.488-10.449c-5.77,0-10.449,4.678-10.449,10.449
	S165.673,343.57,171.443,343.57z"/>
<path d="M416.992,343.57h0.078c5.77,0,10.41-4.678,10.41-10.449s-4.719-10.449-10.489-10.449s-10.449,4.678-10.449,10.449
	S411.222,343.57,416.992,343.57z"/>
<path d="M430.533,245.551h-67.126c15.871-14.097,25.815-34.118,25.815-56.309v-71.283c0-42.572-36.547-77.207-81.468-77.207H204.238
	c-44.921,0-81.468,34.635-81.468,77.207v71.283c0,22.191,9.944,42.212,25.815,56.309H81.467C36.546,245.551,0,280.186,0,322.758
	v71.283c0,42.572,36.546,77.207,81.467,77.207h103.518c30.451,0,57.037-15.926,71.016-39.441
	c13.978,23.515,40.565,39.441,71.016,39.441h103.518c44.921,0,81.467-34.635,81.467-77.207v-71.283
	C512,280.186,475.454,245.551,430.533,245.551z M491.102,322.758v3.151c-4.52-2.071-9.54-3.236-14.828-3.236h-28.713
	c-5.77,0-10.449,4.678-10.449,10.449c0,5.771,4.679,10.449,10.449,10.449h28.713c8.176,0,14.828,6.652,14.828,14.828
	s-6.652,14.829-14.828,14.829h-195c-8.149,0-14.78-6.609-14.825-14.749v-0.161c0.044-8.139,6.675-14.749,14.825-14.749h104.637
	c5.77,0,10.449-4.679,10.449-10.449c0-5.771-4.679-10.449-10.449-10.449H281.275c-5.287,0-10.305,1.164-14.825,3.234v-3.148
	c0-0.025-0.002-0.05-0.002-0.075c0.044-31.014,27.196-56.233,60.567-56.233h103.518
	C463.931,266.449,491.102,291.709,491.102,322.758z M256,284.992c-4.106-6.909-9.301-13.158-15.364-18.544h30.727
	C265.301,271.834,260.106,278.084,256,284.992z M204.238,61.651h103.517c33.399,0,60.57,25.26,60.57,56.309v3.151
	c-4.52-2.072-9.54-3.236-14.829-3.236h-28.712c-5.77,0-10.449,4.678-10.449,10.449c0,5.771,4.679,10.449,10.449,10.449h28.712
	c8.177,0,14.829,6.652,14.829,14.828s-6.652,14.829-14.829,14.829H158.498c-8.177,0-14.829-6.653-14.829-14.829
	s6.652-14.829,14.829-14.829h104.637c5.77,0,10.449-4.679,10.449-10.449c0-5.771-4.679-10.449-10.449-10.449H158.498
	c-5.289,0-10.309,1.164-14.829,3.236v-3.15C143.669,86.911,170.84,61.651,204.238,61.651z M143.669,189.242v-3.15
	c4.52,2.072,9.54,3.236,14.829,3.236h194.998c5.289,0,10.309-1.164,14.829-3.236v3.15c0,31.049-27.171,56.309-60.57,56.309H204.237
	C170.84,245.551,143.669,220.291,143.669,189.242z M81.467,266.449h103.518c33.37,0,60.522,25.219,60.567,56.233
	c0,0.025-0.002,0.05-0.002,0.075v3.149c-4.519-2.07-9.537-3.234-14.825-3.234h-28.713c-5.77,0-10.449,4.678-10.449,10.449
	s4.679,10.449,10.449,10.449h28.713c8.149,0,14.78,6.609,14.825,14.748v0.161c-0.044,8.139-6.675,14.749-14.825,14.749H35.726
	c-8.176,0-14.828-6.653-14.828-14.829s6.652-14.829,14.828-14.829h104.637c5.77,0,10.449-4.679,10.449-10.449
	c0-5.771-4.679-10.449-10.449-10.449H35.726c-5.289,0-10.308,1.164-14.828,3.236v-3.15
	C20.898,291.709,48.069,266.449,81.467,266.449z M184.984,450.349H81.467c-33.398,0-60.569-25.26-60.569-56.309v-3.15
	c4.52,2.071,9.54,3.236,14.828,3.236h194.999c5.287,0,10.305-1.164,14.825-3.234v3.148c0,0.025,0.002,0.05,0.002,0.075
	C245.506,425.129,218.355,450.349,184.984,450.349z M430.533,450.349H327.016c-33.37,0-60.522-25.219-60.567-56.233
	c0-0.025,0.002-0.05,0.002-0.075v-3.149c4.519,2.07,9.537,3.234,14.825,3.234h194.999c5.289,0,10.308-1.164,14.828-3.236v3.15
	C491.102,425.089,463.931,450.349,430.533,450.349z"/>
<path d="M294.214,138.772h0.079c5.77,0,10.409-4.678,10.409-10.449c0-5.771-4.719-10.449-10.489-10.449
	c-5.77,0-10.449,4.678-10.449,10.449C283.765,134.094,288.444,138.772,294.214,138.772z"/>
</svg>