<?xml version="1.0" encoding="iso-8859-1"?>
<!-- Uploaded to: SVG Repo, www.svgrepo.com, Generator: SVG Repo Mixer Tools -->
<svg height="800px" width="800px" version="1.1" id="Layer_1" xmlns="http://www.w3.org/2000/svg" xmlns:xlink="http://www.w3.org/1999/xlink" 
	 viewBox="0 0 511.997 511.997" xml:space="preserve">
<path style="fill:#C4A174;" d="M371.589,173.823H140.408c-36.788,0-67.787,27.461-72.224,63.98L36.072,502.137h439.855
	l-32.113-264.333C439.377,201.284,408.378,173.823,371.589,173.823z"/>
<path style="fill:#B58E64;" d="M175.751,173.823h-35.344c-36.788,0-67.787,27.461-72.224,63.98L36.072,502.135h67.246
	l22.294-264.333C128.691,201.284,150.212,173.823,175.751,173.823z"/>
<path style="fill:#BADB82;" d="M457.412,349.733c-1.015-8.36-5.076-15.691-10.97-20.912c-5.907-5.248-13.673-8.386-22.086-8.386
	c-18.394,0-33.307,14.913-33.307,33.307v10.192c0,10.272-4.167,19.554-10.891,26.292c-6.725,6.725-16.034,10.891-26.292,10.891
	c-20.53,0-37.183-16.653-37.183-37.183v-2.809c0-10.456-4.246-19.923-11.089-26.78c-6.856-6.856-16.337-11.102-26.793-11.102
	c-20.925,0-37.882,16.97-37.882,37.882v44.554c0,8.821-3.573,16.798-9.349,22.574c-5.775,5.775-13.753,9.349-22.574,9.349
	c-17.629,0-31.909-14.293-31.909-31.922v-5.617c0-15.691-12.724-28.415-28.415-28.415c-0.013,0-0.013,0-0.026,0
	c-15.691,0.026-28.388,12.737-28.388,28.415v7.766c0,10.008-4.048,19.066-10.614,25.619c-0.185,0.185-0.382,0.382-0.58,0.554
	c-6.5,6.237-15.322,10.061-25.039,10.061c-21.743,0-38.581-19.014-35.957-40.598l5.327-43.868l14.794-121.795
	c4.43-36.511,35.429-63.976,72.217-63.976h231.182c36.801,0,67.8,27.465,72.23,63.976L457.412,349.733z"/>
<path style="fill:#ABC971;" d="M175.757,173.825c-25.54,0-47.059,27.465-50.144,63.976l-16.548,196.2
	c-6.5,6.237-15.322,10.061-25.039,10.061c-21.743,0-38.581-19.014-35.957-40.598l5.327-43.868l14.794-121.795
	c4.43-36.511,35.429-63.976,72.217-63.976L175.757,173.825L175.757,173.825z"/>
<circle style="fill:#F97E62;" cx="255.996" cy="130.678" r="43.144"/>
<path style="fill:#E86B56;" d="M244.784,148.385c-9.778-21.728-0.091-47.27,21.637-57.048c1.201-0.541,2.414-1.011,3.635-1.433
	c-10.024-3.459-21.331-3.261-31.764,1.433c-21.728,9.778-31.416,35.32-21.637,57.048c9.238,20.529,32.544,30.299,53.413,23.072
	C259.216,167.712,249.867,159.681,244.784,148.385z"/>
<path d="M485.743,500.916l-6.349-52.258c-0.659-5.421-5.584-9.276-11.01-8.625c-5.422,0.659-9.284,5.588-8.625,11.01l5.003,41.177
	H47.235l6.077-50.021c8.403,7.503,19.329,11.728,30.713,11.728c25.431,0,46.119-20.688,46.119-46.119v-7.77
	c0-10.204,8.302-18.514,18.505-18.523c0.007,0,0.012,0,0.018,0c1.758,0,3.493,0.244,5.158,0.725
	c5.249,1.519,10.73-1.508,12.247-6.755c1.516-5.247-1.508-10.73-6.755-12.247c-3.451-0.997-7.033-1.503-10.65-1.503
	c-0.012,0-0.025,0-0.037,0c-21.098,0.02-38.264,17.202-38.264,38.301v7.77c0,14.525-11.816,26.341-26.341,26.341
	c-7.534,0-14.722-3.234-19.718-8.874c-4.995-5.637-7.338-13.158-6.432-20.634L78.002,238.97
	c3.829-31.517,30.658-55.284,62.407-55.284H371.59c31.749,0,58.578,23.767,62.407,55.284l9.222,75.905
	c-5.725-2.789-12.135-4.35-18.87-4.35c-23.817,0-43.194,19.377-43.194,43.194v10.19c0,15.049-12.243,27.291-27.291,27.291
	s-27.291-12.243-27.291-27.291v-2.806c0-26.342-21.43-47.771-47.771-47.771c-26.342,0-47.771,21.43-47.771,47.771v44.547
	c0,12.148-9.883,22.03-22.03,22.03s-22.03-9.883-22.03-22.03v-5.612c0-5.461-4.428-9.889-9.889-9.889s-9.889,4.428-9.889,9.889
	v5.612c0,23.054,18.755,41.809,41.809,41.809s41.809-18.755,41.809-41.809v-44.547c0-15.436,12.558-27.993,27.993-27.993
	c15.435,0,27.993,12.558,27.993,27.993v2.806c0,25.954,21.115,47.07,47.07,47.07s47.07-21.115,47.07-47.07v-10.19
	c0-12.911,10.505-23.416,23.416-23.416c11.826,0,21.819,8.853,23.246,20.593l0,0l8.302,68.331c0.659,5.422,5.587,9.285,11.01,8.625
	c5.422-0.659,9.284-5.588,8.625-11.01l-8.302-68.331v-0.001c0-0.001,0-0.003,0-0.004l-13.597-111.92
	c-5.033-41.433-40.303-72.677-82.042-72.677h-74.34c7.454-9.255,11.787-20.919,11.793-33.251c0.003-5.461-4.422-9.89-9.884-9.894
	c-0.001,0-0.003,0-0.005,0c-5.459,0-9.887,4.424-9.889,9.884c-0.007,13.067-7.708,24.972-19.619,30.332
	c-4.037,1.816-8.306,2.794-12.6,2.93h-1.918c-3.687-0.1-7.371-0.815-10.922-2.161c-8.306-3.15-14.886-9.346-18.532-17.446
	c-3.646-8.101-3.919-17.136-0.769-25.441c3.15-8.306,9.346-14.886,17.446-18.532c13.403-6.034,28.922-2.679,38.618,8.346
	c3.606,4.101,9.855,4.503,13.956,0.895c4.102-3.606,4.503-9.855,0.895-13.956c-13.487-15.336-34.037-21.366-53.248-16.279
	c-2.284-4.242-5.101-10.381-6.884-17.526c-4.367-17.501-0.593-32.679,11.212-45.11c3.761-3.96,3.6-10.219-0.361-13.981
	c-3.958-3.761-10.219-3.6-13.981,0.361c-27.16,28.598-19.081,63.988-7.975,84.841c-8.187,5.993-14.49,14.217-18.172,23.926
	c-5.024,13.245-4.587,27.654,1.225,40.572c1.876,4.169,4.246,8.015,7.032,11.49h-74.262c-41.737,0-77.007,31.244-82.042,72.677
	l-32.111,264.33c-0.342,2.81,0.538,5.632,2.416,7.749c1.876,2.119,4.571,3.332,7.402,3.332h439.854c2.83,0,5.525-1.213,7.402-3.332
	C485.206,506.546,486.084,503.724,485.743,500.916z"/>
</svg>