<?xml version="1.0" encoding="iso-8859-1"?>
<!-- Uploaded to: SVG Repo, www.svgrepo.com, Generator: SVG Repo Mixer Tools -->
<svg height="800px" width="800px" version="1.1" id="Layer_1" xmlns="http://www.w3.org/2000/svg" xmlns:xlink="http://www.w3.org/1999/xlink" 
	 viewBox="0 0 512 512" xml:space="preserve">
<path style="fill:#FFDF9F;" d="M374.091,225.393c20.305-22.608,32.433-51.181,32.433-82.252
	c0-73.257-67.391-132.643-150.523-132.643S105.478,69.885,105.478,143.143c0,31.071,12.127,59.644,32.433,82.252h236.181V225.393z"
	/>
<path style="fill:#BF4F28;" d="M405.415,127.028c-9.024-65.656-72.474-116.529-149.414-116.529
	c-76.69,0-139.983,50.54-149.331,115.886c0,1.073,0.065,2.13,0.192,3.168c1.538,12.62,12.112,22.433,25.057,22.681
	c14.461,0.277,26.296-11.866,26.296-26.367v-12.643c0-17.845,14.258-32.351,31.975-32.691c18.283-0.351,33.247,15.002,33.247,33.337
	v32.01c0,17.845,14.258,32.351,31.975,32.691c18.283,0.351,33.247-15.002,33.247-33.337v-34.781
	c0-14.501,11.836-26.644,26.296-26.367c14.013,0.269,25.291,11.742,25.291,25.857v15.841c0,17.845,14.258,32.351,31.975,32.691
	C389.872,158.81,404.429,144.513,405.415,127.028z"/>
<polygon style="fill:#FFA30C;" points="373.449,225.393 255.245,501.502 138.027,225.393 "/>
<path d="M255.863,302.395c-3.193,0-6.344-1.45-8.407-4.199c-3.478-4.638-2.539-11.22,2.1-14.698c0.126-0.094,0.287-0.21,0.417-0.298
	c4.79-3.266,11.32-2.03,14.589,2.76c3.237,4.747,2.051,11.207-2.634,14.501C260.09,301.764,257.968,302.395,255.863,302.395z"/>
<path d="M289.216,356.168c-3.613,0-7.127-1.865-9.078-5.21c-2.918-5.001-1.235-11.42,3.759-14.347
	c0.017-0.009,0.096-0.057,0.11-0.065c5.013-2.923,11.439-1.228,14.359,3.778c2.922,5.009,1.23,11.437-3.778,14.358l-0.092,0.055
	C292.833,355.707,291.012,356.168,289.216,356.168z"/>
<path d="M256.001,0C167.212,0,94.979,64.214,94.979,143.143c0,31.882,12.124,63.131,34.154,88.167l116.447,274.295
	c1.644,3.872,5.441,6.389,9.647,6.396c0.006,0,0.012,0,0.017,0c4.2,0,7.998-2.504,9.651-6.366L381.84,232.47
	c0.02-0.022,0.042-0.04,0.061-0.061c22.647-25.217,35.12-56.918,35.12-89.267C417.022,64.214,344.788,0,256.001,0z M256.001,20.997
	c71.049,0,129.904,46.4,138.845,106.285c-1.082,11.565-10.733,20.698-22.02,20.698c-0.133,0-0.268-0.001-0.402-0.003
	c-11.953-0.23-21.677-10.186-21.677-22.195V109.94c0-19.669-15.965-35.977-35.587-36.353c-9.654-0.193-18.843,3.498-25.849,10.37
	c-7.083,6.949-11.146,16.605-11.146,26.493v34.781c0,6.158-2.54,12.181-6.968,16.526c-4.264,4.184-9.774,6.432-15.581,6.315
	c-11.953-0.23-21.677-10.186-21.677-22.194v-32.01c0-11.76-4.833-23.247-13.261-31.514c-8.323-8.164-19.266-12.561-30.687-12.319
	c-23.309,0.447-42.272,19.821-42.272,43.187v12.643c0,4.285-1.769,8.479-4.853,11.504c-2.948,2.892-6.763,4.442-10.743,4.367
	c-8.032-0.154-14.588-6.704-14.921-14.728C126.278,67.256,185.06,20.997,256.001,20.997z M153.89,235.892h48.817
	c-12.455,8.384-26.211,14.744-40.822,18.832L153.89,235.892z M255.286,474.732l-16.844-39.677
	c13.462-2.45,26.581-6.537,39.041-12.173L255.286,474.732z M291.005,391.296c-18.309,12.473-39.208,20.643-61.004,23.879
	l-15.732-37.056c17.088-0.557,33.96-3.727,50.338-9.487c5.47-1.924,8.343-7.918,6.42-13.387c-1.924-5.47-7.915-8.343-13.388-6.42
	c-16.96,5.966-34.516,8.758-52.265,8.344l-12.418-29.25c13.448-2.001,26.588-5.69,39.216-11.03c5.341-2.258,7.839-8.419,5.58-13.758
	c-2.259-5.339-8.414-7.842-13.757-5.581c-12.685,5.364-25.964,8.814-39.559,10.298l-14.281-33.64
	c24.735-7.365,47.256-20.457,65.884-38.316h56.607c-5.884,10.639-13.114,20.454-21.61,29.297
	c-4.017,4.182-3.882,10.827,0.298,14.844c2.036,1.956,4.656,2.928,7.272,2.928c2.757,0,5.511-1.079,7.573-3.225
	c12.415-12.925,22.482-27.652,29.998-43.843h41.354L291.005,391.296z M369.299,214.895H142.702
	c-13.836-16.559-22.474-35.477-25.496-55.565c4.435,2.084,9.344,3.301,14.512,3.399c0.232,0.004,0.462,0.006,0.695,0.006
	c9.408,0,18.318-3.67,25.155-10.378c7.083-6.949,11.146-16.605,11.146-26.493v-12.643c0-12.008,9.725-21.965,21.676-22.195
	c5.839-0.114,11.317,2.132,15.582,6.315c4.428,4.344,6.968,10.367,6.968,16.526v32.01c0,23.366,18.963,42.739,42.272,43.186
	c0.276,0.005,0.55,0.008,0.825,0.008c11.163,0,21.739-4.359,29.861-12.326c8.428-8.267,13.262-19.754,13.262-31.514v-34.781
	c0-4.285,1.769-8.479,4.853-11.504c2.949-2.891,6.715-4.425,10.743-4.366c8.267,0.159,14.993,7.049,14.993,15.36v15.841
	c0,23.366,18.963,42.74,42.273,43.187c0.267,0.005,0.53,0.007,0.797,0.007c7.7,0,15.011-2.147,21.355-5.884
	C390.679,181.779,382.268,199.373,369.299,214.895z"/>
</svg>