<?xml version="1.0" encoding="iso-8859-1"?>
<!-- Uploaded to: SVG Repo, www.svgrepo.com, Generator: SVG Repo Mixer Tools -->
<svg height="800px" width="800px" version="1.1" id="Layer_1" xmlns="http://www.w3.org/2000/svg" xmlns:xlink="http://www.w3.org/1999/xlink" 
	 viewBox="0 0 512 512" xml:space="preserve">
<path style="fill:#FFA30C;" d="M458.368,459.544H53.631c-23.849,0-43.182-19.334-43.182-43.182V210.155
	c0-23.849,19.334-43.182,43.182-43.182h404.737c23.849,0,43.182,19.334,43.182,43.182v206.206
	C501.551,440.21,482.217,459.544,458.368,459.544z"/>
<path style="fill:#871B00;" d="M458.368,166.972H53.631c-23.849,0-43.182,19.334-43.182,43.182v95.912
	c0,16.259,12.99,29.474,29.132,29.784c16.657,0.32,30.292-13.668,30.292-30.372v-14.564c0-20.555,16.424-37.265,36.833-37.656
	c21.06-0.404,38.298,17.282,38.298,38.4v36.872c0,20.555,16.424,37.265,36.833,37.656c21.06,0.404,38.298-17.282,38.298-38.4
	v-40.065c0-16.704,13.634-30.692,30.292-30.372c16.142,0.309,29.132,13.525,29.132,29.784v18.247
	c0,20.555,16.424,37.265,36.833,37.656c21.06,0.404,38.298-17.282,38.298-38.4v-16.915c0-16.704,13.634-30.692,30.292-30.372
	c16.142,0.309,29.132,13.525,29.132,29.784v49.276c0,16.259,12.99,29.474,29.132,29.784h0.046
	c16.142-0.309,29.132-13.526,29.132-29.784v-55.342c0-16.259,12.99-29.475,29.132-29.784v-41.129
	C501.551,186.306,482.217,166.972,458.368,166.972z"/>
<path style="fill:#9AE523;" d="M259.048,86.055c1.159-3.75,4.785-6.275,7.638-9.109c31.238-31.043,88.895-23.694,89.374-23.637
	l0.007-0.011v0.015l0.021-0.003l-0.005,0.011c0.024,0.25,7.094,58.11-24.199,89.222c-31.29,31.094-89.133,23.67-89.382,23.62
	l-0.009,0.022L259.048,86.055z"/>
<circle style="fill:#FF3939;" cx="210.338" cy="111.856" r="55.118"/>
<path d="M323.36,96.106c-2.674,0-5.349-1.02-7.388-3.061c-4.08-4.08-4.08-10.697,0-14.778l0.097-0.097
	c4.08-4.08,10.697-4.08,14.778,0c4.08,4.08,4.08,10.697,0,14.778l-0.097,0.097C328.708,95.086,326.034,96.106,323.36,96.106z"/>
<path d="M458.368,156.523H331.676c2.632-2.002,5.171-4.181,7.577-6.571c33.288-33.097,28.05-90.375,27.233-97.64
	c-0.484-4.962-4.562-8.997-9.532-9.419c-8.011-0.944-63.898-6.183-97.067,26.096c-12.032-13.89-29.776-22.702-49.552-22.702
	c-36.155,0-65.567,29.413-65.567,65.567c0,17.248,6.705,32.952,17.632,44.669H53.631C24.059,156.523,0,180.582,0,210.155v206.206
	c0,29.573,24.059,53.631,53.631,53.631h404.737c29.573,0,53.631-24.059,53.631-53.631V210.155
	C512,180.582,487.941,156.523,458.368,156.523z M271.714,86.556c0.797-0.727,1.589-1.454,2.337-2.198
	c20.549-20.419,55.991-21.805,72.218-21.247c0.526,16.201-0.993,51.382-21.75,72.02c-15.6,15.502-39.322,20.085-56.996,21.141
	l39.322-39.322c4.08-4.08,4.081-10.697,0-14.778c-4.081-4.079-10.697-4.079-14.777,0l-16.526,16.526
	c0.234-2.25,0.358-4.533,0.358-6.844c0-8.734-1.73-17.067-4.844-24.695C271.287,86.947,271.512,86.741,271.714,86.556z
	 M165.664,111.854c0-24.63,20.039-44.669,44.669-44.669s44.669,20.039,44.669,44.669s-20.039,44.669-44.669,44.669
	S165.664,136.484,165.664,111.854z M20.898,210.155c0-18.05,14.684-32.734,32.734-32.734h404.737
	c18.05,0,32.734,14.684,32.734,32.734v32.243c-16.76,4.855-29.132,20.457-29.132,38.67v55.342c0,10.404-8.375,19.039-18.706,19.332
	c-10.331-0.294-18.706-8.929-18.706-19.333v-49.276c0-21.767-17.666-39.815-39.38-40.231c-10.678-0.201-20.84,3.87-28.594,11.475
	c-7.847,7.698-12.347,18.393-12.347,29.344v16.915c0,7.533-3.105,14.898-8.519,20.209c-5.23,5.13-12.031,7.872-19.13,7.744
	c-14.658-0.281-26.583-12.488-26.583-27.209v-18.248c0-21.767-17.666-39.815-39.38-40.231c-10.687-0.201-20.842,3.87-28.594,11.475
	c-7.847,7.698-12.347,18.393-12.347,29.344v40.065c0,7.532-3.105,14.898-8.519,20.209c-5.23,5.13-12.04,7.871-19.129,7.744
	c-14.658-0.281-26.583-12.488-26.583-27.209v-36.872c0-13.108-5.387-25.911-14.782-35.127c-9.268-9.093-21.395-13.993-34.165-13.72
	c-25.96,0.497-47.081,22.077-47.081,48.103v14.564c0,5.375-2.217,10.632-6.083,14.425c-3.714,3.644-8.534,5.594-13.559,5.5
	c-10.416-0.196-18.887-8.871-18.887-19.334V210.155z M458.368,449.095H53.631c-18.05,0-32.734-14.684-32.734-32.734v-75.049
	c5.515,3.057,11.806,4.858,18.482,4.985c10.7,0.206,20.842-3.871,28.595-11.476c7.846-7.698,12.347-18.392,12.347-29.343v-14.564
	c0-14.722,11.925-26.928,26.583-27.209c7.113-0.123,13.9,2.614,19.13,7.745c5.414,5.311,8.519,12.677,8.519,20.208v36.872
	c0,26.026,21.121,47.606,47.081,48.103c0.306,0.006,0.611,0.009,0.916,0.009c12.427,0,24.202-4.855,33.248-13.729
	c9.395-9.216,14.782-22.019,14.782-35.127v-40.065c0-5.375,2.217-10.633,6.083-14.426c3.715-3.644,8.544-5.571,13.559-5.5
	c10.412,0.2,18.883,8.874,18.883,19.337v18.248c0,26.026,21.121,47.606,47.081,48.103c12.77,0.273,24.897-4.627,34.165-13.72
	c9.395-9.216,14.782-22.019,14.782-35.127v-16.915c0-5.375,2.217-10.633,6.083-14.426c3.715-3.644,8.54-5.571,13.559-5.5
	c10.412,0.2,18.883,8.874,18.883,19.337v49.276c0,21.767,17.666,39.815,39.38,40.231c0.134,0.003,0.312,0.003,0.446,0
	c21.715-0.416,39.381-18.463,39.381-40.231v-55.342c0-6.494,3.267-12.296,8.234-15.813V416.36
	C491.102,434.411,476.418,449.095,458.368,449.095z"/>
</svg>