<?xml version="1.0" encoding="iso-8859-1"?>
<!-- Uploaded to: SVG Repo, www.svgrepo.com, Generator: SVG Repo Mixer Tools -->
<svg height="800px" width="800px" version="1.1" id="Layer_1" xmlns="http://www.w3.org/2000/svg" xmlns:xlink="http://www.w3.org/1999/xlink" 
	 viewBox="0 0 511.998 511.998" xml:space="preserve">
<path style="fill:#871B00;" d="M111.782,172.341l-0.009,147.447c0,22.93,18.761,41.692,41.692,41.692h205.066
	c22.93,0,41.692-18.761,41.692-41.692l0.01-165.118c0-65.576-43.768-120.92-103.681-138.438L111.782,172.341z"/>
<path style="fill:#BF4F28;" d="M201.565,141.663c-16.667,20.078-41.813,32.863-69.947,32.863c-6.815,0-13.45-0.762-19.836-2.185
	l0.001-17.67c0-5.471,0.316-10.868,0.909-16.181c33.356-5.826,60.461-29.831,70.716-61.438
	c33.952-8.635,61.265-33.896,72.765-66.603c14.018,0.016,27.566,2.039,40.378,5.785c-1.893,34.657-20.665,64.818-48.243,82.395
	c0,0-14.247,8.811-30.208,13.08C212.47,132.353,201.565,141.663,201.565,141.663z"/>
<path style="fill:#FFDF9F;" d="M274.815,362.096v120.827c0,10.245-8.464,18.627-18.808,18.627l0,0
	c-10.345,0-18.808-8.382-18.808-18.627V362.096H274.815z"/>
<path d="M218.065,122.167c-4.577,0-8.776-3.03-10.061-7.655c-1.545-5.56,1.711-11.319,7.27-12.865
	c0.115-0.031,0.25-0.066,0.366-0.094c5.596-1.347,11.232,2.076,12.604,7.664c1.372,5.585-2.024,11.227-7.602,12.626
	C219.78,122.062,218.916,122.167,218.065,122.167z"/>
<path d="M379.174,61.104C359.233,34.897,330.93,15.4,299.482,6.205c-14.024-4.1-28.591-6.188-43.298-6.205c-0.004,0-0.008,0-0.013,0
	c-4.435,0-8.386,2.799-9.858,6.983c-10.467,29.767-34.946,52.175-65.483,59.942c-3.476,0.884-6.256,3.49-7.363,6.902
	c-9.215,28.405-33.192,49.238-62.575,54.369c-4.574,0.799-8.071,4.519-8.587,9.132c-0.646,5.78-0.974,11.615-0.974,17.341
	l-0.011,165.118c0,28.75,23.39,52.14,52.14,52.14h73.287v110.995c0,16.033,13.125,29.076,29.257,29.076s29.257-13.044,29.257-29.076
	V371.929h73.264c28.752,0,52.141-23.39,52.141-52.14l0.01-165.118C410.681,120.547,399.785,88.192,379.174,61.104z M264.366,482.923
	c0,4.51-3.75,8.178-8.359,8.178c-4.609,0-8.359-3.669-8.359-8.178V371.929h16.718V482.923z M389.772,319.788
	c0,17.227-14.015,31.242-31.243,31.242H153.463c-17.226,0-31.242-14.015-31.242-31.242l0.009-135.259
	c3.123,0.29,6.257,0.445,9.387,0.445c30.233,0,58.658-13.354,77.987-36.637c3.685-4.441,3.074-11.028-1.366-14.714
	c-4.441-3.687-11.029-3.074-14.714,1.366c-15.346,18.486-37.91,29.088-61.907,29.088c-3.132,0-6.268-0.184-9.385-0.549v-8.857
	c0-2.516,0.073-5.058,0.219-7.607c31.537-8.144,57.181-30.914,68.985-61.415c32.332-9.929,58.505-33.499,71.799-64.557
	c7.432,0.397,14.8,1.409,22.031,3.022c-3.939,26.826-19.438,50.958-42.577,65.704c-4.866,3.101-6.297,9.561-3.195,14.428
	c3.101,4.866,9.56,6.298,14.428,3.196c27.341-17.425,45.952-45.588,51.5-77.085c50.229,20.027,84.358,69.466,84.358,124.315
	L389.772,319.788z"/>
<path d="M332.285,154.893c-2.675,0-5.348-1.02-7.389-3.061l-14.617-14.617c-4.08-4.08-4.08-10.697,0-14.778
	c4.081-4.08,10.696-4.08,14.778,0l14.617,14.617c4.08,4.08,4.08,10.697,0,14.778C337.634,153.873,334.96,154.893,332.285,154.893z"
	/>
<path d="M332.285,244.63c-2.675,0-5.348-1.02-7.389-3.061l-14.617-14.618c-4.08-4.08-4.08-10.697,0-14.777
	c4.082-4.08,10.697-4.08,14.778,0l14.617,14.618c4.08,4.08,4.08,10.697,0,14.777C337.634,243.61,334.959,244.63,332.285,244.63z"/>
<path d="M332.285,334.367c-2.675,0-5.348-1.02-7.389-3.061l-14.617-14.618c-4.08-4.08-4.08-10.697,0-14.777
	c4.082-4.08,10.697-4.08,14.778,0l14.617,14.618c4.08,4.08,4.08,10.697,0,14.777C337.634,333.346,334.959,334.367,332.285,334.367z"
	/>
<path d="M194.613,244.63c-2.675,0-5.348-1.02-7.389-3.061l-14.617-14.618c-4.08-4.08-4.08-10.697,0-14.777
	c4.082-4.08,10.697-4.08,14.778,0l14.617,14.618c4.08,4.08,4.08,10.697,0,14.777C199.96,243.61,197.285,244.63,194.613,244.63z"/>
<path d="M194.613,334.367c-2.675,0-5.348-1.02-7.389-3.061l-14.617-14.618c-4.08-4.08-4.08-10.697,0-14.777
	c4.082-4.08,10.697-4.08,14.778,0l14.617,14.618c4.08,4.08,4.08,10.697,0,14.777C199.96,333.346,197.285,334.367,194.613,334.367z"
	/>
<path d="M248.767,154.893c-2.675,0-5.348-1.02-7.389-3.061c-4.08-4.08-4.08-10.697,0-14.778l14.617-14.617
	c4.081-4.08,10.696-4.08,14.778,0c4.08,4.08,4.08,10.697,0,14.778l-14.617,14.617C254.114,153.873,251.441,154.893,248.767,154.893z
	"/>
<path d="M248.767,244.63c-2.675,0-5.348-1.02-7.389-3.061c-4.08-4.08-4.08-10.697,0-14.777l14.617-14.618
	c4.081-4.08,10.696-4.081,14.778,0c4.08,4.08,4.08,10.697,0,14.777l-14.617,14.618C254.114,243.61,251.441,244.63,248.767,244.63z"
	/>
<path d="M248.767,334.367c-2.675,0-5.348-1.02-7.389-3.061c-4.08-4.08-4.08-10.697,0-14.777l14.617-14.618
	c4.081-4.08,10.696-4.081,14.778,0c4.08,4.08,4.08,10.697,0,14.777l-14.617,14.618C254.114,333.346,251.441,334.367,248.767,334.367
	z"/>
</svg>