<?xml version="1.0" encoding="iso-8859-1"?>
<!-- Uploaded to: SVG Repo, www.svgrepo.com, Generator: SVG Repo Mixer Tools -->
<svg height="800px" width="800px" version="1.1" id="Layer_1" xmlns="http://www.w3.org/2000/svg" xmlns:xlink="http://www.w3.org/1999/xlink" 
	 viewBox="0 0 512 512" xml:space="preserve">
<path style="fill:#AB5034;" d="M411.76,292.854c2.262-70.885-52.529-128.646-122.299-128.68c-5.8-0.002-11.507,0.404-17.092,1.194
	c-10.85,1.536-21.888,1.536-32.738,0c-5.584-0.79-11.29-1.198-17.09-1.194c-69.77,0.035-124.56,57.795-122.299,128.68
	c0.574,18.018,3.565,35.026,8.671,50.891H403.09C408.194,327.88,411.185,310.872,411.76,292.854z"/>
<path style="fill:#8D472E;" d="M410.099,267.502c-9.718-58.804-59.406-103.298-120.637-103.328
	c-5.8-0.002-11.507,0.404-17.092,1.194c-3.954,0.56-7.932,0.912-11.915,1.061l0,0c0,6.66-2.572,13.065-7.18,17.874l-0.534,0.558
	c-4.575,4.776-11.664,5.756-17.613,2.867c-5.304-2.576-11.749-2.556-17.237,0.619c-8.779,5.08-11.777,16.315-6.697,25.095
	c9.232,15.952,26.401,25.862,44.809,25.862s35.576-9.909,44.809-25.862c0.028-0.048,0.056-0.096,0.082-0.144
	c3.223-5.684,10.953-6.797,15.381-1.99c13.787,14.969,23.332,33.742,27.043,56.194c1.356,8.201,1.938,16.677,1.662,25.352
	c-0.235,7.371-0.903,14.559-1.928,21.581l32.883,11.13l33.9-11.13c1.025-7.022,1.693-14.21,1.928-21.581
	C412.036,284.179,411.453,275.703,410.099,267.502z"/>
<ellipse transform="matrix(-0.7071 0.7071 -0.7071 -0.7071 462.8339 336.1916)" style="fill:#BD7155;" cx="161.789" cy="263.952" rx="44.521" ry="33.391"/>
<ellipse style="fill:#C98A2E;" cx="256" cy="436.87" rx="111.304" ry="66.783"/>
<g>
	<path style="fill:#D5A150;" d="M255.74,473.594c-52.683,0-96.774-21.97-108.317-51.467c-0.786,2.095-1.414,4.224-1.863,6.389
		c6.847,32.943,53.681,58.435,110.441,58.435c13.792,0,26.992-1.51,39.18-4.263c2.98-0.673,5.082-3.34,5.082-6.396l0,0
		c0-4.171-3.834-7.264-7.917-6.409C280.882,472.283,268.569,473.594,255.74,473.594z"/>
	<path style="fill:#D5A150;" d="M412.422,267.519c-4.562-0.685-8.809,2.467-9.486,7.027c-2.425,16.276-12.609,31.439-21.329,40.203
		c-2.76,2.774-6.577,4.095-10.479,3.634c-3.893-0.464-7.288-2.646-9.283-5.93l-0.119-0.199c-3.567-5.947-9.832-9.71-16.757-10.067
		c-6.889-0.353-13.467,2.705-17.633,8.192c-3.155,4.156-8.316,6.447-13.498,5.838c-4.965-0.583-9.079-3.47-11.33-7.971
		l-5.388-10.778c-3.63-7.26-11.004-12.113-19.121-12.014c-7.82,0.096-14.829,4.481-18.334,11.492
		c-1.022,2.045-2.903,2.265-3.664,2.265c-7.927,0-15.052,4.403-18.597,11.492c-1.022,2.045-2.903,2.264-3.664,2.264
		c-0.761,0-2.642-0.219-3.664-2.264l-5.649-11.296c-4.887-9.776-14.304-16.198-25.188-17.18
		c-10.884-0.976-21.298,3.651-27.855,12.395c-1.139,1.518-2.671,1.681-3.488,1.634c-0.814-0.042-2.324-0.355-3.301-1.982
		c-7.144-11.905-18.13-19.516-30.138-20.873c-0.295-0.033-0.593-0.047-0.89-0.047h-11.004c-7.64-0.242-9.767-2.008-14.9-7.46
		c-3.138-3.332-8.451-3.836-11.873-0.795l-0.493,12.015c3.132,3.334,4.857,7.732,4.882,12.307c0.007,1.142,0.028,2.287,0.065,3.436
		c2.497,78.26,50.467,137.537,120.105,166.276c21.971,9.067,49.336,9.067,71.307,0c61.847-25.524,106.596-75.137,117.584-140.74
		c1.601-9.559,3.847-19.016,6.974-28.189L412.422,267.519z"/>
</g>
<path style="fill:#C98A2E;" d="M393.441,326.524c-5.565,5.592-12.977,8.647-20.746,8.647c-1.175,0-2.359-0.07-3.545-0.21
	c-9.026-1.077-16.903-6.144-21.611-13.901c-0.002-0.004-0.076-0.126-0.078-0.13c-1.028-1.714-2.54-2.028-3.354-2.069h-0.013
	c-0.983-0.04-1.839,0.652-2.017,1.619c-0.121,0.66-0.246,1.318-0.372,1.976c-0.15,0.79-0.289,1.586-0.451,2.371
	c-0.077,0.373-0.164,0.741-0.245,1.113c-0.171,0.786-0.342,1.572-0.519,2.354c-0.201,0.895-0.394,1.794-0.608,2.682
	c-0.258,1.072-0.541,2.131-0.818,3.193c-0.248,0.951-0.489,1.903-0.751,2.846c-0.282,1.013-0.585,2.013-0.884,3.017
	c-0.289,0.973-0.575,1.948-0.88,2.912c-0.085,0.266-0.157,0.538-0.243,0.803h-0.023c-12.177,37.837-36.4,69.153-68.747,92.028
	c-4.496,3.179-11.167,7.023-18.002,10.703c-17.459,9.401-38.577,9.31-55.836-0.454c-0.295-0.167-0.58-0.331-0.851-0.49
	c-15.337-8.964-29.203-19.634-41.263-31.84c-1.621,2.628-2.974,5.333-4.04,8.104c11.337,29.667,55.574,51.803,108.458,51.803
	s97.121-22.136,108.458-51.803c-1.067-2.776-2.423-5.486-4.048-8.117c-0.047,0.047-0.096,0.092-0.141,0.139
	c19.405-19.61,34.146-43.193,42.797-70.074h0.023c0.086-0.265,0.158-0.536,0.243-0.803c0.305-0.965,0.591-1.939,0.88-2.912
	c0.298-1.004,0.602-2.005,0.884-3.017c0.263-0.943,0.504-1.897,0.751-2.846c0.277-1.063,0.56-2.121,0.818-3.193
	c0.215-0.888,0.406-1.788,0.608-2.682c0.176-0.784,0.347-1.569,0.519-2.354c0.081-0.371,0.168-0.739,0.245-1.113
	c0.16-0.786,0.299-1.581,0.451-2.371c0.246-1.288,0.498-2.573,0.717-3.874c0.922-5.457,1.587-11.035,2.032-16.708
	C404.801,314.418,396.71,323.239,393.441,326.524z"/>
<path style="fill:#E1B872;" d="M233.738,341.527c-0.048-6.045-3.736-11.332-9.168-13.985c-4.006-1.958-7.338-5.197-9.426-9.373
	l-5.649-11.297c-2.315-4.63-6.6-7.553-11.756-8.018c-5.151-0.462-9.894,1.645-12.999,5.784c-4.161,5.547-10.785,8.655-17.705,8.29
	c-6.925-0.357-13.19-4.12-16.757-10.068c-4.281-7.135-10.697-11.895-17.237-12.814h-10.605c-0.081,0-0.163-0.001-0.245-0.003
	c-3.653-0.107-6.76-0.54-9.479-1.249c-4.47-1.166-9.217,0.06-12.484,3.327l0,0c-0.002,0.007-0.006,0.012-0.008,0.019
	c1.352,47.754,19.616,88.47,49.404,119.541c13.439,14.019,35.507,15.511,50.369,3.012c20.634-17.353,33.747-43.36,33.747-72.431
	C233.74,342.016,233.739,341.771,233.738,341.527z"/>
<circle style="fill:#D5A150;" cx="200.348" cy="353.391" r="16.696"/>
<circle style="fill:#C98A2E;" cx="311.652" cy="353.391" r="16.696"/>
<path style="fill:#B69362;" d="M256.001,8.348c-9.22,0-16.696,7.475-16.696,16.696v190.301c4.911,2.846,10.611,4.481,16.696,4.481
	c6.085,0,11.785-1.635,16.696-4.481V25.043C272.697,15.823,265.222,8.348,256.001,8.348z"/>
<path style="fill:#C9AD80;" d="M239.305,25.043v190.301c0.049,0.029,0.098,0.057,0.148,0.085c7.369,4.221,16.548-1.281,16.548-9.774
	V24.743c0-10.584-15.943-11.403-16.657-0.843C239.319,24.278,239.305,24.659,239.305,25.043z"/>
<path d="M419.528,275.351c-0.007-0.131-0.025-0.259-0.037-0.39c-2.749-27.706-13.814-53.698-32.023-74.597
	c-22.057-25.316-52.577-40.938-85.937-43.987c-4.577-0.423-8.653,2.962-9.072,7.553c-0.42,4.591,2.962,8.653,7.553,9.072
	c54.341,4.969,96.745,48.593,102.739,102.574c-2.692,15.881-12.609,30.593-21.145,39.171c-2.759,2.774-6.576,4.102-10.478,3.633
	c-3.893-0.464-7.288-2.646-9.332-6.013l-0.07-0.116c-3.567-5.946-9.832-9.71-16.757-10.066c-6.933-0.364-13.545,2.741-17.705,8.289
	c-3.105,4.142-7.838,6.251-12.999,5.784c-5.156-0.464-9.44-3.386-11.755-8.016l-5.65-11.299
	c-3.545-7.09-10.671-11.493-18.597-11.493s-15.052,4.404-18.597,11.493c-1.022,2.044-2.903,2.264-3.664,2.264
	c-7.926,0-15.052,4.404-18.597,11.493c-1.022,2.044-2.903,2.264-3.664,2.264c-0.761,0-2.642-0.22-3.664-2.264l-5.65-11.298
	c-4.887-9.775-14.304-16.197-25.188-17.179c-10.883-0.982-21.298,3.652-27.855,12.395c-1.14,1.519-2.676,1.676-3.488,1.633
	c-0.814-0.042-2.324-0.355-3.301-1.982c-7.131-11.886-18.094-19.492-30.077-20.866c-0.316-0.037-0.633-0.055-0.951-0.055h-11.001
	c-6.271-0.199-8.83-1.427-12.383-4.874c3.886-23.233,14.515-44.536,31.005-61.569c21.453-22.16,50.346-34.371,81.359-34.386
	c0.02,0,0.039,0,0.058,0c2.783,0,5.574,0.115,8.353,0.319v22.901c-2.451-1.281-5.481-1.325-8.051,0.164
	c-3.99,2.31-5.353,7.416-3.043,11.406c7.444,12.87,21.291,20.864,36.135,20.864c14.844,0,28.691-7.994,36.138-20.862
	c2.31-3.99,0.947-9.097-3.043-11.406c-2.569-1.487-5.6-1.444-8.051-0.164V25.043C281.046,11.234,269.812,0,256.002,0
	c-13.81,0-25.043,11.234-25.043,25.043v131.052c-2.781-0.178-5.573-0.269-8.354-0.269c-0.022,0-0.045,0-0.067,0
	c-35.571,0.018-68.722,14.034-93.345,39.469c-25.229,26.061-38.473,60.801-37.293,97.825c1.252,39.241,13.882,76.044,36.525,106.43
	c4.005,5.374,8.324,10.548,12.932,15.514c-3.321,7.021-5.008,14.329-5.008,21.806c0,20.886,13.017,40.199,36.654,54.38
	c22.301,13.381,51.777,20.75,82.999,20.75s60.698-7.369,82.999-20.75c23.637-14.181,36.654-33.494,36.654-54.38
	c0-7.475-1.686-14.785-5.008-21.806c4.608-4.965,8.929-10.14,12.932-15.514c22.643-30.386,35.272-67.189,36.525-106.43
	C420.294,287.143,420.093,281.21,419.528,275.351z M256.001,16.696c4.604,0,8.348,3.744,8.348,8.348v184.982
	c-2.648,0.943-5.465,1.453-8.348,1.453c-2.883,0-5.7-0.51-8.348-1.453V25.043C247.653,20.44,251.398,16.696,256.001,16.696z
	 M355.767,406.782c-0.924,0.621-1.685,1.395-2.272,2.271c-17.55,17.411-39.381,31.778-65.024,42.362
	c-4.262,1.759-6.291,6.639-4.531,10.901c1.329,3.22,4.44,5.166,7.72,5.166c1.061,0,2.139-0.204,3.181-0.633
	c23.686-9.775,44.911-23.039,62.815-39.066c0.858,3,1.303,6.035,1.303,9.088c0,14.79-10.138,29.019-28.547,40.064
	c-19.744,11.846-46.17,18.37-74.41,18.37s-54.665-6.524-74.409-18.371c-18.41-11.045-28.547-25.274-28.547-40.064
	c0-3.054,0.445-6.088,1.303-9.088c17.902,16.027,39.129,29.291,62.815,39.066c1.042,0.43,2.12,0.633,3.181,0.633
	c3.28,0,6.391-1.946,7.72-5.166c1.76-4.262-0.27-9.143-4.531-10.901c-25.642-10.583-47.471-24.949-65.022-42.359
	c-0.588-0.878-1.351-1.654-2.277-2.276c-29.475-30.332-46.224-69.582-47.647-114.19c-0.056-1.75-0.068-3.493-0.05-5.229
	c3.633,1.556,7.978,2.517,13.655,2.684c0.082,0.002,0.164,0.003,0.246,0.003h10.605c6.539,0.918,12.955,5.678,17.237,12.813
	c3.567,5.946,9.832,9.71,16.757,10.066c6.921,0.364,13.545-2.741,17.705-8.289c3.105-4.142,7.846-6.252,12.999-5.784
	c5.156,0.464,9.44,3.386,11.755,8.016l5.65,11.299c3.545,7.09,10.671,11.493,18.597,11.493c7.926,0,15.052-4.404,18.597-11.493
	c1.022-2.044,2.903-2.264,3.664-2.264c7.926,0,15.052-4.404,18.597-11.493c1.022-2.044,2.903-2.264,3.664-2.264
	c0.761,0,2.642,0.22,3.664,2.264l5.649,11.298c4.887,9.775,14.304,16.197,25.188,17.179c10.889,0.982,21.298-3.652,27.855-12.395
	c1.139-1.519,2.674-1.681,3.488-1.633c0.814,0.042,2.324,0.355,3.29,1.963l0.141,0.235c4.708,7.759,12.586,12.826,21.611,13.902
	c1.187,0.141,2.37,0.211,3.545,0.211c7.769,0,15.181-3.054,20.746-8.647c1.582-1.589,4.293-4.477,7.398-8.45
	C394.959,352.183,379.488,382.372,355.767,406.782z"/>
<circle cx="200.348" cy="353.391" r="16.696"/>
<circle cx="311.652" cy="353.391" r="16.696"/>
</svg>