<?xml version="1.0" encoding="iso-8859-1"?>
<!-- Uploaded to: SVG Repo, www.svgrepo.com, Generator: SVG Repo Mixer Tools -->
<svg version="1.1" id="Layer_1" xmlns="http://www.w3.org/2000/svg" xmlns:xlink="http://www.w3.org/1999/xlink" 
	 viewBox="0 0 512 512" xml:space="preserve">
<path style="fill:#F4661E;" d="M188.082,439.898v8.368c0,9.194-7,16.714-15.673,16.714s-15.673-7.52-15.673-16.714v-8.368
	c0-9.194,7-16.714,15.673-16.714S188.082,430.704,188.082,439.898z"/>
<rect x="235.102" y="350.041" style="fill:#E6E7E8;" width="41.796" height="151.51"/>
<path style="fill:#F4661E;" d="M355.265,350.041v57.469c0,8.674-7,15.673-15.673,15.673c-8.674,0-15.673-7-15.673-15.673v-57.469
	h-47.02h-41.796h-47.02v26.122c0,8.674-7,15.673-15.673,15.673s-15.673-7-15.673-15.673v-26.122v-57.469V52.245
	c0-23.092,18.704-41.796,41.796-41.796h114.939c23.092,0,41.796,18.704,41.796,41.796v271.673V350.041z"/>
<g>
	<path style="fill:#231F20;" d="M313.469,0H198.531c-28.808,0-52.245,23.437-52.245,52.245v323.918
		c0,14.404,11.719,26.122,26.122,26.122c14.404,0,26.122-11.719,26.122-26.122V360.49h26.122v141.061
		c0,5.77,4.678,10.449,10.449,10.449h41.796c5.77,0,10.449-4.679,10.449-10.449V360.49h26.122v47.02
		c0,14.404,11.719,26.122,26.122,26.122s26.122-11.719,26.122-26.122V52.245C365.714,23.437,342.277,0,313.469,0z M266.449,491.102
		h-20.898V360.49h20.898V491.102z M344.816,407.51c0,2.881-2.344,5.224-5.224,5.224s-5.224-2.344-5.224-5.224v-57.469
		c0-5.77-4.679-10.449-10.449-10.449H188.082c-5.771,0-10.449,4.679-10.449,10.449v26.122c0,2.881-2.344,5.224-5.224,5.224
		s-5.224-2.344-5.224-5.224V52.245c0-17.285,14.062-31.347,31.347-31.347h114.939c17.285,0,31.347,14.062,31.347,31.347V407.51z"/>
	<rect x="245.551" y="52.245" style="fill:#231F20;" width="20.898" height="245.551"/>
	<rect x="193.306" y="52.245" style="fill:#231F20;" width="20.898" height="245.551"/>
	<rect x="297.796" y="52.245" style="fill:#231F20;" width="20.898" height="245.551"/>
	<path style="fill:#231F20;" d="M172.408,412.735c-14.404,0-26.122,12.186-26.122,27.163v8.368
		c0,14.978,11.719,27.163,26.122,27.163c14.404,0,26.122-12.186,26.122-27.163v-8.368
		C198.531,424.92,186.812,412.735,172.408,412.735z M177.633,448.265c0,3.396-2.393,6.265-5.224,6.265s-5.224-2.869-5.224-6.265
		v-8.368c0-3.396,2.393-6.265,5.224-6.265s5.224,2.869,5.224,6.265V448.265z"/>
</g>
</svg>