<?xml version="1.0" encoding="iso-8859-1"?>
<!-- Uploaded to: SVG Repo, www.svgrepo.com, Generator: SVG Repo Mixer Tools -->
<svg height="800px" width="800px" version="1.1" id="Layer_1" xmlns="http://www.w3.org/2000/svg" xmlns:xlink="http://www.w3.org/1999/xlink" 
	 viewBox="0 0 512 512" xml:space="preserve">
<path style="fill:#FFFFFF;" d="M316.891,199.282c-38.285,0-69.431-31.147-69.431-69.431s31.147-69.431,69.431-69.431
	s69.431,31.147,69.431,69.431C386.323,168.136,355.176,199.282,316.891,199.282z"/>
<path style="fill:#FFEB99;" d="M298.701,161.358c-15.592,27.006-49.374-31.507-18.191-31.507c-31.184,0,2.599-58.513,18.191-31.507
	c-15.592-27.006,51.973-27.006,36.381,0c15.592-27.006,49.374,31.507,18.191,31.507c31.184,0-2.599,58.513-18.191,31.507
	C350.674,188.365,283.109,188.365,298.701,161.358z"/>
<path style="fill:#FF3F62;" d="M223.238,279.757c-6.351,0-11.829-4.764-12.571-11.225L189.469,84.041L133.96,29.293
	c-4.982-4.914-5.038-12.936-0.124-17.917c4.913-4.983,12.937-5.039,17.917-0.124l58.688,57.884c2.059,2.03,3.36,4.703,3.691,7.575
	L235.84,265.64c0.799,6.951-4.189,13.235-11.14,14.033C224.209,279.729,223.719,279.757,223.238,279.757z"/>
<g>
	<path style="opacity:0.5;fill:#B3D8F4;enable-background:new    ;" d="M309.302,504.398H133.786c-4.46,0-8.109-3.649-8.109-8.109
		V137.961c0-4.46,3.649-8.109,8.109-8.109h175.515c4.46,0,8.109,3.649,8.109,8.109v358.329
		C317.41,500.749,313.761,504.398,309.302,504.398z"/>
	<path style="fill:#B3D8F4;" d="M180.412,496.289V137.961c0-4.46,3.649-8.109,8.109-8.109h-54.734c-4.46,0-8.109,3.649-8.109,8.109
		v358.329c0,4.46,3.649,8.109,8.109,8.109h54.734C184.061,504.398,180.412,500.748,180.412,496.289z"/>
</g>
<path style="fill:#FFEB99;" d="M161.855,239.583v218.991c0,5.306,4.341,9.647,9.647,9.647h100.084c5.306,0,9.647-4.341,9.647-9.647
	V239.583H161.855z"/>
<g>
	<path style="fill:#FFDA44;" d="M198.033,458.572v-218.99h-36.177v218.991c0,5.306,4.341,9.647,9.647,9.647h36.177
		C202.374,468.22,198.033,463.878,198.033,458.572z"/>
	<circle style="fill:#FFDA44;" cx="222.748" cy="361.327" r="13.177"/>
	<circle style="fill:#FFDA44;" cx="248.767" cy="428.255" r="13.177"/>
	<circle style="fill:#FFDA44;" cx="256.197" cy="314.083" r="13.177"/>
	<circle style="fill:#FFDA44;" cx="256.197" cy="353.897" r="7.421"/>
	<circle style="fill:#FFDA44;" cx="221.542" cy="400.239" r="7.421"/>
	<circle style="fill:#FFDA44;" cx="221.542" cy="281.435" r="7.421"/>
</g>
<g>
	<circle style="fill:#FFFFFF;" cx="256.197" cy="392.819" r="7.421"/>
	<circle style="fill:#FFFFFF;" cx="221.542" cy="322.374" r="7.421"/>
	<circle style="fill:#FFFFFF;" cx="256.197" cy="268.583" r="7.421"/>
</g>
<path d="M125.677,367.001c4.199,0,7.602-3.403,7.602-7.602v-42.274c0-4.199-3.403-7.602-7.602-7.602
	c-4.199,0-7.602,3.403-7.602,7.602v42.274C118.075,363.598,121.479,367.001,125.677,367.001z"/>
<path d="M202.964,209.185c0.29,0,0.583-0.017,0.878-0.051c4.171-0.479,7.163-4.249,6.685-8.421l-4.2-36.548
	c-0.479-4.171-4.247-7.154-8.421-6.685c-4.171,0.479-7.163,4.249-6.685,8.421l4.2,36.548
	C195.868,206.327,199.155,209.185,202.964,209.185z"/>
<path d="M316.891,52.819c-39.91,0-72.824,30.51-76.655,69.431h-13.219l-5.332-46.404c-0.526-4.578-2.622-8.883-5.904-12.121
	L157.094,5.841C153.273,2.071,148.225,0,142.862,0c-0.048,0-0.096,0-0.145,0c-5.415,0.038-10.492,2.181-14.293,6.038
	c-7.848,7.958-7.759,20.818,0.198,28.668l53.6,52.865l3.984,34.678h-52.42c-8.663,0-15.711,7.048-15.711,15.711v152.268
	c0,4.199,3.403,7.602,7.602,7.602s7.602-3.403,7.602-7.602V137.96c0-0.26,0.246-0.507,0.507-0.507h79.673l10.862,94.528h-62.466
	c-4.199,0-7.602,3.403-7.602,7.602v218.99c0,9.512,7.738,17.25,17.249,17.25h100.084c9.512,0,17.249-7.739,17.249-17.25v-218.99
	c0-4.199-3.403-7.602-7.602-7.602h-41.608l-10.862-94.528h11.473c3.601,36.591,32.911,65.734,69.572,69.093v289.743
	c0,0.26-0.246,0.507-0.507,0.507H133.786c-0.26,0-0.507-0.246-0.507-0.507V390.144c0-4.199-3.403-7.602-7.602-7.602
	c-4.199,0-7.602,3.403-7.602,7.602v106.145c0,8.663,7.048,15.711,15.711,15.711h175.515c8.663,0,15.711-7.048,15.711-15.711V206.453
	c38.673-4.071,68.912-36.869,68.912-76.603C393.925,87.375,359.368,52.819,316.891,52.819z M201.512,122.249l-4.49-39.077
	c-0.198-1.722-0.979-3.326-2.215-4.544l-55.508-54.745c-1.99-1.963-2.011-5.178-0.05-7.169c0.951-0.963,2.219-1.499,3.573-1.508
	c0.012,0,0.023,0,0.036,0c1.339,0,2.601,0.518,3.557,1.46l58.687,57.883c0.822,0.81,1.345,1.886,1.477,3.032l5.133,44.669
	C211.712,122.249,201.512,122.249,201.512,122.249z M273.631,247.185v213.742l-104.209-0.169l0.035-213.574L273.631,247.185
	L273.631,247.185z M378.239,122.249h-47.843l24.355-41.262C367.44,90.831,376.184,105.501,378.239,122.249z M279.267,80.802
	l24.173,41.447h-47.895C257.612,105.398,266.451,90.648,279.267,80.802z M255.544,137.453h48.222L279.29,178.92
	C266.461,169.074,257.613,154.316,255.544,137.453z M309.809,191.265c-6.12-0.698-11.97-2.285-17.413-4.637l17.413-29.501V191.265z
	 M316.916,115.176l-24.547-42.089c7.52-3.254,15.809-5.066,24.524-5.066c8.82,0,17.203,1.86,24.795,5.188L316.916,115.176z
	 M325.013,191.133v-31.896l16.059,27.534C336.029,188.916,330.638,190.395,325.013,191.133z M354.219,179.136l-24.311-41.682h48.331
	C376.155,154.437,367.198,169.29,354.219,179.136z"/>
</svg>