<?xml version="1.0" encoding="iso-8859-1"?>
<!-- Uploaded to: SVG Repo, www.svgrepo.com, Generator: SVG Repo Mixer Tools -->
<svg version="1.1" id="Layer_1" xmlns="http://www.w3.org/2000/svg" xmlns:xlink="http://www.w3.org/1999/xlink" 
	 viewBox="0 0 511.984 511.984" xml:space="preserve">
<polygon style="fill:#E6E9ED;" points="437.319,106.669 74.674,106.669 117.329,511.984 394.665,511.984 "/>
<polygon style="fill:#DA4453;" points="409.258,373.317 422.726,245.321 89.268,245.321 102.736,373.317 "/>
<polygon style="fill:#7F4545;" points="383.993,0 128.001,0 96.002,53.326 415.992,53.326 "/>
<polygon style="fill:#965353;" points="426.663,31.999 85.33,31.999 74.674,85.325 437.319,85.325 "/>
<rect x="53.327" y="64.002" style="fill:#A85D5D;" width="405.33" height="63.998"/>
<path style="fill:#ED5564;" d="M362.665,309.319c0,58.92-47.748,106.668-106.668,106.668s-106.669-47.748-106.669-106.668
	c0-58.905,47.749-106.653,106.669-106.653S362.665,250.414,362.665,309.319z"/>
<path style="fill:#965353;" d="M309.323,309.319c0,35.357-23.874,63.998-53.326,63.998s-53.327-28.641-53.327-63.998
	c0-35.343,23.875-63.999,53.327-63.999S309.323,273.976,309.323,309.319z"/>
<path style="fill:#7F4545;" d="M255.997,245.321c-5.25,0-10.312,0.922-15.109,2.609c-1.75,4.921-3.594,10.828-4.922,17.14
	c-6.452,30.608,3.891,45.64,13.719,52.842c14.078,10.344,3.641,41.702-2.25,54.593c2.797,0.531,5.641,0.812,8.562,0.812
	c5.25,0,10.312-0.906,15.109-2.609c1.75-4.906,3.594-10.812,4.922-17.141c6.452-30.593-3.891-45.623-13.703-52.842
	c-14.078-10.328-3.656-41.687,2.234-54.577C261.763,245.617,258.919,245.321,255.997,245.321z"/>
<path style="fill:#434A54;" d="M227.123,39.546c2.078,2.078,4.812,3.125,7.546,3.125l0,0h42.656l0,0
	c2.733,0,5.468-1.047,7.546-3.125c2.078-2.094,3.125-4.812,3.125-7.547h-63.998C223.998,34.733,225.045,37.452,227.123,39.546z"/>
</svg>