<?xml version="1.0" encoding="iso-8859-1"?>
<!-- Uploaded to: SVG Repo, www.svgrepo.com, Generator: SVG Repo Mixer Tools -->
<svg height="800px" width="800px" version="1.1" id="Layer_1" xmlns="http://www.w3.org/2000/svg" xmlns:xlink="http://www.w3.org/1999/xlink" 
	 viewBox="0 0 496.8 496.8" xml:space="preserve">
<path style="fill:#82C60A;" d="M155.6,0L155.6,0L155.6,0L155.6,0c14.4,28,0,55.2,28,76c16,12,36.8,4,59.2-4l0,0l0,0l0,0
	c4.8-24,7.2-44.8-7.2-58.4C210-10.4,185.2,9.6,155.6,0z"/>
<path style="fill:#5EA304;" d="M241.2,72h1.6l0,0l0,0c4.8-24,7.2-44.8-7.2-58.4c-25.6-24-50.4-4-80-13.6l0,0l0,0"/>
<g>
	<polygon style="fill:#74B208;" points="194,32 174,39.2 199.6,36.8 197.2,11.2 	"/>
	<polygon style="fill:#74B208;" points="223.6,56.8 202.8,63.2 228.4,60.8 226,35.2 	"/>
	<polygon style="fill:#74B208;" points="208.4,44 185.2,52 214,49.6 211.6,20 	"/>
</g>
<path style="fill:#82C60A;" d="M135.6,92L135.6,92L135.6,92L135.6,92c18.4,4,27.2,21.6,47.2,17.6c12-2.4,16.8-13.6,22.4-29.6l0,0
	l0,0l0,0c-8.8-8-17.6-18.4-29.6-17.6C154.8,64.8,151.6,76,135.6,92z"/>
<path style="fill:#5EA304;" d="M201.2,80h4l0,0l0,0c-8.8-8-17.6-18.4-29.6-17.6c-20.8,1.6-24,13.6-40,29.6l0,0l0,0l0,0"/>
<g>
	<polygon style="fill:#74B208;" points="167.6,88 162,100 171.6,87.2 158.8,78.4 	"/>
	<polygon style="fill:#74B208;" points="190,84.8 185.2,96.8 194,84 181.2,75.2 	"/>
	<polygon style="fill:#74B208;" points="178.8,86.4 172.4,100 182.8,85.6 169.2,75.2 	"/>
</g>
<circle style="fill:#9B0B4D;" cx="324.4" cy="41.6" r="23.2"/>
<path style="fill:#660239;" d="M340.4,24.8c8.8,8.8,8.8,24,0,32.8s-24,8.8-32.8,0"/>
<path style="fill:#E28FC8;" d="M320.4,21.6c1.6,1.6,0,6.4-4,10.4s-8.8,6.4-10.4,4c-1.6-1.6,0-6.4,4-10.4
	C314,21.6,318.8,20,320.4,21.6z"/>
<path style="fill:#660239;" d="M332.4,26.4c-1.6-0.8-1.6-1.6-1.6-3.2c4-11.2,16.8-16.8,28-12.8c1.6,0.8,1.6,1.6,1.6,3.2
	c-0.8,1.6-1.6,1.6-3.2,1.6c-8.8-3.2-18.4,0.8-21.6,9.6C334.8,26.4,333.2,26.4,332.4,26.4z"/>
<path style="fill:#FFFCEE;" d="M201.2,40v228.8c0,41.6,42.4,76,84,76s76-33.6,76-76V40H201.2z"/>
<path style="fill:#EDE9D9;" d="M281.2,344c41.6,0,80-33.6,80-76V40h-88"/>
<path style="fill:#E8E3CF;" d="M217.2,40v219.2c0,36,28,65.6,64,65.6s64-29.6,64-65.6V40H217.2z"/>
<path style="fill:#ADA78C;" d="M201.2,83.2c8,0,28-3.2,41.6-11.2l0,0l0,0l0,0c2.4-11.2,4-24,4-32h-45.6V83.2z"/>
<path style="fill:#D8D2BA;" d="M280.4,324.8c36,0,64.8-28.8,64.8-65.6V40h-64"/>
<path style="fill:#FFFCEE;" d="M361.2,483.2c0,7.2-35.2,13.6-79.2,13.6s-79.2-5.6-79.2-13.6s35.2-28.8,79.2-28.8
	S361.2,475.2,361.2,483.2z"/>
<path style="fill:#EDE9D9;" d="M282,454.4c44,0,79.2,20.8,79.2,28.8S325.2,496,282,496"/>
<polygon style="fill:#FFFCEE;" points="290.8,472 282,475.2 272.4,472 276.4,341.6 282,334.4 286.8,341.6 "/>
<polyline style="fill:#EDE9D9;" points="282,334.4 286.8,341.6 290.8,472 282,475.2 "/>
<path style="fill:#FFFFFF;" d="M218.8,476c0,2.4,10.4,2.4,22.4-1.6c12-3.2,21.6-8.8,20.8-11.2c-0.8-2.4-10.4-2.4-22.4,1.6
	C227.6,468,218.8,472.8,218.8,476z"/>
<path style="fill:#93E5E3;" d="M334,104.8c-10.4,0-19.2-4-26.4-10.4c-7.2,6.4-16,10.4-26.4,10.4s-20-4-26.4-10.4
	c-7.2,6.4-16,10.4-26.4,10.4c-4,0-11.2-0.8-11.2-1.6V260c0,36,28,65.6,64,65.6s64-29.6,64-65.6V103.2
	C345.2,104,338.8,104.8,334,104.8z"/>
<path style="fill:#59C9C9;" d="M334,116.8c-10.4,0-19.2-4-26.4-10.4c-7.2,6.4-16,10.4-26.4,10.4s-20-4-26.4-10.4
	c-7.2,6.4-16,10.4-26.4,10.4c-4,0-11.2-0.8-11.2-1.6v148c0,34.4,28,62.4,64,62.4s64-28,64-62.4V114.4
	C345.2,116,338.8,116.8,334,116.8z"/>
<path style="fill:#2DA8A5;" d="M280.4,325.6c36,0,64.8-29.6,64.8-65.6V103.2c0,0.8-6.4,1.6-11.2,1.6c-10.4,0-19.2-4-26.4-10.4
	c-7.2,6.4-16.8,10.4-27.2,10.4"/>
<path style="fill:#238E88;" d="M308.4,106.4c-7.2,6.4-16.8,10.4-27.2,10.4l0,0l-0.8,208.8c40,0,65.6-29.6,64.8-65.6V114.4
	c0,0.8-6.4,1.6-11.2,1.6C323.6,116.8,315.6,112.8,308.4,106.4z"/>
<path style="fill:#93E5E3;" d="M233.2,268c0,2.4-1.6,4-4,4l0,0c-2.4,0-4-1.6-4-4V148c0-2.4,1.6-4,4-4l0,0c2.4,0,4,1.6,4,4V268z"/>
<path style="fill:#FFFCEE;" d="M233.2,93.6c0,1.6-1.6,4-4,4l0,0c-2.4,0-4-2.4-4-4V68c0-1.6,1.6-3.2,4-3.2l0,0c2.4,0,4,1.6,4,3.2
	V93.6z"/>
<path style="fill:#93E5E3;" d="M233.2,128.8c0,1.6-1.6,4-4,4l0,0c-2.4,0-4-2.4-4-4.8v-16c0-0.8,1.6-0.8,4-0.8l0,0c2.4,0,4,0,4,0.8
	V128.8z"/>
<path style="fill:#ADA78C;" d="M301.2,40v0.8c0,12.8,10.4,23.2,23.2,23.2s23.2-10.4,23.2-23.2V40H301.2z"/>
<circle style="fill:#238E88;" cx="254.8" cy="223.2" r="7.2"/>
<circle style="fill:#59C9C9;" cx="314" cy="192.8" r="7.2"/>
<g>
	<circle style="fill:#2DA8A5;" cx="308.4" cy="173.6" r="3.2"/>
	<path style="fill:#2DA8A5;" d="M318,240.8c0,6.4-5.6,12-12,12s-12-5.6-12-12s5.6-12,12-12C312.4,228.8,318,234.4,318,240.8z"/>
</g>
<circle style="fill:#59C9C9;" cx="295.6" cy="160" r="4.8"/>
<circle style="fill:#238E88;" cx="262.8" cy="203.2" r="4"/>
<path style="fill:#FFFCEE;" d="M338.8,52c0,2.4-1.6,4-4.8,4H228.4c-1.6,0-6.4-0.8-6.4-4c0-3.2,2.4-4,6.4-4c0,0-1.6,0,0,0H330
	c1.6,0,3.2,0,3.2,0C337.2,48,338.8,51.2,338.8,52z"/>
</svg>