<?xml version="1.0" encoding="iso-8859-1"?>
<!-- Uploaded to: SVG Repo, www.svgrepo.com, Generator: SVG Repo Mixer Tools -->
<svg height="800px" width="800px" version="1.1" id="Layer_1" xmlns="http://www.w3.org/2000/svg" xmlns:xlink="http://www.w3.org/1999/xlink" 
	 viewBox="0 0 512.002 512.002" xml:space="preserve">
<path style="fill:#E0A379;" d="M479.945,486.069l-62.472,16.739c-17.251,4.623-34.983-5.615-39.605-22.866l-22.451-83.789
	l-2.497,2.497c-12.629,12.628-33.103,12.628-45.732,0L17.552,109.017c-12.629-12.629-12.629-33.103,0-45.732l45.732-45.732
	c12.629-12.628,33.103-12.628,45.732,0l198.012,198.01L271.855,84.296c-4.622-17.251,5.615-34.982,22.866-39.604l62.472-16.739
	c17.251-4.622,34.983,5.616,39.605,22.866l106.014,395.644C507.434,463.715,497.196,481.446,479.945,486.069z"/>
<path style="fill:#FFFD9B;" d="M307.028,215.564l42.953,160.3c-4.495-1.549-8.717-4.114-12.305-7.703L48.039,78.529
	c-12.629-12.629-12.629-33.103,0-45.732l15.245-15.244c12.629-12.628,33.103-12.628,45.732,0L307.028,215.564z M502.812,446.464
	L396.798,50.818c-4.622-17.251-22.354-27.488-39.605-22.866l-20.824,5.58c-17.251,4.622-27.488,22.353-22.866,39.604
	l106.014,395.646c4.622,17.251,22.354,27.488,39.605,22.866l20.824-5.579C497.196,481.446,507.434,463.715,502.812,446.464z"/>
<path style="fill:#683B2B;" d="M173.803,82.34l-68.598,114.329l-45.732-45.732l68.598-114.329L173.803,82.34z M219.536,128.072
	l-68.598,114.329l45.732,45.732l68.598-114.329L219.536,128.072z M242.401,333.864l45.732,45.732l43.446-72.409l-22.589-84.302
	L242.401,333.864z M420.51,139.318l-16.739-62.47L287.199,141.56l16.739,62.47L420.51,139.318z M437.25,201.788l-116.572,64.714
	l16.739,62.47l116.572-64.714L437.25,201.788z M470.728,326.729l-116.572,64.712l16.739,62.47L487.468,389.2L470.728,326.729z"/>
<path style="fill:#8E5644;" d="M173.801,82.34l-45.732,76.219l-45.732-45.732l45.732-76.219L173.801,82.34z M265.264,295.754
	l45.732,45.732l20.581-34.302l-22.589-84.302L265.264,295.754z M219.532,128.072l-45.732,76.219l45.732,45.732l45.732-76.219
	L219.532,128.072z M437.25,201.788l-77.715,43.143l16.739,62.47l77.715-43.143L437.25,201.788z M403.772,76.847l-77.715,43.143
	l16.739,62.47l77.715-43.142L403.772,76.847z M470.728,326.729l-77.715,43.143l16.74,62.469l77.715-43.142L470.728,326.729z"/>
<path d="M57.554,23.273c-3.157-3.157-3.157-8.276,0-11.433C65.188,4.205,75.338,0,86.135,0s20.948,4.205,28.583,11.839
	L278.87,175.988c3.157,3.158,3.157,8.276,0,11.433c-1.579,1.578-3.649,2.367-5.717,2.367s-4.138-0.789-5.717-2.367L103.286,23.273
	c-4.581-4.581-10.671-7.104-17.149-7.104c-6.479,0-12.569,2.523-17.15,7.103C65.829,26.43,60.71,26.429,57.554,23.273z M322.999,399
	c-3.843-1.161-7.245-3.201-10.107-6.066L298.3,378.342l22.421-37.367c2.297-3.829,1.055-8.793-2.773-11.092
	c-3.828-2.296-8.793-1.055-11.092,2.773l-20.341,33.901l-33.947-33.946l40.221-67.033c2.297-3.829,1.055-8.793-2.773-11.092
	c-3.828-2.296-8.793-1.055-11.092,2.773l-38.139,63.567l-33.947-33.947l45.186-75.309c2.297-3.829,1.056-8.793-2.772-11.092
	c-3.831-2.297-8.795-1.055-11.092,2.773l-43.106,71.843l-33.948-33.947l45.702-76.168c2.297-3.829,1.056-8.793-2.772-11.092
	c-3.831-2.297-8.795-1.055-11.092,2.773l-43.622,72.702l-33.947-33.946l46.508-77.512c2.297-3.829,1.056-8.793-2.772-11.092
	c-3.831-2.296-8.796-1.055-11.092,2.773l-44.429,74.046l-33.947-33.947l44.176-73.627c2.297-3.829,1.056-8.793-2.772-11.092
	c-3.831-2.297-8.796-1.055-11.092,2.773L57.858,137.9l-34.604-34.597c-9.456-9.456-9.456-24.843,0-34.3l22.866-22.865
	c3.157-3.158,3.157-8.276,0-11.433c-3.157-3.156-8.276-3.156-11.433,0L11.821,57.57c-15.76,15.76-15.76,41.403,0,57.165
	l289.636,289.631c4.701,4.702,10.534,8.198,16.868,10.112c0.779,0.236,1.566,0.347,2.34,0.347c3.472,0,6.68-2.255,7.736-5.749
	C329.691,404.802,327.273,400.291,322.999,399z M510.606,444.373L404.592,48.727c-2.794-10.429-9.482-19.146-18.833-24.545
	c-9.351-5.398-20.243-6.835-30.674-4.038c-4.313,1.154-6.872,5.589-5.716,9.902c1.154,4.313,5.587,6.877,9.902,5.716
	c6.259-1.679,12.794-0.817,18.404,2.423c5.61,3.239,9.623,8.469,11.301,14.727L494.99,448.558
	c1.676,6.257,0.816,12.792-2.423,18.403c-3.24,5.609-8.47,9.623-14.727,11.3l-62.47,16.739c-6.257,1.678-12.792,0.816-18.404-2.423
	c-5.609-3.24-9.623-8.469-11.301-14.727l-5.341-19.931l76.969-42.728c3.903-2.168,5.311-7.088,3.144-10.992
	c-2.169-3.903-7.087-5.31-10.992-3.144l-73.435,40.766l-12.426-46.372l76.016-42.198c3.903-2.168,5.311-7.088,3.144-10.992
	c-2.169-3.902-7.087-5.311-10.992-3.144l-72.482,40.237l-12.425-46.371l78.945-43.825c3.903-2.168,5.311-7.088,3.144-10.992
	c-2.169-3.903-7.087-5.31-10.992-3.144l-75.411,41.863l-12.425-46.372l75.068-41.672c3.903-2.168,5.311-7.088,3.144-10.992
	c-2.169-3.902-7.088-5.31-10.992-3.144l-71.533,39.711l-12.425-46.37l74.578-41.401c3.903-2.168,5.311-7.088,3.144-10.992
	c-2.169-3.902-7.088-5.311-10.992-3.144l-71.043,39.439l-12.426-46.372l76.164-42.28c3.903-2.168,5.311-7.088,3.144-10.992
	c-2.169-3.902-7.087-5.31-10.992-3.144l-72.629,40.319l-12.664-47.264c-1.676-6.257-0.816-12.792,2.423-18.403
	s8.469-9.623,14.726-11.3l27.031-7.242c4.313-1.154,6.872-5.588,5.716-9.902c-1.154-4.312-5.589-6.875-9.902-5.716l-27.031,7.242
	c-10.429,2.794-19.146,9.482-24.544,18.833c-5.399,9.351-6.833,20.243-4.038,30.673l106.014,395.646
	c4.832,18.039,21.207,29.965,39.053,29.964c3.452,0,6.962-0.446,10.452-1.382l62.47-16.739c10.429-2.794,19.146-9.482,24.545-18.833
	C511.966,465.696,513.401,454.803,510.606,444.373z"/>
</svg>