<?xml version="1.0" encoding="iso-8859-1"?>
<!-- Uploaded to: SVG Repo, www.svgrepo.com, Generator: SVG Repo Mixer Tools -->
<svg height="800px" width="800px" version="1.1" id="Layer_1" xmlns="http://www.w3.org/2000/svg" xmlns:xlink="http://www.w3.org/1999/xlink" 
	 viewBox="0 0 512 512" xml:space="preserve">
<path style="fill:#EFDFBB;" d="M504.163,469.753c0,5.771-4.679,10.449-10.449,10.449H18.286c-5.771,0-10.449-4.678-10.449-10.449
	V188.675c0-5.771,4.678-10.449,10.449-10.449h475.429c5.77,0,10.449,4.678,10.449,10.449V469.753z"/>
<path style="opacity:0.1;enable-background:new    ;" d="M41.796,178.226h-23.51c-5.771,0-10.449,4.678-10.449,10.449v281.078
	c0,5.771,4.678,10.449,10.449,10.449h23.51V178.226z"/>
<circle style="fill:#FCF6E6;" cx="67.093" cy="91.052" r="59.255"/>
<path style="fill:#8C572C;" d="M67.092,129.412c-21.15,0-38.357-17.207-38.357-38.357c0-21.151,17.207-38.358,38.357-38.358
	s38.357,17.207,38.357,38.358C105.449,112.204,88.242,129.412,67.092,129.412z"/>
<path style="opacity:0.1;enable-background:new    ;" d="M50.155,91.054c0-17.434,11.693-32.178,27.647-36.825
	c-3.402-0.991-6.992-1.533-10.71-1.533c-21.15,0-38.357,17.207-38.357,38.358c0,21.15,17.207,38.357,38.357,38.357
	c3.718,0,7.308-0.542,10.71-1.533C61.849,123.231,50.155,108.487,50.155,91.054z"/>
<path style="fill:#FFFFFF;" d="M120.309,433.192c0,8.357-6.775,15.132-15.133,15.132H67.847c-8.357,0-15.132-6.775-15.132-15.132
	v-37.328c0-8.358,6.775-15.133,15.132-15.133h37.328c8.358,0,15.133,6.775,15.133,15.133V433.192z"/>
<circle style="fill:#FF8150;" cx="86.507" cy="414.532" r="16.646"/>
<path style="fill:#FFFFFF;" d="M205.053,433.192c0,8.357-6.775,15.132-15.133,15.132h-37.328c-8.357,0-15.133-6.775-15.133-15.132
	v-37.328c0-8.358,6.776-15.133,15.133-15.133h37.328c8.358,0,15.133,6.775,15.133,15.133V433.192z"/>
<circle style="fill:#FF8150;" cx="171.259" cy="414.532" r="16.646"/>
<path style="fill:#FFFFFF;" d="M289.797,433.192c0,8.357-6.775,15.132-15.132,15.132h-37.328c-8.358,0-15.133-6.775-15.133-15.132
	v-37.328c0-8.358,6.775-15.133,15.133-15.133h37.328c8.357,0,15.132,6.775,15.132,15.133V433.192z"/>
<circle style="fill:#FF8150;" cx="256" cy="414.532" r="16.647"/>
<path style="fill:#FFFFFF;" d="M374.542,433.192c0,8.357-6.776,15.132-15.133,15.132H322.08c-8.358,0-15.132-6.775-15.132-15.132
	v-37.328c0-8.358,6.774-15.133,15.132-15.133h37.328c8.357,0,15.133,6.775,15.133,15.133V433.192z"/>
<circle style="fill:#FF8150;" cx="340.741" cy="414.532" r="16.646"/>
<path style="fill:#FFFFFF;" d="M459.286,433.192c0,8.357-6.775,15.132-15.132,15.132h-37.328c-8.358,0-15.133-6.775-15.133-15.132
	v-37.328c0-8.358,6.775-15.133,15.133-15.133h37.328c8.357,0,15.132,6.775,15.132,15.133V433.192z"/>
<circle style="fill:#FF8150;" cx="425.493" cy="414.532" r="16.646"/>
<path style="fill:#FF4E00;" d="M132.233,319.008c0,17.739-14.382,32.121-32.121,32.121H84.853c-17.74,0-32.121-14.382-32.121-32.121
	v-73.076c0-17.74,14.382-32.121,32.121-32.121h15.259c17.74,0,32.121,14.382,32.121,32.121
	C132.233,245.932,132.233,319.008,132.233,319.008z"/>
<g>
	<path style="fill:#F4D0C1;" d="M52.732,256.7v16.161c13.612-17.835,41.07-42.439,64.724-53.959
		c-3.864-2.485-8.293-4.162-13.054-4.798C85.72,225.017,66.336,241.689,52.732,256.7z"/>
	<path style="fill:#F4D0C1;" d="M52.732,291.973v18.792c14.247-25.636,47.273-53.186,79.456-66.532
		c-0.191-3.644-0.994-7.123-2.3-10.347C100.856,245.537,70.865,268.428,52.732,291.973z"/>
	<path style="fill:#F4D0C1;" d="M55.027,330.931c1.466,3.667,3.586,7,6.219,9.853c12.611-22.215,42.143-47.237,70.986-60.588
		v-11.427C101.806,281.673,70.669,306.86,55.027,330.931z"/>
	<path style="fill:#F4D0C1;" d="M132.233,301.377c-22.17,9.578-46.727,32.031-56.73,48.366c2.959,0.899,6.097,1.387,9.35,1.387
		h2.272c9.482-13.128,27.893-29.584,45.108-38.23V301.377z"/>
</g>
<path style="opacity:0.1;enable-background:new    ;" d="M74.188,319.008v-73.076c0-16.694,12.736-30.411,29.022-31.97
	c-1.021-0.098-2.053-0.153-3.099-0.153H84.853c-17.74,0-32.121,14.382-32.121,32.121v73.076c0,17.739,14.382,32.121,32.121,32.121
	h15.259c1.046,0,2.078-0.054,3.099-0.152C86.924,349.418,74.188,335.702,74.188,319.008z"/>
<path style="fill:#FF9150;" d="M187.91,224.06h21.827c5.072-4.616,10.294-11.579,14.598-19.966
	c9.09-17.714,10.631-35.064,3.443-38.752c-7.055-3.618-19.888,7.264-28.955,24.409c-9.066-17.145-21.898-28.027-28.953-24.409
	c-7.188,3.688-5.647,21.038,3.443,38.752C177.616,212.481,182.838,219.443,187.91,224.06z"/>
<g style="opacity:0.1;">
	<path d="M190.74,204.093c-7.007-13.656-9.523-27.089-7.018-34.219c-5.27-4.492-10.296-6.357-13.853-4.533
		c-7.188,3.688-5.647,21.038,3.443,38.752c4.304,8.387,9.526,15.351,14.598,19.966h17.428
		C200.266,219.443,195.044,212.481,190.74,204.093z"/>
</g>
<path style="fill:#F2B47C;" d="M238.573,319.008c0,17.739-14.382,32.121-32.12,32.121h-15.26c-17.739,0-32.12-14.382-32.12-32.121
	v-73.076c0-17.74,14.382-32.121,32.12-32.121h15.26c17.739,0,32.12,14.382,32.12,32.121V319.008z"/>
<g>
	<path style="fill:#FFFFFF;" d="M198.823,273.467c14.059,0,28.113-4.568,39.75-13.667v-13.867c0-0.113-0.007-0.224-0.008-0.335
		c-0.667,0.267-1.29,0.671-1.831,1.21c-20.905,20.905-54.918,20.904-75.822,0c-0.54-0.539-1.164-0.942-1.831-1.21
		c-0.001,0.112-0.008,0.223-0.008,0.335v13.867C170.71,268.9,184.759,273.467,198.823,273.467z"/>
	<path style="fill:#FFFFFF;" d="M160.912,275.372c-0.541-0.541-1.169-0.945-1.839-1.213v14.206
		c11.637,9.099,25.686,13.666,39.75,13.666c14.059,0,28.113-4.568,39.75-13.666v-14.206c-0.67,0.269-1.297,0.672-1.839,1.213
		C215.83,296.278,181.817,296.277,160.912,275.372z"/>
	<path style="fill:#FFFFFF;" d="M160.912,303.938c-0.541-0.541-1.169-0.945-1.839-1.213v14.206
		c11.637,9.1,25.686,13.666,39.75,13.666c14.059,0,28.113-4.568,39.75-13.666v-14.206c-0.67,0.269-1.297,0.672-1.839,1.213
		C215.83,324.842,181.817,324.842,160.912,303.938z"/>
</g>
<path style="opacity:0.1;enable-background:new    ;" d="M180.767,319.008v-73.076c0-16.654,12.676-30.346,28.903-31.96
	c-1.058-0.106-2.132-0.161-3.217-0.161h-15.26c-17.739,0-32.12,14.382-32.12,32.121v73.076c0,17.739,14.382,32.121,32.12,32.121
	h15.26c1.086,0,2.159-0.055,3.217-0.161C193.443,349.354,180.767,335.662,180.767,319.008z"/>
<path style="fill:#FFE266;" d="M345.674,319.322c0,17.74-14.382,32.12-32.12,32.12h-15.26c-17.739,0-32.12-14.381-32.12-32.12
	v-73.076c0-17.739,14.382-32.121,32.12-32.121h15.26c17.739,0,32.12,14.382,32.12,32.121V319.322z"/>
<path style="fill:#316638;" d="M347.72,292.709c0,4.617-3.743,8.359-8.359,8.359h-66.873c-4.616,0-8.359-3.742-8.359-8.359v-19.853
	c0-4.616,3.743-8.359,8.359-8.359h66.873c4.616,0,8.359,3.743,8.359,8.359V292.709z"/>
<path style="opacity:0.1;enable-background:new    ;" d="M285.257,292.709v-19.853c0-4.616,3.743-8.359,8.359-8.359h-21.129
	c-4.616,0-8.359,3.743-8.359,8.359v19.853c0,4.617,3.743,8.359,8.359,8.359h21.129C289,301.069,285.257,297.327,285.257,292.709z"/>
<path style="fill:#A8443F;" d="M457.24,319.322c0,17.74-14.382,32.12-32.12,32.12h-15.26c-17.739,0-32.12-14.381-32.12-32.12
	v-73.076c0-17.739,14.382-32.121,32.12-32.121h15.26c17.739,0,32.12,14.382,32.12,32.121V319.322z"/>
<path style="opacity:0.1;enable-background:new    ;" d="M399.151,319.322v-73.076c0-16.702,12.749-30.422,29.045-31.972
	c-1.014-0.096-2.039-0.15-3.076-0.15h-15.26c-17.739,0-32.12,14.382-32.12,32.121v73.076c0,17.74,14.382,32.12,32.12,32.12h15.26
	c1.038,0,2.064-0.053,3.076-0.149C411.9,349.743,399.151,336.023,399.151,319.322z"/>
<path style="fill:#316638;" d="M459.286,292.709c0,4.617-3.743,8.359-8.359,8.359h-66.873c-4.616,0-8.359-3.742-8.359-8.359v-19.853
	c0-4.616,3.743-8.359,8.359-8.359h66.873c4.616,0,8.359,3.743,8.359,8.359V292.709z"/>
<path style="opacity:0.1;enable-background:new    ;" d="M397.061,292.709v-19.853c0-4.616,3.743-8.359,8.359-8.359h-21.367
	c-4.616,0-8.359,3.743-8.359,8.359v19.853c0,4.617,3.743,8.359,8.359,8.359h21.367C400.804,301.069,397.061,297.327,397.061,292.709
	z"/>
<path d="M44.877,433.192c0,12.665,10.304,22.969,22.969,22.969h37.328c12.666,0,22.97-10.304,22.97-22.969v-37.328
	c0-12.666-10.304-22.97-22.97-22.97H67.847c-12.665,0-22.969,10.305-22.969,22.97v37.328H44.877z M60.551,395.864
	c0-4.024,3.273-7.297,7.295-7.297h37.328c4.024,0,7.297,3.274,7.297,7.297v37.328c0,4.023-3.274,7.295-7.297,7.295H67.847
	c-4.024,0-7.295-3.273-7.295-7.295v-37.328H60.551z"/>
<path d="M129.622,395.864v37.328c0,12.665,10.304,22.969,22.97,22.969h37.328c12.666,0,22.97-10.304,22.97-22.969v-37.328
	c0-12.666-10.304-22.97-22.97-22.97h-37.328C139.925,372.894,129.622,383.199,129.622,395.864z M145.295,395.864
	c0-4.024,3.274-7.297,7.297-7.297h37.328c4.024,0,7.297,3.274,7.297,7.297v37.328c0,4.023-3.274,7.295-7.297,7.295h-37.328
	c-4.024,0-7.297-3.273-7.297-7.295V395.864z"/>
<path d="M214.366,395.864v37.328c0,12.665,10.304,22.969,22.97,22.969h37.328c12.665,0,22.969-10.304,22.969-22.969v-37.328
	c0-12.666-10.304-22.97-22.969-22.97h-37.328C224.671,372.894,214.366,383.199,214.366,395.864z M281.96,395.864v37.328
	c0,4.023-3.273,7.295-7.295,7.295h-37.328c-4.024,0-7.297-3.273-7.297-7.295v-37.328c0-4.024,3.274-7.297,7.297-7.297h37.328
	C278.688,388.567,281.96,391.841,281.96,395.864z"/>
<path d="M322.08,372.894c-12.665,0-22.969,10.305-22.969,22.97v37.328c0,12.665,10.304,22.969,22.969,22.969h37.328
	c12.666,0,22.97-10.304,22.97-22.969v-37.328c0-12.666-10.304-22.97-22.97-22.97H322.08z M366.705,395.864v37.328
	c0,4.023-3.274,7.295-7.297,7.295H322.08c-4.024,0-7.295-3.273-7.295-7.295v-37.328c0-4.024,3.273-7.297,7.295-7.297h37.328
	C363.431,388.567,366.705,391.841,366.705,395.864z"/>
<path d="M444.153,372.894h-37.328c-12.666,0-22.97,10.305-22.97,22.97v37.328c0,12.665,10.304,22.969,22.97,22.969h37.328
	c12.665,0,22.969-10.304,22.969-22.969v-37.328C467.123,383.199,456.819,372.894,444.153,372.894z M451.449,433.192
	c0,4.023-3.273,7.295-7.295,7.295h-37.328c-4.024,0-7.297-3.273-7.297-7.295v-37.328c0-4.024,3.274-7.297,7.297-7.297h37.328
	c4.024,0,7.295,3.274,7.295,7.297V433.192z"/>
<path d="M86.511,439.011c13.5,0,24.483-10.983,24.483-24.484c0-13.5-10.983-24.483-24.483-24.483s-24.484,10.983-24.484,24.483
	C62.027,428.028,73.011,439.011,86.511,439.011z M86.511,405.718c4.857,0,8.81,3.952,8.81,8.81c0,4.858-3.952,8.811-8.81,8.811
	s-8.811-3.952-8.811-8.811C77.701,409.67,81.654,405.718,86.511,405.718z"/>
<path d="M171.255,439.011c13.5,0,24.484-10.983,24.484-24.484c0-13.5-10.984-24.483-24.484-24.483
	c-13.5,0-24.483,10.983-24.483,24.483C146.773,428.028,157.756,439.011,171.255,439.011z M171.255,405.718
	c4.858,0,8.811,3.952,8.811,8.81c0,4.858-3.952,8.811-8.811,8.811c-4.857,0-8.81-3.952-8.81-8.811
	C162.446,409.67,166.398,405.718,171.255,405.718z"/>
<path d="M256,439.011c13.5,0,24.484-10.983,24.484-24.484c0-13.5-10.984-24.483-24.484-24.483c-13.5,0-24.484,10.983-24.484,24.483
	C231.516,428.028,242.5,439.011,256,439.011z M256,405.718c4.858,0,8.811,3.952,8.811,8.81c0,4.858-3.952,8.811-8.811,8.811
	s-8.811-3.952-8.811-8.811C247.189,409.67,251.142,405.718,256,405.718z"/>
<path d="M340.744,390.045c-13.5,0-24.484,10.983-24.484,24.483c0,13.5,10.984,24.484,24.484,24.484
	c13.5,0,24.483-10.983,24.483-24.484C365.227,401.028,354.244,390.045,340.744,390.045z M340.744,423.337
	c-4.858,0-8.811-3.952-8.811-8.811c0-4.858,3.952-8.81,8.811-8.81c4.858,0,8.81,3.952,8.81,8.81
	C349.554,419.385,345.602,423.337,340.744,423.337z"/>
<path d="M425.489,390.045c-13.5,0-24.483,10.983-24.483,24.483c0,13.5,10.983,24.484,24.483,24.484
	c13.5,0,24.484-10.983,24.484-24.484C449.973,401.028,438.989,390.045,425.489,390.045z M425.489,423.337
	c-4.857,0-8.81-3.952-8.81-8.811c0-4.858,3.952-8.81,8.81-8.81c4.858,0,8.811,3.952,8.811,8.81
	C434.299,419.385,430.346,423.337,425.489,423.337z"/>
<path d="M100.112,205.974H84.853c-22.033,0-39.958,17.925-39.958,39.958v73.076c0,22.033,17.925,39.958,39.958,39.958h15.259
	c22.033,0,39.958-17.925,39.958-39.958v-73.076C140.07,223.9,122.144,205.974,100.112,205.974z M124.396,319.008
	c0,13.39-10.894,24.284-24.284,24.284H84.853c-13.39,0-24.284-10.894-24.284-24.284v-73.076c0-13.39,10.894-24.284,24.284-24.284
	h15.259c13.39,0,24.284,10.894,24.284,24.284C124.396,245.932,124.396,319.008,124.396,319.008z"/>
<path d="M313.554,206.288h-15.26c-22.033,0-39.957,17.925-39.957,39.958v18.751c-1.299,2.33-2.046,5.007-2.046,7.859v19.853
	c0,2.852,0.747,5.53,2.046,7.859v18.753c0,22.033,17.924,39.957,39.957,39.957h15.26c22.033,0,39.957-17.924,39.957-39.957v-18.753
	c1.299-2.33,2.046-5.007,2.046-7.859v-19.853c0-2.852-0.747-5.53-2.046-7.859v-18.751
	C353.511,224.213,335.587,206.288,313.554,206.288z M274.011,246.246c0-13.39,10.894-24.284,24.283-24.284h15.26
	c13.389,0,24.283,10.894,24.283,24.284v10.415h-5.224v-10.415c0-10.51-8.55-19.06-19.059-19.06h-15.26
	c-10.51,0-19.059,8.55-19.059,19.06v10.415h-5.224V246.246z M305.924,245.166c-2.886,0-5.224,2.34-5.224,5.225v6.269h-5.791v-10.414
	c0-1.867,1.518-3.387,3.385-3.387h15.26c1.867,0,3.385,1.519,3.385,3.387v10.414h-5.791v-6.269
	C311.149,247.506,308.81,245.166,305.924,245.166z M337.837,319.322c0,13.39-10.894,24.283-24.283,24.283h-15.26
	c-13.389,0-24.283-10.893-24.283-24.283v-10.417h5.224v10.417c0,10.51,8.55,19.059,19.059,19.059h15.26
	c10.51,0,19.059-8.55,19.059-19.059v-10.417h5.224V319.322z M305.924,320.399c2.886,0,5.224-2.34,5.224-5.224v-6.269h5.791v10.417
	c0,1.867-1.518,3.385-3.385,3.385h-15.26c-1.867,0-3.385-1.519-3.385-3.385v-10.417h5.791v6.269
	C300.7,318.06,303.039,320.399,305.924,320.399z M339.883,292.709c0,0.288-0.235,0.522-0.522,0.522h-66.873
	c-0.287,0-0.522-0.234-0.522-0.522v-19.853c0-0.288,0.235-0.522,0.522-0.522h66.873c0.287,0,0.522,0.234,0.522,0.522V292.709z"/>
<path d="M425.12,206.288h-15.26c-22.033,0-39.957,17.925-39.957,39.958v18.751c-1.299,2.33-2.046,5.007-2.046,7.859v19.853
	c0,2.852,0.747,5.53,2.046,7.859v18.753c0,22.033,17.924,39.957,39.957,39.957h15.26c22.033,0,39.957-17.924,39.957-39.957v-18.753
	c1.299-2.33,2.046-5.007,2.046-7.859v-19.853c0-2.852-0.747-5.53-2.046-7.859v-18.751
	C465.077,224.213,447.153,206.288,425.12,206.288z M385.577,246.246c0-13.39,10.894-24.284,24.283-24.284h15.26
	c13.389,0,24.283,10.894,24.283,24.284v10.415h-63.827L385.577,246.246L385.577,246.246z M449.403,319.322
	c0,13.39-10.894,24.283-24.283,24.283h-15.26c-13.389,0-24.283-10.893-24.283-24.283v-10.417h63.827L449.403,319.322
	L449.403,319.322z M451.449,292.709c0,0.288-0.235,0.522-0.522,0.522h-66.873c-0.287,0-0.522-0.234-0.522-0.522v-19.853
	c0-0.288,0.235-0.522,0.522-0.522h66.873c0.287,0,0.522,0.234,0.522,0.522V292.709z"/>
<path d="M67.092,158.146c36.995,0,67.092-30.097,67.092-67.092s-30.097-67.093-67.092-67.093S0,54.059,0,91.054
	C0,128.048,30.097,158.146,67.092,158.146z M67.092,39.635c28.352,0,51.418,23.067,51.418,51.419s-23.066,51.418-51.418,51.418
	s-51.418-23.067-51.418-51.418C15.673,62.701,38.74,39.635,67.092,39.635z"/>
<path d="M493.714,170.389H239.577c-1.456-7.316-5.465-10.607-8.223-12.022c-2.016-1.033-4.232-1.558-6.588-1.558
	c-9.37,0-18.772,8.404-25.943,18.197c-7.171-9.794-16.572-18.197-25.943-18.197c-2.356,0-4.572,0.523-6.59,1.559
	c-2.756,1.415-6.767,4.704-8.221,12.02H18.286C8.203,170.389,0,178.592,0,188.675v281.078c0,10.082,8.203,18.286,18.286,18.286
	h66.35c4.329,0,7.837-3.509,7.837-7.837c0-4.328-3.508-7.837-7.837-7.837h-66.35c-1.441,0-2.612-1.172-2.612-2.612V237.714h4.18
	c4.329,0,7.837-3.509,7.837-7.837c0-4.328-3.508-7.837-7.837-7.837h-4.18v-8.359h13.061c4.329,0,7.837-3.509,7.837-7.837
	c0-4.328-3.508-7.837-7.837-7.837H15.673v-9.333c0-1.441,1.171-2.612,2.612-2.612h140.275c1.372,6.85,4.041,14.322,7.778,21.607
	c0.877,1.708,1.808,3.365,2.769,4.984c-10.763,7.167-17.873,19.406-17.873,33.279v73.076c0,22.033,17.924,39.958,39.957,39.958
	h15.26c22.033,0,39.957-17.925,39.957-39.958v-73.076c0-13.872-7.109-26.112-17.872-33.279c0.961-1.62,1.892-3.276,2.769-4.984
	c3.738-7.285,6.407-14.757,7.778-21.607h254.63c1.441,0,2.612,1.171,2.612,2.612v218.313h-4.18c-4.329,0-7.837,3.509-7.837,7.837
	c0,4.328,3.508,7.837,7.837,7.837h4.18v11.494h-6.899c-4.329,0-7.837,3.509-7.837,7.837s3.508,7.837,7.837,7.837h6.899v19.924
	c0,1.44-1.171,2.612-2.612,2.612H120.162c-4.329,0-7.837,3.509-7.837,7.837c0,4.328,3.508,7.837,7.837,7.837h373.552
	c10.082,0,18.286-8.203,18.286-18.286V188.675C512,178.593,503.796,170.389,493.714,170.389z M173.596,172.611
	c3.082,0.937,11.074,7.138,18.299,20.803c1.357,2.567,4.024,4.173,6.928,4.173c2.904,0,5.57-1.606,6.928-4.173
	c7.228-13.666,15.218-19.866,18.301-20.803c1.084,3.137,0.65,13.602-6.688,27.905c-1.104,2.151-2.286,4.207-3.517,6.157
	c-2.397-0.451-4.865-0.697-7.392-0.697h-15.26c-2.527,0-4.995,0.246-7.392,0.697c-1.232-1.949-2.414-4.005-3.517-6.157
	C172.946,186.213,172.513,175.748,173.596,172.611z M230.736,245.932v73.076c0,13.39-10.894,24.284-24.283,24.284h-15.26
	c-13.389,0-24.283-10.894-24.283-24.284v-73.076c0-13.321,10.781-24.167,24.077-24.279v21.215c0,4.328,3.508,7.837,7.837,7.837
	c4.329,0,7.837-3.509,7.837-7.837v-21.215C219.955,221.765,230.736,232.611,230.736,245.932z"/>
<path d="M67.092,137.248c4.329,0,7.837-3.509,7.837-7.837c0-4.328-3.508-7.837-7.837-7.837c-16.828,0-30.52-13.691-30.52-30.52
	s13.692-30.521,30.52-30.521s30.52,13.692,30.52,30.521c0,8.513-3.613,16.71-9.913,22.489c-3.19,2.926-3.404,7.883-0.479,11.073
	c2.927,3.189,7.884,3.402,11.073,0.478c9.528-8.74,14.993-21.147,14.993-34.04c0-25.471-20.722-46.195-46.194-46.195
	c-25.473,0-46.195,20.722-46.195,46.195C20.898,116.526,41.62,137.248,67.092,137.248z"/>
<g>
	<path style="fill:#FFFFFF;" d="M58.514,78.846c8.152,3.375,10.889,6.114,14.265,14.266c3.378-8.152,6.115-10.891,14.267-14.266
		c-8.153-3.378-10.89-6.116-14.267-14.267C69.403,72.73,66.667,75.468,58.514,78.846z"/>
	<circle style="fill:#FFFFFF;" cx="86.705" cy="96.11" r="6.29"/>
</g>
<path style="fill:#8C6239;" d="M443.037,58.248H165.538c-4.396,0-7.958,3.563-7.958,7.958c0,4.396,3.562,7.959,7.958,7.959h277.499
	V58.248z"/>
<path style="fill:#42210B;" d="M504.042,74.165h-70.566c-4.396,0-7.958-3.563-7.958-7.959c0-4.396,3.562-7.958,7.958-7.958h70.566
	c4.396,0,7.958,3.563,7.958,7.958C512,70.602,508.438,74.165,504.042,74.165z"/>
<path style="fill:#8C6239;" d="M443.037,97.817H165.538c-4.396,0-7.958,3.563-7.958,7.959c0,4.395,3.562,7.959,7.958,7.959h277.499
	V97.817z"/>
<path style="fill:#42210B;" d="M504.042,113.735h-70.566c-4.396,0-7.958-3.563-7.958-7.959c0-4.396,3.562-7.959,7.958-7.959h70.566
	c4.396,0,7.958,3.563,7.958,7.959S508.438,113.735,504.042,113.735z"/>
</svg>