<?xml version="1.0" encoding="iso-8859-1"?>
<!-- Uploaded to: SVG Repo, www.svgrepo.com, Generator: SVG Repo Mixer Tools -->
<svg height="800px" width="800px" version="1.1" id="Layer_1" xmlns="http://www.w3.org/2000/svg" xmlns:xlink="http://www.w3.org/1999/xlink" 
	 viewBox="0 0 512 512" xml:space="preserve">
<path style="fill:#78B918;" d="M94.316,45.811h75.453c47.625,0,86.232,38.607,86.232,86.232v75.453h-75.453
	c-47.625,0-86.232-38.607-86.232-86.232V45.811z"/>
<path style="fill:#009175;" d="M256,202.105v21.558h-75.453v-16.168c-47.625,0-86.232-38.607-86.232-86.232V45.811l156.295,156.295
	H256z"/>
<path style="fill:#F2385A;" d="M503.916,272.168L503.916,272.168c0,35.718-28.956,64.674-64.674,64.674H72.758
	c-35.718,0-64.674-28.956-64.674-64.674l0,0c0-35.718,28.955-64.674,64.674-64.674h366.484
	C474.96,207.495,503.916,236.45,503.916,272.168z"/>
<path style="fill:#A51356;" d="M72.758,336.842L72.758,336.842c-35.718,0-64.674-28.956-64.674-64.674l0,0
	c0-35.718,28.955-64.674,64.674-64.674l0,0V336.842z"/>
<path style="fill:#FF7C6E;" d="M455.41,223.663L455.41,223.663c0,8.929-7.239,16.168-16.168,16.168H72.758
	c-8.929,0-16.168-7.239-16.168-16.168l0,0c0-8.929,7.239-16.168,16.168-16.168h366.484
	C448.171,207.495,455.41,214.734,455.41,223.663z"/>
<path style="fill:#D28A4D;" d="M471.579,336.842l-21.558,86.232v32.337H61.979v-32.337l-21.558-86.232
	c0-23.812,19.304-43.116,43.116-43.116l0,0c23.812,0,43.116,19.304,43.116,43.116c0-23.812,19.304-43.116,43.116-43.116l0,0
	c23.812,0,43.116,19.304,43.116,43.116c0-23.812,19.304-43.116,43.116-43.116l0,0c23.812,0,43.116,19.304,43.116,43.116
	c0-23.812,19.304-43.116,43.116-43.116l0,0c23.812,0,43.116,19.304,43.116,43.116c0-23.812,19.304-43.116,43.116-43.116l0,0
	C452.275,293.726,471.579,313.03,471.579,336.842z"/>
<path style="fill:#E0A379;" d="M212.884,336.842v107.789h-86.232V336.842c0-23.812,19.304-43.116,43.116-43.116l0,0
	C193.58,293.726,212.884,313.03,212.884,336.842z M342.232,293.726L342.232,293.726c-23.812,0-43.116,19.304-43.116,43.116v107.789
	h86.232V336.842C385.347,313.03,366.043,293.726,342.232,293.726z"/>
<path style="fill:#B45330;" d="M72.758,336.842l21.558,86.232v32.337H61.979v-32.337l-21.558-86.232
	c0-20.09,13.741-36.971,32.337-41.758V336.842z"/>
<path style="fill:#A51356;" d="M256,229.053c-20.836,0-37.726-16.891-37.726-37.726S235.164,153.6,256,153.6
	c20.836,0,37.726,16.891,37.726,37.726S276.836,229.053,256,229.053z"/>
<path style="fill:#F2385A;" d="M293.726,191.326c0,13.962-7.591,26.143-18.863,32.667C263.591,217.47,256,205.288,256,191.326
	s7.591-26.143,18.863-32.667C286.136,165.183,293.726,177.364,293.726,191.326z"/>
<path style="fill:#E9F1DF;" d="M8.084,423.074h495.832l0,0c0,29.765-24.13,53.895-53.895,53.895H61.979
	C32.214,476.968,8.084,452.839,8.084,423.074L8.084,423.074z"/>
<path style="fill:#D4DBCA;" d="M51.2,423.074L51.2,423.074c0,29.765,24.13,53.895,53.895,53.895H61.979
	c-29.765,0-53.895-24.13-53.895-53.895l0,0H51.2z"/>
<path d="M503.916,409.6h-43.542l16.565-66.257c1.262-5.05,1.74-10.18,1.464-15.236C499.208,314.792,512,291.587,512,266.779
	c0-40.119-32.639-72.758-72.758-72.758c-4.466,0-8.084,3.618-8.084,8.084s3.618,8.084,8.084,8.084
	c31.203,0,56.589,25.387,56.589,56.589c0,17.321-8.018,33.638-21.367,44.291c-1.607-3.802-3.687-7.44-6.225-10.828
	c-9.037-12.071-22.768-19.342-37.667-19.946c-0.698-0.028-1.401-0.042-2.108-0.042c-18.081,0-34.003,9.422-43.116,23.612
	c-9.113-14.19-25.035-23.612-43.116-23.612c-18.081,0-34.003,9.422-43.116,23.612c-9.113-14.19-25.035-23.612-43.116-23.612
	c-18.081,0-34.003,9.422-43.116,23.612c-9.113-14.19-25.035-23.612-43.116-23.612s-34.003,9.422-43.116,23.612
	c-9.114-14.19-25.036-23.612-43.117-23.612c-0.706,0-1.41,0.014-2.105,0.042c-14.904,0.605-28.634,7.875-37.671,19.946
	c-2.537,3.389-4.618,7.027-6.225,10.828c-13.348-10.653-21.367-26.971-21.367-44.291c0-31.203,25.385-56.589,56.589-56.589h118.568
	c4.465,0,8.084-3.618,8.084-8.084s-3.62-8.084-8.084-8.084h-10.779c-43.091,0-78.147-35.056-78.147-78.147V48.505h67.368
	c43.091,0,78.147,35.056,78.147,78.147v14.188c-12.587,2.251-23.41,9.659-30.194,19.953l-74.379-79.692
	c-3.047-3.265-8.162-3.44-11.427-0.393c-3.264,3.046-3.44,8.161-0.393,11.426l79.484,85.161c-0.537,2.799-0.817,5.688-0.817,8.641
	c0,25.26,20.55,45.811,45.811,45.811c16.36,0,30.745-8.621,38.851-21.558h112.055c4.466,0,8.084-3.618,8.084-8.084
	s-3.618-8.084-8.084-8.084H301.096c0.47-2.626,0.715-5.326,0.715-8.084c0-22.502-16.309-41.266-37.726-45.096V67.368
	c0-10.401,8.463-18.863,18.863-18.863s18.863,8.463,18.863,18.863c0,4.466,3.618,8.084,8.084,8.084s8.084-3.618,8.084-8.084
	c0-19.317-15.715-35.032-35.032-35.032c-19.317,0-35.032,15.715-35.032,35.032v6.531c-16.971-25.059-45.669-41.563-78.147-41.563
	H94.316c-4.465,0-8.084,3.618-8.084,8.084v75.453c0,32.478,16.504,61.176,41.563,78.147H72.758C32.639,194.021,0,226.66,0,266.779
	c0,24.808,12.792,48.013,33.595,61.328c-0.275,5.056,0.203,10.186,1.465,15.236L51.625,409.6H8.084C3.62,409.6,0,413.218,0,417.684
	c0,34.176,27.803,61.979,61.979,61.979h388.042c34.176,0,61.979-27.803,61.979-61.979C512,413.218,508.382,409.6,503.916,409.6z
	 M256,156.295c16.344,0,29.642,13.298,29.642,29.642S272.344,215.579,256,215.579c-16.345,0-29.642-13.298-29.642-29.642
	S239.655,156.295,256,156.295z M450.021,463.495H61.979c-22.502,0-41.267-16.309-45.096-37.726h44.915
	c0.114,0.001,0.232,0.001,0.35,0h64.504c4.465,0,8.084-3.618,8.084-8.084c0-4.466-3.62-8.084-8.084-8.084H68.291l-17.545-70.178
	c-2.564-10.259-0.393-21.007,5.958-29.489c6.11-8.161,15.362-13.075,25.388-13.481c0.48-0.02,0.961-0.03,1.445-0.03
	c19.316,0,35.032,15.715,35.032,35.032v53.895c0,4.466,3.62,8.084,8.084,8.084s8.084-3.618,8.084-8.084v-53.895
	c0-19.317,15.716-35.032,35.032-35.032s35.032,15.715,35.032,35.032v53.895c0,4.466,3.62,8.084,8.084,8.084
	c4.465,0,8.084-3.618,8.084-8.084v-53.895c0-19.317,15.716-35.032,35.032-35.032c19.317,0,35.032,15.715,35.032,35.032v53.895
	c0,4.466,3.618,8.084,8.084,8.084s8.084-3.618,8.084-8.084v-53.895c0-19.317,15.715-35.032,35.032-35.032
	c19.317,0,35.032,15.715,35.032,35.032v53.895c0,4.466,3.618,8.084,8.084,8.084s8.084-3.618,8.084-8.084v-53.895
	c0-19.317,15.715-35.032,35.032-35.032c0.484,0,0.966,0.01,1.45,0.029c10.022,0.406,19.274,5.319,25.383,13.48
	c6.352,8.483,8.523,19.232,5.958,29.49L443.71,409.6h-284.72c-4.465,0-8.084,3.618-8.084,8.084c0,4.466,3.62,8.084,8.084,8.084
	h290.862c0.116,0.002,0.234,0.002,0.35,0h44.915C491.287,447.186,472.523,463.495,450.021,463.495z"/>
</svg>