<?xml version="1.0" encoding="iso-8859-1"?>
<!-- Uploaded to: SVG Repo, www.svgrepo.com, Generator: SVG Repo Mixer Tools -->
<svg height="800px" width="800px" version="1.1" id="Layer_1" xmlns="http://www.w3.org/2000/svg" xmlns:xlink="http://www.w3.org/1999/xlink" 
	 viewBox="0 0 511.999 511.999" xml:space="preserve">
<path style="fill:#FFE285;" d="M304.364,430.772l153.802-153.803c61.638-61.637,61.638-161.574,0.004-223.208
	C396.533-7.875,296.596-7.87,234.961,53.764l-6.217,6.217C171.778,45.158,108.7,60.019,64.076,104.647
	C16.749,151.973,2.899,220.053,22.43,279.574C-4.968,338.05,5.467,409.86,53.773,458.159c61.631,61.641,161.568,61.633,223.2,0.006
	l13.054-13.054"/>
<path style="fill:#53180F;" d="M165.372,511.992c-44.191,0.001-85.734-17.208-116.977-48.456
	C0.002,415.149-13.521,341.384,14.292,279.084c-9.35-30.191-10.576-62.363-3.524-93.24c7.482-32.763,24.057-62.701,47.931-86.574
	c22.489-22.491,50.553-38.607,81.159-46.608c28.273-7.389,58.097-7.755,86.543-1.093l3.183-3.184
	c64.504-64.504,169.459-64.505,233.963-0.003c31.244,31.245,48.453,72.79,48.452,116.98c-0.001,44.191-17.209,85.736-48.456,116.982
	L309.742,436.15l-10.754-10.754L452.79,271.593c28.375-28.373,44.002-66.099,44.002-106.227S481.167,87.512,452.793,59.14
	C394.221,0.564,298.911,0.564,240.338,59.141l-9.295,9.295l-4.214-1.096c-27.204-7.08-55.949-7.068-83.125,0.037
	c-27.995,7.317-53.671,22.065-74.251,42.646c-21.849,21.848-37.014,49.237-43.859,79.207c-6.66,29.162-5.256,59.582,4.06,87.973
	l0.941,2.865l-1.28,2.73c-26.747,57.089-14.757,125.4,29.834,169.984c28.371,28.375,66.095,44.002,106.223,44.001
	c40.126,0,77.85-15.624,106.223-43.996l13.053-13.054l10.754,10.754l-13.054,13.054
	C251.103,494.785,209.561,511.992,165.372,511.992z"/>
<path style="fill:#EC6907;" d="M246.701,164.652c33.858,33.859,33.856,88.76,0,122.62c-33.868,33.868-88.761,33.865-122.627,0.004
	c-33.858-33.859-33.858-88.766,0.003-122.628C157.942,130.79,212.836,130.787,246.701,164.652z"/>
<g>
	<path style="fill:#53180F;" d="M185.386,320.278c-25.19,0-48.874-9.811-66.688-27.624c-36.772-36.773-36.77-96.608,0.003-133.383
		c17.815-17.811,41.499-27.621,66.687-27.621c25.191,0,48.875,9.811,66.689,27.625c36.77,36.77,36.77,96.601,0.001,133.374
		C234.262,310.465,210.578,320.278,185.386,320.278z M185.388,146.858c-21.128,0-40.993,8.228-55.934,23.168
		c-30.843,30.844-30.844,81.031-0.002,111.875c14.942,14.94,34.808,23.169,55.935,23.169c21.128,0,40.995-8.231,55.938-23.174
		c30.84-30.843,30.84-81.026,0-111.866C226.382,155.087,206.517,146.858,185.388,146.858z"/>
	<path style="fill:#53180F;" d="M249.284,225.965h-15.208c0-13.008-5.064-25.235-14.259-34.43
		c-9.195-9.195-21.421-14.259-34.426-14.261l0.002-15.208c17.066,0.002,33.111,6.649,45.178,18.715
		C242.639,192.848,249.284,208.895,249.284,225.965z"/>
	<path style="fill:#53180F;" d="M442.037,260.838l-10.754-10.754c15.123-15.122,25.924-33.916,31.237-54.352l14.719,3.825
		C471.244,222.612,459.072,243.802,442.037,260.838z"/>
	<path style="fill:#53180F;" d="M480.966,178.392l-15.139-1.442c0.363-3.825,0.548-7.725,0.548-11.589
		c0-32.004-12.461-62.089-35.089-84.719c-22.628-22.627-52.714-35.088-84.718-35.088V30.347c36.064,0,69.971,14.044,95.471,39.543
		c25.5,25.501,39.544,59.408,39.544,95.472C481.584,169.706,481.376,174.089,480.966,178.392z"/>
</g>
</svg>