<?xml version="1.0" encoding="iso-8859-1"?>
<!-- Uploaded to: SVG Repo, www.svgrepo.com, Generator: SVG Repo Mixer Tools -->
<svg height="800px" width="800px" version="1.1" id="Layer_1" xmlns="http://www.w3.org/2000/svg" xmlns:xlink="http://www.w3.org/1999/xlink" 
	 viewBox="0 0 512.001 512.001" xml:space="preserve">
<path style="fill:#A5D289;" d="M251.574,167.882l29.373,299.284c0.748,7.626,7.06,13.378,14.683,13.378h141.645
	c7.621,0,13.934-5.752,14.683-13.378l29.373-299.284H251.574z"/>
<path style="fill:#EF645E;" d="M356.484,145.098c-2.897,0-5.247-2.353-5.247-5.257V14.704c0-2.904,2.35-5.258,5.247-5.258h19.938
	c2.897,0,5.246,2.354,5.246,5.258v125.137c0,2.904-2.35,5.257-5.246,5.257H356.484z"/>
<g>
	<path style="fill:#FFFFFF;" d="M354.875,72.317c-2.003,0-4.005-0.763-5.535-2.289c-3.064-3.057-3.07-8.019-0.013-11.083
		l24.485-24.537c3.057-3.065,8.02-3.07,11.082-0.011c3.064,3.057,3.07,8.019,0.013,11.082l-24.485,24.537
		C358.891,71.55,356.883,72.317,354.875,72.317z"/>
	<path style="fill:#FFFFFF;" d="M354.875,117.533c-2.003,0-4.005-0.763-5.536-2.289c-3.064-3.057-3.069-8.019-0.011-11.082
		l24.485-24.536c3.057-3.065,8.019-3.069,11.083-0.011c3.064,3.057,3.069,8.019,0.011,11.082l-24.485,24.536
		C358.891,116.766,356.883,117.533,354.875,117.533z"/>
</g>
<g>
	<path style="fill:#79A85B;" d="M286.913,248.164h-24.131c-4.328,0-7.837-3.508-7.837-7.837c0-4.329,3.509-7.837,7.837-7.837h24.131
		c4.328,0,7.837,3.508,7.837,7.837C294.75,244.656,291.241,248.164,286.913,248.164z"/>
	<path style="fill:#79A85B;" d="M294.957,216.817h-38.208c-4.328,0-7.837-3.508-7.837-7.837c0-4.329,3.509-7.837,7.837-7.837h38.208
		c4.328,0,7.837,3.508,7.837,7.837C302.794,213.309,299.285,216.817,294.957,216.817z"/>
</g>
<path style="fill:#F7EEDF;" d="M473.67,154.78c0,8.194-6.606,14.835-14.755,14.835H273.989c-8.147,0-14.755-6.641-14.755-14.835
	v-19.781c0-8.194,6.608-14.835,14.755-14.835h184.926c8.149,0,14.755,6.641,14.755,14.835V154.78z"/>
<ellipse style="fill:#F7C677;" cx="366.456" cy="287.922" rx="62.924" ry="63.269"/>
<path style="fill:#F2EBAA;" d="M366.452,330.292c-23.172,0-42.024-19.007-42.024-42.371c0-23.362,18.851-42.37,42.024-42.37
	s42.026,19.007,42.026,42.37S389.625,330.292,366.452,330.292z"/>
<path style="fill:#E66416;" d="M414.33,385.132c0,19.511-15.785,35.331-35.257,35.331H43.094c-19.472,0-35.257-15.82-35.257-35.331
	l0,0c0-19.512,15.785-35.332,35.257-35.332h335.98C398.545,349.801,414.33,365.62,414.33,385.132L414.33,385.132z"/>
<path style="opacity:0.1;enable-background:new    ;" d="M51.2,385.132c0-19.512,15.785-35.332,35.257-35.332H43.094
	c-19.472,0-35.257,15.82-35.257,35.332c0,19.511,15.785,35.331,35.257,35.331h43.363C66.985,420.463,51.2,404.643,51.2,385.132z"/>
<path style="fill:#AA340F;" d="M121.664,379.254c-6.848,0-10.367-8.542-5.547-13.373l18.957-18.994
	c3.056-3.064,8.019-3.069,11.083-0.011c3.065,3.057,3.068,8.02,0.012,11.082l-18.957,18.994
	C125.68,378.487,123.672,379.254,121.664,379.254z"/>
<path style="fill:#F7EEDF;" d="M173.363,379.254c-6.848,0-10.367-8.542-5.547-13.373l18.956-18.994
	c3.056-3.064,8.019-3.069,11.082-0.011c3.064,3.057,3.069,8.02,0.011,11.082l-18.955,18.994
	C177.379,378.487,175.37,379.254,173.363,379.254z"/>
<path style="fill:#AA340F;" d="M225.062,379.254c-6.848,0-10.369-8.542-5.547-13.373l18.955-18.994
	c3.056-3.064,8.019-3.069,11.083-0.011c3.065,3.057,3.068,8.02,0.012,11.082l-18.956,18.994
	C229.077,378.487,227.07,379.254,225.062,379.254z"/>
<path style="fill:#F7EEDF;" d="M276.76,379.254c-6.848,0-10.367-8.542-5.547-13.373l18.957-18.994
	c3.056-3.064,8.019-3.069,11.082-0.011c3.064,3.057,3.069,8.02,0.011,11.082l-18.957,18.994
	C280.776,378.487,278.768,379.254,276.76,379.254z"/>
<path style="opacity:0.1;enable-background:new    ;" d="M324.31,467.166L294.8,166.492c-0.408-4.159,0.957-8.322,3.749-11.42
	c2.791-3.099,6.776-4.874,10.935-4.874h-43.363c-4.159,0-8.143,1.775-10.935,4.874c-2.792,3.098-4.157,7.26-3.749,11.42
	l29.51,300.674c0.748,7.626,7.06,13.378,14.683,13.378h43.363C331.371,480.544,325.058,474.792,324.31,467.166z"/>
<path style="fill:#F7C677;" d="M395.147,446.44c0,30.991-25.07,56.114-55.996,56.114H83.017c-30.926,0-55.996-25.124-55.996-56.114
	l0,0c0-30.991,25.07-56.113,55.996-56.113H339.15C370.076,390.327,395.147,415.45,395.147,446.44L395.147,446.44z"/>
<path style="opacity:0.1;enable-background:new    ;" d="M70.731,446.44c0-30.991,25.07-56.113,55.996-56.113h-43.71
	c-30.926,0-55.996,25.122-55.996,56.113s25.07,56.114,55.996,56.114h43.71C95.803,502.555,70.731,477.431,70.731,446.44z"/>
<path style="opacity:0.1;enable-background:new    ;" d="M302.597,154.78v-19.781c0-8.194,6.608-14.835,14.755-14.835h-43.363
	c-8.147,0-14.755,6.641-14.755,14.835v19.781c0,8.194,6.608,14.835,14.755,14.835h43.363
	C309.205,169.616,302.597,162.974,302.597,154.78z"/>
<path style="fill:#F7EEDF;" d="M504.163,169.979c0,8.195-6.606,14.837-14.755,14.837H243.496c-8.147,0-14.755-6.641-14.755-14.837
	v-11.867c0-8.194,6.608-14.837,14.755-14.837h245.913c8.149,0,14.755,6.642,14.755,14.837V169.979z"/>
<path style="opacity:0.1;enable-background:new    ;" d="M272.104,169.979v-11.867c0-8.194,6.608-14.837,14.755-14.837h-43.363
	c-8.147,0-14.755,6.642-14.755,14.837v11.867c0,8.195,6.608,14.837,14.755,14.837h43.363
	C278.712,184.816,272.104,178.174,272.104,169.979z"/>
<path d="M416.314,287.921c0-27.684-22.368-50.206-49.863-50.206c-27.493,0-49.86,22.523-49.86,50.206
	c0,27.685,22.367,50.207,49.86,50.207C393.946,338.128,416.314,315.606,416.314,287.921z M332.265,287.921
	c0-19.042,15.336-34.533,34.187-34.533c18.852,0,34.189,15.491,34.189,34.533c0,19.042-15.337,34.534-34.189,34.534
	C347.601,322.455,332.265,306.962,332.265,287.921z"/>
<path d="M489.408,135.438h-7.902v-0.439c0-12.502-10.134-22.672-22.592-22.672h-69.41V14.704c0-7.22-5.869-13.095-13.083-13.095
	h-19.938c-7.215,0-13.084,5.874-13.084,13.095v97.623h-69.41c-12.456,0-22.592,10.17-22.592,22.672v0.439h-7.903
	c-12.457,0-22.592,10.171-22.592,22.673v11.867c0,12.502,10.134,22.673,22.592,22.673h2.634l14.654,149.312H43.094
	C19.332,341.964,0,361.329,0,385.132c0,16.712,9.537,31.224,23.439,38.393c-2.738,7.119-4.255,14.841-4.255,22.916
	c0,35.262,28.635,63.951,63.833,63.951h178.206c4.328,0,7.837-3.508,7.837-7.837s-3.509-7.837-7.837-7.837H83.017
	c-26.555,0-48.159-21.658-48.159-48.277c0-26.619,21.604-48.276,48.159-48.276h29.832c4.328,0,7.837-3.508,7.837-7.837
	s-3.509-7.837-7.837-7.837H83.017c-21.55,0-40.625,10.763-52.188,27.195c-8.973-4.522-15.155-13.818-15.155-24.553
	c0-15.16,12.301-27.495,27.42-27.495h335.98c15.12,0,27.42,12.335,27.42,27.495c0,10.735-6.183,20.031-15.155,24.553
	c-11.564-16.432-30.64-27.195-52.188-27.195H145.24c-4.328,0-7.837,3.508-7.837,7.837s3.509,7.837,7.837,7.837h193.91
	c26.555,0,48.159,21.658,48.159,48.276c0,26.621-21.604,48.277-48.159,48.277h-39.264c-4.328,0-7.837,3.508-7.837,7.837
	s3.509,7.837,7.837,7.837h39.264c19.191,0,36.417-8.54,48.128-22.011h49.997c11.673,0,21.338-8.791,22.482-20.449l27.017-275.278
	h2.635c12.457,0,22.592-10.171,22.592-22.673v-11.867C512,145.609,501.866,135.438,489.408,135.438z M359.073,17.283h14.759v95.044
	h-14.759V17.283z M311.367,287.921c0-30.564,24.711-55.431,55.085-55.431c30.375,0,55.087,24.866,55.087,55.431
	c0,26.343-18.362,48.436-42.879,54.043h-24.414C329.728,336.357,311.367,314.264,311.367,287.921z M444.158,466.4
	c-0.353,3.594-3.312,6.306-6.884,6.306h-39.947c3.622-8.02,5.656-16.908,5.656-26.267c0-8.075-1.517-15.797-4.255-22.916
	c13.902-7.169,23.439-21.681,23.439-38.393c0-15.106-7.792-28.416-19.555-36.132c20.699-12.421,34.6-35.143,34.6-61.08
	c0-39.207-31.743-71.104-70.76-71.104c-39.016,0-70.758,31.897-70.758,71.104c0,21.616,9.657,40.994,24.854,54.043h-44.014
	l-14.654-149.312h209.146L444.158,466.4z M496.327,169.979c0,3.86-3.103,7-6.918,7H243.496c-3.814,0-6.918-3.14-6.918-7v-11.867
	c0-3.86,3.103-7,6.918-7h167.149c4.328,0,7.837-3.508,7.837-7.837c0-4.329-3.509-7.837-7.837-7.837H267.071V135
	c0-3.859,3.103-6.999,6.918-6.999h184.926c3.815,0,6.918,3.14,6.918,6.999v0.439h-17.572c-4.328,0-7.837,3.508-7.837,7.837
	c0,4.329,3.509,7.837,7.837,7.837h41.147c3.815,0,6.918,3.14,6.918,7V169.979z"/>
</svg>