<!-- icon666.com - MILLIONS vector ICONS FREE --><svg viewBox="-17 0 512 512.02128" xmlns="http://www.w3.org/2000/svg"><path d="m144.375 206.816406-9.488281-8.90625-6.914063-1.195312-34.132812-5.375-51.199219-8.109375-13.484375-2.21875c-2.359375-9.199219-3.5625-18.660157-3.582031-28.160157-.070313-48.152343 30.648437-90.964843 76.289062-106.324218 2.5-.820313 5.238281-.445313 7.421875 1.023437 2.1875 1.46875 3.570313 3.859375 3.753906 6.488281.855469 10.324219 1.878907 20.5625 3.160157 30.804688.082031.339844.082031.679688.167969 1.023438v.339843c2.84375 22.785157 6.742187 45.398438 11.691406 67.839844 2.558594 11.519531 5.375 23.042969 8.449218 34.390625v.253906c0 3.246094 7.527344 14.96875 7.867188 18.125zm0 0" fill="#ffc17d" style="fill: rgb(255, 151, 41);"></path><path d="m469.222656 188.863281-31.832031 291.671875c-1.351563 13.03125-12.328125 22.9375-25.429687 22.953125h-346.109376c-13.101562-.015625-24.078124-9.921875-25.429687-22.953125l-31.828125-291.671875c-.289062-2.621093.65625-5.230469 2.566406-7.054687 1.90625-1.820313 4.554688-2.652344 7.160156-2.246094l10.835938 1.707031 13.484375 2.132813 51.199219 8.023437 34.132812 5.375 6.914063 1.109375 2.132812.339844 2.304688.34375 39.847656 6.226562h.085937v4.269532c0 30.71875 10.15625 51.964844 34.050782 60.15625 8.253906 2.722656 16.910156 4.023437 25.597656 3.84375h.425781c8.550781.175781 17.066407-1.125 25.175781-3.84375 10.933594-3.453125 20.109376-11.003906 25.597657-21.074219l.085937-.085937c6.046875-12.082032 8.921875-25.5 8.363282-38.996094v-4.269532h.085937l25.769531-4.007812 25.429688-4.011719 25.941406-4.097656 8.191406-1.277344 51.199219-8.023437 24.320313-3.839844c1.46875-.261719 2.984374-.085938 4.351562.511719 3.589844 1.359375 5.800781 4.976562 5.378906 8.789062zm0 0" fill="#eb6371"></path><path d="m298.640625 375.488281c.019531 2.839844-.265625 5.671875-.855469 8.449219-4.691406 24.234375-29.269531 42.75-58.878906 42.75s-54.1875-18.515625-58.878906-42.75c-1.136719-5.574219-1.136719-11.324219 0-16.898438 4.691406-24.234374 29.269531-42.75 58.878906-42.75s54.1875 18.515626 58.878906 42.75c.589844 2.777344.875 5.609376.855469 8.449219zm0 0" fill="#fdd267" style="fill: rgb(210, 173, 81);"></path><path d="m206.308594 83.476562c-1.109375.425782-2.21875.855469-3.328125 1.367188-40.421875 18.207031-66.429688 58.40625-66.472657 102.738281v.855469c-3.074218-11.347656-5.890624-22.871094-8.449218-34.390625-4.949219-22.441406-8.847656-45.054687-11.691406-67.839844v-.339843c-.085938-.792969-.085938-1.597657 0-2.390626 4.632812-29.402343 20.746093-55.769531 44.800781-73.300781 2.140625-1.519531 4.863281-1.972656 7.378906-1.222656s4.546875 2.617187 5.507813 5.0625c8.957031 22.1875 18.941406 43.863281 29.949218 65.023437v.085938zm0 0" fill="#fab864" style="fill: rgb(254, 164, 47);"></path><path d="m463.84375 179.820312c-1.367188-.597656-2.882812-.777343-4.351562-.515624l-24.320313 3.925781-51.199219 8.109375-8.191406 1.277344c6.492188-10.332032 11.25-21.660157 14.082031-33.535157.511719-2.21875.9375-4.4375 1.363281-6.742187.339844-1.707032.597657-3.410156.769532-5.117188.25-1.585937.421875-3.179687.511718-4.78125.199219-1.640625.3125-3.292968.339844-4.949218.171875-3.238282.171875-6.488282 0-9.726563.015625-.769531-.015625-1.539063-.085937-2.304687-.085938-.683594-.085938-1.449219-.167969-2.21875v-.253907l-.257812-2.816406c-.195313-1.808594.195312-3.632813 1.109374-5.207031 7.679688-12.714844 14.960938-25.65625 21.84375-38.828125 1.203126-2.363281 3.4375-4.03125 6.046876-4.519531 2.609374-.484376 5.292968.273437 7.265624 2.046874 29.683594 26.667969 43.082032 67.027344 35.242188 106.15625zm0 0" fill="#fab864" style="fill: rgb(254, 164, 47);"></path><path d="m297.703125 100.289062v.085938c-.511719 2.386719-.941406 4.863281-1.453125 7.25-20.996094 7.378906-39.265625 20.945312-52.394531 38.914062-1.449219 1.875-2.816407 3.839844-4.09375 5.886719.167969-3.753906.339843-7.421875.597656-11.09375 1.109375-18.601562 2.984375-37.035156 5.542969-55.550781.375-2.59375-.453125-5.214844-2.246094-7.121094-1.792969-1.910156-4.359375-2.898437-6.96875-2.691406-10.441406.992188-20.675781 3.523438-30.378906 7.507812l-2.304688-4.351562v-.085938c3.839844-20.648437 6.742188-41.300781 8.789063-62.207031.222656-2.636719 1.652343-5.023437 3.871093-6.460937 2.222657-1.433594 4.984376-1.761719 7.480469-.878906 39.589844 14.097656 67.980469 49.140624 73.558594 90.796874zm0 0" fill="#ffc17d" style="fill: rgb(255, 151, 41);"></path><path d="m245.902344 85.78125c-2.558594 18.515625-4.433594 36.949219-5.542969 55.550781-.257813 3.671875-.429687 7.339844-.597656 11.09375v.511719c-11.726563 17.902344-17.957031 38.847656-17.921875 60.246094v.171875c0 2.816406.085937 5.632812.339844 8.445312 1.339843 18.261719 7.238281 35.894531 17.152343 51.289063h-.425781c-8.6875.179687-17.34375-1.121094-25.597656-3.84375-23.894532-8.191406-34.050782-29.4375-34.050782-60.15625v-4.269532h-.085937l-39.847656-6.226562c-.941407-3.328125-1.878907-6.574219-2.816407-9.902344v-1.109375c.042969-44.332031 26.050782-84.53125 66.472657-102.738281 1.109375-.511719 2.21875-.941406 3.328125-1.367188 9.703125-3.984374 19.9375-6.515624 30.378906-7.507812 2.609375-.207031 5.175781.78125 6.96875 2.691406 1.792969 1.90625 2.621094 4.527344 2.246094 7.121094zm0 0" fill="#f2a95a" style="fill: rgb(253, 176, 93);"></path><path d="m331.238281 111.722656c-4.109375 29.527344-6.386719 59.28125-6.828125 89.089844l-25.769531 4.007812h-.085937v4.269532c.558593 13.496094-2.316407 26.914062-8.363282 38.996094l-.085937.085937c-5.488281 10.070313-14.664063 17.621094-25.597657 21.074219-8.109374 2.71875-16.625 4.019531-25.175781 3.84375-9.914062-15.394532-15.8125-33.027344-17.152343-51.289063-.253907-2.8125-.339844-5.628906-.339844-8.445312v-.171875c-.035156-21.398438 6.195312-42.34375 17.921875-60.246094v-.511719c1.277343-2.046875 2.644531-4.011719 4.09375-5.886719 13.128906-17.96875 31.398437-31.535156 52.394531-38.914062.65625-.300781 1.34375-.53125 2.046875-.679688 7.695313-2.578124 15.652344-4.296874 23.726563-5.121093 2.625-.21875 5.210937.78125 7.007812 2.714843 1.796875 1.929688 2.609375 4.578126 2.207031 7.183594zm0 0" fill="#fab864" style="fill: rgb(254, 164, 47);"></path><path d="m392.847656 127.765625c.171875 3.238281.171875 6.488281 0 9.726563-.085937 1.621093-.171875 3.328124-.339844 4.949218-.089843 1.601563-.261718 3.195313-.511718 4.78125-.171875 1.707032-.429688 3.410156-.769532 5.117188-.425781 2.304687-.851562 4.523437-1.363281 6.742187-2.832031 11.875-7.589843 23.203125-14.082031 33.535157l-25.941406 4.097656-25.429688 4.097656c.441406-29.808594 2.71875-59.5625 6.828125-89.089844.402344-2.605468-.410156-5.253906-2.207031-7.183594-1.796875-1.933593-4.382812-2.933593-7.007812-2.714843-8.074219.824219-16.03125 2.542969-23.726563 5.121093-.167969-2.21875-.339844-4.4375-.59375-6.570312v-.085938c4.09375-21.847656 7.335937-43.949218 9.46875-66.21875.242187-2.628906 1.679687-4.996093 3.890625-6.429687 2.214844-1.429687 4.964844-1.765625 7.460938-.910156 39.535156 14.054687 67.898437 49.035156 73.472656 90.625.160156.929687.273437 1.871093.339844 2.816406l.257812 2.816406v.253907c.082031.769531.082031 1.535156.167969 2.21875.070312.765624.101562 1.535156.085937 2.304687zm0 0" fill="#f2a95a" style="fill: rgb(253, 176, 93);"></path><g fill="#232323"><path d="m451.992188 425.398438c.511718-4.6875-2.875-8.898438-7.558594-9.410157-4.6875-.511719-8.902344 2.871094-9.414063 7.558594l-6.109375 56.089844c-.894531 8.691406-8.210937 15.300781-16.949218 15.316406h-346.109376c-8.753906-.015625-16.074218-6.652344-16.949218-15.359375l-19.675782-180.351562c-.511718-4.6875-4.726562-8.070313-9.414062-7.558594-4.6875.511718-8.070312 4.722656-7.558594 9.410156l19.683594 180.328125c1.773438 17.394531 16.429688 30.617187 33.914062 30.597656h346.109376c17.472656.023438 32.125-13.183593 33.914062-30.566406zm0 0" fill="#232323"></path><path d="m15.121094 248.707031c4.675781-.507812 8.058594-4.707031 7.558594-9.386719l-5.691407-51.300781 100.925781 15.847657 17.746094 2.839843c.222656 0 .445313 0 .667969.050781l1.511719.238282.167968.050781 32.75 5.121094c.746094 34.464843 14.105469 56.378906 39.707032 65.160156 9.304687 3.074219 19.070312 4.527344 28.867187 4.292969 9.484375.199218 18.933594-1.242188 27.921875-4.265625 12.726563-4.066407 23.441406-12.800781 29.996094-24.441407.140625-.203124.273438-.414062.390625-.628906 6.339844-12.410156 9.5625-26.175781 9.386719-40.109375l18.664062-2.890625h.050782l19.257812-3.074218 115.773438-18.277344-19.625 179.695312c-.332032 3.03125.980468 6.011719 3.441406 7.8125 2.457031 1.800782 5.695312 2.15625 8.484375.925782 2.792969-1.230469 4.714843-3.855469 5.046875-6.886719l19.625-179.71875c.515625-4.976563-1.167969-9.929688-4.609375-13.5625 6.261719-40.519531-8.335938-81.460938-38.816407-108.882813-3.929687-3.53125-9.277343-5.042968-14.472656-4.09375-5.199218.949219-9.664062 4.253906-12.089844 8.949219-4.054687 7.679687-8.167968 15.152344-12.296874 22.414063-11.507813-35.515626-38.953126-63.613282-74.191407-75.945313-4.972656-1.722656-10.460937-1.054687-14.875 1.8125-4.414062 2.863281-7.257812 7.605469-7.710937 12.847656-.921875 9.601563-2.144532 19.449219-3.523438 29.390625-13.648437-28.683594-38.183594-50.726562-68.15625-61.238281-4.964844-1.757813-10.460937-1.128906-14.898437 1.707031-4.433594 2.835938-7.3125 7.558594-7.800781 12.800782-1.160157 11.820312-2.679688 23.585937-4.402344 35.269531-6.332032-13.320313-12.417969-26.777344-17.921875-40.390625-1.921875-4.917969-6.019531-8.664063-11.09375-10.136719-5.050781-1.507813-10.519531-.5625-14.769531 2.5625-15.535157 11.257813-28.125 26.097656-36.695313 43.261719-3.859375-7.324219-12.464844-10.761719-20.308594-8.113282-15.488281 5.121094-29.746093 13.40625-41.863281 24.328126-2.324219 2.019531-3.378906 5.136718-2.757812 8.15625.621093 3.015624 2.820312 5.464843 5.753906 6.40625 2.929687.941406 6.144531.226562 8.402344-1.867188 10.371093-9.351562 22.597656-16.40625 35.882812-20.699219.914062 11.09375 1.964844 21.332031 3.285156 31.65625v.230469l.050782.632812c2.808593 22.65625 6.777343 45.746094 11.828124 68.640626 1.269532 5.691406 2.589844 11.328124 3.960938 16.914062.496094 2.015625 1.015625 3.960938 1.519531 5.972656.785157 3.089844 1.550781 6.214844 2.355469 9.234375l-91.359375-14.507812c-4.511719-22.128907-1.675781-45.128907 8.082031-65.5 1.566406-2.777344 1.460938-6.195313-.285156-8.863281-1.742188-2.671876-4.824219-4.148438-7.996094-3.828126-3.175781.320313-5.902344 2.378907-7.078125 5.34375-10.640625 21.839844-14.234375 46.445313-10.292969 70.417969-5.082031-.519531-10.125 1.292969-13.714843 4.921875-3.589844 3.632813-5.34375 8.699219-4.769531 13.773438l5.609374 51.363281c.503907 4.683594 4.710938 8.070313 9.394532 7.566406zm172.671875-39.617187v-4.269532c-.03125-4.273437-3.203125-7.878906-7.441407-8.445312l-34.328124-5.394531-.984376-3.464844c0-1.921875.128907-3.839844.238282-5.75.042968-.8125 0-1.613281.09375-2.425781.222656-2.746094.566406-5.511719 1.007812-8.335938 5.382813-34.699218 28.078125-64.261718 60.210938-78.421875.921875-.433593 1.851562-.777343 2.773437-1.132812l.1875-.078125c8.898438-3.683594 18.308594-5.964844 27.90625-6.765625-2.671875 19.300781-4.515625 37.679687-5.605469 56.121093-.121093 1.640626-.214843 3.277344-.308593 4.96875-.070313 1.347657-.144531 2.796876-.214844 4.265626v.359374c-.65625 1.046876-1.226563 2.140626-1.851563 3.207032-.714843 1.230468-1.46875 2.441406-2.132812 3.695312s-1.210938 2.433594-1.808594 3.644532c-.597656 1.210937-1.289062 2.558593-1.867187 3.820312-.582031 1.265625-1.035157 2.5625-1.554688 3.789062-.519531 1.230469-1.09375 2.5625-1.570312 3.910157-.476563 1.347656-.851563 2.679687-1.324219 4.019531-.46875 1.339844-.851562 2.558594-1.253906 3.863281-.398438 1.308594-.734375 2.886719-1.082032 4.328125-.316406 1.246094-.667968 2.484375-.929687 3.746094-.34375 1.5625-.574219 3.15625-.855469 4.734375-.195312 1.160156-.441406 2.3125-.605468 3.484375-.253907 1.816406-.410157 3.652344-.578126 5.484375-.09375.957031-.242187 1.914063-.300781 2.867187-.203125 2.78125-.304687 5.597657-.304687 8.441407 0 3.070312.09375 6.152343.363281 9.070312.347656 4.359375.9375 8.695313 1.777344 12.988281.230469 1.246094.511719 2.472657.785156 3.710938.734375 3.3125 1.605469 6.582031 2.617187 9.8125.328126 1.058594.617188 2.125.976563 3.167969 1.277344 3.792969 2.753906 7.519531 4.417969 11.160156l-.851563-.171875c-2.476562-.46875-4.914062-1.109375-7.296875-1.917969-19.054687-6.527343-28.304687-23.5625-28.304687-52.085937zm102.230469-4.269532v4.269532c.503906 11.84375-1.902344 23.628906-7.007813 34.328125-.136719.203125-.257813.417969-.382813.640625-4.492187 8.238281-12.027343 14.390625-20.992187 17.152344-2.394531.820312-4.84375 1.46875-7.332031 1.9375-.546875.109374-1.089844.230468-1.65625.324218-2.660156.453125-5.34375.753906-8.035156.902344h-.386719c-.765625-1.332031-1.535157-2.660156-2.242188-4.027344-.710937-1.367187-1.554687-2.933594-2.246093-4.445312-1.015626-2.210938-1.875-4.488282-2.738282-6.765625-.554687-1.496094-1.167968-2.972657-1.707031-4.492188-.800781-2.507812-1.425781-5.074219-2.03125-7.679687-.324219-1.347656-.734375-2.667969-.996094-4.027344-.785156-3.945312-1.328125-7.933594-1.632812-11.945312-.230469-2.558594-.304688-5.121094-.304688-7.832032-.035156-19.742187 5.710938-39.058594 16.527344-55.570312.289063-.488282.523437-1.007813.699219-1.546875.972656-1.492188 1.957031-2.949219 3.132812-4.46875 10.648438-14.582031 24.980469-26.066407 41.53125-33.28125 2.226563-.957031 4.480469-1.84375 6.777344-2.636719.082031 0 .160156-.09375.246094-.128906.085937-.03125.351562-.144532.539062-.203125l1.191406-.332031c7.042969-2.398438 14.355469-3.90625 21.769532-4.488282-.996094 7.171875-1.882813 14.367188-2.660156 21.585938-.28125 2.5625-.488282 5.121094-.734376 7.683594-.460937 4.640624-.921874 9.292968-1.289062 13.941406-.238281 3.054687-.417969 6.101562-.613281 9.148437-.28125 4.1875-.566407 8.378907-.777344 12.5625-.15625 3.15625-.25 6.296875-.367187 9.445313-.101563 2.839844-.265626 5.683594-.332032 8.53125l-18.296875 2.878906c-4.375.4375-7.703125 4.132812-7.679687 8.53125zm132.894531-124.789062c25.535156 22.972656 38.144531 57.03125 33.726562 91.09375l-65.367187 10.410156c.128906-.273437.214844-.566406.332031-.855468.921875-2.132813 1.707031-4.316407 2.519531-6.5.390625-1.078126.851563-2.136719 1.195313-3.226563 1.089843-3.277344 2.054687-6.597656 2.855469-9.976563.539062-2.328124.984374-4.675781 1.410156-6.960937.390625-1.980469.691406-3.953125.851562-5.503906.292969-1.90625.496094-3.808594.566406-5.207031.195313-1.910157.382813-3.917969.375-5.375.171876-3.390626.171876-6.785157 0-10.171876v-.214843c0-.410157 0-.851563 0-1.332031v-.160157c0-.632812-.070312-1.339843-.15625-2.246093l-.066406-.648438c0-.253906 0-.664062 0-.921875l-.246094-2.824219v-.152344c7.300782-12.253906 14.71875-25.421874 22.003907-39.226562zm-107.210938-45.253906c36.699219 12.941406 62.964844 45.464844 67.898438 84.0625.117187.6875.195312 1.382812.238281 2.082031l.222656 2.320313c0 .316406.0625 1.253906.09375 1.5625 0 .613281.078125 1.226562.128906 1.585937.027344.457031.027344.917969 0 1.375v.433594c.164063 2.953125.164063 5.910156 0 8.859375-.078124 1.46875-.152343 3.039062-.332031 4.921875-.078125 1.265625-.214843 2.5625-.488281 4.371093-.144531 1.492188-.371094 2.976563-.671875 4.445313-.402344 2.183594-.804687 4.265625-1.265625 6.304687-.617188 2.59375-1.339844 5.15625-2.164062 7.679688-.273438.855469-.597657 1.707031-.855469 2.492188-.589844 1.707031-1.195313 3.355468-1.867188 5.011718-.394531.945313-.855469 1.875-1.246093 2.816406-.675782 1.507813-1.359376 3.011719-2.109376 4.488282-.46875.945312-.980468 1.882812-1.492187 2.8125-.511719.933594-.921875 1.625-1.382813 2.425781l-37.164062 5.914063c.0625-2.203126.113281-4.402344.199219-6.605469.109375-2.894531.21875-5.785157.375-8.679688.210937-4.265625.484375-8.53125.785156-12.859375.179687-2.652344.347656-5.316406.5625-7.976562.375-4.796875.851563-9.59375 1.320313-14.386719.214843-2.167969.394531-4.328125.632812-6.496094.757812-6.960937 1.609375-13.910156 2.558594-20.839843.746094-5.246094-.957032-10.550782-4.613282-14.386719-.851562-.878907-1.796874-1.667969-2.816406-2.34375-.316406-.214844-.65625-.359375-.992187-.546875-.707031-.433594-1.449219-.808594-2.21875-1.128906-.417969-.160157-.851563-.261719-1.285157-.398438-.722656-.230469-1.457031-.414062-2.203124-.546875-.488282-.078125-.972657-.101563-1.46875-.144531-.496094-.042969-.851563-.128906-1.320313-.128906-.472656 0-1.09375 0-1.640625.078124-4.527344.476563-9.023438 1.207032-13.464844 2.191407-.144531 0-.289062 0-.433594.070312 3.726563-20.71875 6.558594-41.125 8.480469-60.835937zm-94.386719-17.230469c36.191407 12.753906 62.296876 44.574219 67.726563 82.5625l-.230469 1.175781c-.5.199219-.972656.460938-1.472656.667969-2.542969 1.046875-5.046875 2.183594-7.503906 3.414063-.722656.355468-1.457032.679687-2.175782 1.046874-3.09375 1.621094-6.109374 3.378907-9.042968 5.265626-.667969.417968-1.289063.855468-1.945313 1.332031-2.277343 1.523437-4.5 3.132812-6.675781 4.820312-.851562.683594-1.707031 1.375-2.558594 2.082031-2.046875 1.707032-4.035156 3.464844-5.972656 5.292969-.4375.40625-.914062.765625-1.339844 1.183594.210938-2.558594.375-5.121094.613282-7.636719.222656-2.355468.4375-4.703125.683593-7.074218.851563-8.132813 1.792969-16.316407 2.960938-24.746094.925781-6.507813-1.957031-12.96875-7.414063-16.632813-.445312-.277343-.90625-.535156-1.375-.765625-.554687-.316406-1.125-.601562-1.707031-.855468-.601563-.226563-1.214844-.417969-1.835937-.578126-.519532-.144531-1.03125-.292968-1.5625-.394531-.621094-.097656-1.246094-.160156-1.875-.1875-.359376 0-.699219-.101562-1.058594-.101562-.535156-.003907-1.070313.019531-1.605469.078125-3.371094.324218-6.707031.851562-10.015625 1.449218-.949219.171876-1.886719.382813-2.835938.589844-2.472656.515625-4.925781 1.117188-7.355468 1.800782-.554688.152343-1.132813.246093-1.707032.40625 3.015626-17.757813 5.480469-35.882813 7.28125-54.195313zm-55.175781-.339844c8.53125 21.078125 18.0625 41.976563 28.429688 62.164063-2.105469 1.042968-4.09375 2.261718-6.117188 3.414062-1.03125.589844-2.105469 1.117188-3.121093 1.707032-3.8125 2.335937-7.496094 4.878906-11.027344 7.621093-.851563.664063-1.628906 1.398438-2.464844 2.089844-2.652344 2.183594-5.222656 4.464844-7.679688 6.828125-1.074218 1.058594-2.109374 2.132812-3.140624 3.226562-2.183594 2.3125-4.269532 4.710938-6.253907 7.191407-.855469 1.066406-1.75 2.097656-2.5625 3.191406-2.671875 3.535156-5.148437 7.214844-7.414062 11.027344-.265625.441406-.460938.910156-.71875 1.355469-1.964844 3.453124-3.765625 7.007812-5.390625 10.667968-.597656 1.328125-1.117188 2.6875-1.707032 4.042969-.589843 1.355469-1.273437 2.882813-1.800781 4.378906-1.296875-6.121093-2.464843-12.210937-3.601562-18.3125-.65625-3.515625-1.417969-7.058593-2.011719-10.558593-1.820312-10.648438-3.414062-21.195313-4.695312-31.460938.011718-.390625-.015626-.785156-.085938-1.167969 4.25-27.085937 19.140625-51.347656 41.363281-67.40625zm0 0" fill="#232323"></path><path d="m85.308594 460.820312c-4.714844 0-8.535156 3.820313-8.535156 8.535157 0 4.710937 3.820312 8.53125 8.535156 8.53125h17.066406c4.710938 0 8.53125-3.820313 8.53125-8.53125 0-4.714844-3.820312-8.535157-8.53125-8.535157zm0 0" fill="#232323"></path><path d="m366.90625 469.355469c0 4.710937 3.820312 8.53125 8.535156 8.53125h17.066406c4.710938 0 8.53125-3.820313 8.53125-8.53125 0-4.714844-3.820312-8.535157-8.53125-8.535157h-17.066406c-4.714844 0-8.535156 3.820313-8.535156 8.535157zm0 0" fill="#232323"></path><path d="m136.507812 460.820312c-4.714843 0-8.535156 3.820313-8.535156 8.535157 0 4.710937 3.820313 8.53125 8.535156 8.53125h204.800782c4.710937 0 8.53125-3.820313 8.53125-8.53125 0-4.714844-3.820313-8.535157-8.53125-8.535157zm0 0" fill="#232323"></path><path d="m366.90625 366.953125h-60.507812c-4.761719-28.890625-33.171876-51.199219-67.492188-51.199219s-62.726562 22.308594-67.488281 51.199219h-60.511719c-4.710938 0-8.53125 3.820313-8.53125 8.535156 0 4.710938 3.820312 8.53125 8.53125 8.53125h60.511719c4.761719 28.894531 33.167969 51.203125 67.488281 51.203125s62.730469-22.308594 67.492188-51.203125h60.507812c4.714844 0 8.535156-3.820312 8.535156-8.53125 0-4.714843-3.820312-8.535156-8.535156-8.535156zm-128 51.203125c-28.234375 0-51.199219-19.140625-51.199219-42.667969 0-23.527343 22.964844-42.667969 51.199219-42.667969 28.238281 0 51.199219 19.140626 51.199219 42.667969 0 23.527344-22.960938 42.667969-51.199219 42.667969zm0 0" fill="#232323"></path></g></svg>