<!DOCTYPE svg PUBLIC "-//W3C//DTD SVG 1.1//EN" "http://www.w3.org/Graphics/SVG/1.1/DTD/svg11.dtd">
<!-- Uploaded to: SVG Repo, www.svgrepo.com, Transformed by: SVG Repo Mixer Tools -->
<svg version="1.1" id="Layer_1" xmlns="http://www.w3.org/2000/svg" xmlns:xlink="http://www.w3.org/1999/xlink" viewBox="0 0 297 297" xml:space="preserve" width="800px" height="800px" fill="#000000">
<g id="SVGRepo_bgCarrier" stroke-width="0"/>
<g id="SVGRepo_tracerCarrier" stroke-linecap="round" stroke-linejoin="round"/>
<g id="SVGRepo_iconCarrier"> <g> <g> <g> <circle style="fill:#D5C295;" cx="148.5" cy="148.5" r="148.5"/> </g> </g> <path style="fill:#897256;" d="M296.565,137.053l-70.348-70.348L82.5,264l28.116,28.116c12.095,3.182,24.79,4.884,37.884,4.884 c82.014,0,148.5-66.486,148.5-148.5C297,144.648,296.853,140.831,296.565,137.053z"/> <g> <path style="fill:#ff5900;" d="M97.773,116.616l-10.312,2.585c-3.313,0.831-6.673-1.182-7.503-4.495l-13.771-54.93 c-0.831-3.313,1.182-6.673,4.495-7.503l10.312-2.585c3.313-0.831,6.673,1.182,7.503,4.495l13.771,54.93 C103.099,112.426,101.087,115.785,97.773,116.616z"/> </g> <g> <path style="fill:#ff5900;" d="M209.913,132.926l-10.422-2.095c-3.349-0.673-5.518-3.933-4.845-7.282l11.159-55.519 c0.673-3.349,3.934-5.518,7.282-4.845l10.422,2.095c3.349,0.673,5.518,3.933,4.845,7.282l-11.159,55.519 C216.522,131.43,213.262,133.6,209.913,132.926z"/> </g> <g> <path style="fill:#ff5900;" d="M181.782,94.029l-10.631-0.059c-3.416-0.019-6.169-2.803-6.151-6.219l0.313-56.629 c0.019-3.416,2.803-6.17,6.219-6.151l10.631,0.059c3.416,0.019,6.169,2.803,6.15,6.219L188,87.878 C187.982,91.294,185.198,94.048,181.782,94.029z"/> </g> <g> <path style="fill:#f49343;" d="M111.352,115.5h-14.63c-3.416,0-6.185-2.769-6.185-6.185v-68.63c0-3.416,2.769-6.185,6.185-6.185 h14.63c3.416,0,6.185,2.769,6.185,6.185v68.63C117.537,112.731,114.768,115.5,111.352,115.5z"/> </g> <g> <path style="fill:#ff7300;" d="M142.339,113.405l-10.59,0.926c-3.403,0.298-6.403-2.22-6.7-5.622l-4.936-56.415 c-0.298-3.403,2.22-6.403,5.622-6.7l10.59-0.926c3.403-0.298,6.403,2.22,6.7,5.622l4.936,56.415 C148.259,110.108,145.741,113.108,142.339,113.405z"/> </g> <g> <path style="fill:#ff7300;" d="M175.854,118.261l-10.59,0.926c-3.403,0.298-6.403-2.219-6.7-5.622l-4.936-56.415 c-0.298-3.403,2.219-6.403,5.622-6.7l10.59-0.926c3.403-0.298,6.403,2.22,6.7,5.622l4.936,56.415 C181.774,114.964,179.257,117.964,175.854,118.261z"/> </g> <g> <path style="fill:#f7a059;" d="M191.077,115.15l-10.342-2.459c-3.323-0.79-5.377-4.125-4.587-7.448l13.098-55.095 c0.79-3.323,4.125-5.377,7.448-4.587l10.342,2.459c3.323,0.79,5.377,4.125,4.587,7.448l-13.098,55.095 C197.735,113.887,194.4,115.94,191.077,115.15z"/> </g> <g> <path style="fill:#f49343;" d="M81.472,118.709l-10.312,2.585c-3.313,0.831-6.673-1.182-7.503-4.495l-13.771-54.93 c-0.831-3.313,1.182-6.673,4.495-7.503l10.312-2.585c3.313-0.831,6.673,1.182,7.503,4.495l13.771,54.93 C86.798,114.518,84.785,117.878,81.472,118.709z"/> </g> <g> <path style="fill:#79302A;" d="M82.5,264L82.5,264l15.62-156.205C98.591,103.086,94.893,99,90.16,99H59.258 c-5.048,0-8.834,4.618-7.844,9.568L82.5,264z"/> </g> <g> <path style="fill:#6D2623;" d="M214.5,264L214.5,264l-15.62-156.205c-0.471-4.709,3.227-8.795,7.96-8.795h30.903 c5.048,0,8.834,4.618,7.844,9.568L214.5,264z"/> </g> <g> <path style="fill:#ff5900;" d="M155.353,102.473l-10.631-0.059c-3.416-0.019-6.169-2.803-6.151-6.219l0.313-56.629 c0.019-3.416,2.803-6.17,6.219-6.151l10.631,0.059c3.416,0.019,6.169,2.803,6.15,6.219l-0.313,56.629 C161.553,99.738,158.769,102.492,155.353,102.473z"/> </g> <g> <path style="fill:#E28305;" d="M155.735,33.474l-7.068-0.039v69.001l6.686,0.037c3.416,0.019,6.2-2.735,6.219-6.151l0.313-56.629 C161.904,36.278,159.151,33.493,155.735,33.474z"/> </g> <g> <path style="fill:#F4B65B;" d="M152.434,131.893l-10.588-0.952c-3.402-0.306-5.912-3.312-5.606-6.714l5.069-56.402 c0.306-3.402,3.312-5.912,6.714-5.607l10.588,0.952c3.402,0.306,5.912,3.312,5.606,6.714l-5.069,56.402 C158.842,129.689,155.836,132.199,152.434,131.893z"/> </g> <g> <path style="fill:#EFAC54;" d="M158.61,63.17l-9.943-0.894v69.278l3.767,0.338c3.402,0.306,6.408-2.204,6.714-5.606l5.069-56.402 C164.522,66.482,162.012,63.476,158.61,63.17z"/> </g> <g> <rect x="82.5" y="99" style="fill:#C63C22;" width="132" height="165"/> </g> <g> <rect x="148.667" y="99" style="fill:#AF2D1C;" width="65.833" height="165"/> </g> <g> <circle style="fill:#F86E51;" cx="148.5" cy="181.5" r="22"/> </g> <g> <path style="fill:#E55A42;" d="M170.5,181.5c0-12.094-9.76-21.906-21.833-21.996v43.992C160.74,203.406,170.5,193.594,170.5,181.5 z"/> </g> </g> </g>
</svg>