<!-- icon666.com - MILLIONS vector ICONS FREE --><svg id="Layer_1" enable-background="new 0 0 511.712 511.712" viewBox="0 0 511.712 511.712" xmlns="http://www.w3.org/2000/svg"><g><g><path d="m469.223 208.247c45.259-45.259 47.06-118.746 2.858-165.038-.672-.703-1.353-1.401-2.045-2.092-.691-.691-1.389-1.373-2.092-2.045-46.293-44.202-119.78-42.401-165.039 2.858l-261.255 261.255c-45.927 45.927-45.927 120.39 0 166.317 45.927 45.927 120.39 45.927 166.317 0z" fill="#f6a96c" style="fill: rgb(206, 125, 59);"></path></g><g><path d="m469.224 208.244-261.259 261.259c-22.962 22.963-53.06 34.444-83.158 34.444s-60.195-11.481-83.158-34.444c-2.385-2.385-4.644-4.842-6.774-7.383 21.83 18.447 48.806 27.67 75.775 27.67 30.098 0 60.195-11.481 83.158-34.444l261.259-261.259c43.575-43.575 46.859-113.312 7.588-159.747 1.805 1.508 3.568 3.086 5.288 4.736 1.442 1.382 2.765 2.701 4.133 4.133 44.206 46.287 42.408 119.776-2.852 165.035z" fill="#ea9b58" style="fill: rgb(117, 60, 10);"></path></g><g><path d="m437.641 199.854c4.011-4.011 5.959-9.302 5.846-14.557-.118-5.5 2.77-10.503 7.592-13.15 4.608-2.53 8.216-6.863 9.684-12.342s.51-11.035-2.216-15.53c-2.852-4.704-2.852-10.481 0-15.184 2.726-4.495 3.684-10.051 2.216-15.53s-5.076-9.812-9.684-12.342c-4.822-2.647-7.71-7.65-7.592-13.15.113-5.255-1.835-10.547-5.846-14.557s-9.302-5.959-14.557-5.846c-5.5.118-10.502-2.77-13.15-7.592-2.53-4.608-6.863-8.216-12.342-9.684s-11.035-.51-15.53 2.216c-4.704 2.852-10.481 2.852-15.184 0-4.495-2.726-10.051-3.684-15.53-2.216s-9.812 5.076-12.342 9.684c-2.647 4.822-7.65 7.71-13.15 7.592-5.255-.113-10.547 1.835-14.557 5.846-4.011 4.011-5.959 9.302-5.846 14.558.118 5.5-2.77 10.502-7.592 13.15-4.608 2.53-8.216 6.863-9.684 12.342s-.51 11.035 2.216 15.53c2.852 4.704 2.852 10.481 0 15.184-2.726 4.495-3.684 10.051-2.216 15.53s5.076 9.812 9.684 12.342c4.822 2.647 7.71 7.65 7.592 13.15-.113 5.255 1.835 10.547 5.846 14.557 4.011 4.011 9.302 5.959 14.557 5.846 5.5-.118 10.502 2.77 13.15 7.592 2.53 4.608 6.863 8.216 12.342 9.684s11.035.51 15.53-2.216c4.704-2.852 10.481-2.852 15.184 0 4.495 2.726 10.051 3.684 15.53 2.216s9.812-5.076 12.342-9.684c2.647-4.822 7.65-7.71 13.15-7.592 5.255.113 10.546-1.836 14.557-5.847z" fill="#91deb6" style="fill: rgb(71, 178, 56);"></path></g><g><path d="m425.942 186.958c-1.859 9.01-10.012 11.151-17.568 13.599-8.791 2.848-16.127 6.875-21.601 14.45-.308.426-4.35 5.955-4.197 6.042 4.396 2.499 9.74 3.341 15.013 1.932 5.479-1.472 9.811-5.082 12.338-9.69 2.654-4.82 7.652-7.709 13.152-7.588 5.259.106 10.547-1.84 14.56-5.854 4.006-4.006 5.96-9.301 5.847-14.553-.12-5.5 2.768-10.497 7.588-13.152 4.608-2.527 8.218-6.859 9.69-12.338 1.465-5.486.503-11.035-2.223-15.53-2.845-4.7-2.853-10.483.007-15.183 2.725-4.495 3.681-10.051 2.209-15.53-1.465-5.486-5.068-9.811-9.683-12.345-4.813-2.648-7.708-7.652-7.588-13.152.113-5.252-1.833-10.54-5.847-14.553-4.013-4.013-9.301-5.96-14.553-5.847-1.67.042-3.29-.205-4.818-.7 4.272 1.384 4.261 9.392 4.538 12.884.267 3.36.567 6.764 1.554 10.004 2.398 7.873 9.903 12.262 14.589 18.526 2.958 3.954 4.282 8.859 3.209 13.853-.809 3.762-4.217 6.676-5.115 10.491-1.293 5.493 2.721 9.146 4.105 14.07 1.076 3.831 1.673 8.426.147 12.222-1.487 3.698-5.549 6.659-8.692 8.886-3.431 2.431-4.666 6.205-5.359 10.308-.461 2.735-.695 5.809-1.302 8.748z" fill="#6ed5a1" style="fill: rgb(9, 98, 54);"></path></g><g><circle cx="404.333" cy="131.006" fill="#f37c7c" r="25.131" style="fill: rgb(251, 111, 111);"></circle></g><g><circle cx="338.661" cy="176.935" fill="#f37c7c" r="28.165" style="fill: rgb(251, 111, 111);"></circle></g><g><path d="m422.103 148.778c-9.811 9.811-25.723 9.811-35.541-.007-3.652-3.652-5.946-8.14-6.873-12.862 9.775 6.703 23.246 5.705 31.931-2.98 6.165-6.165 8.466-14.737 6.873-22.687 1.274.864 2.485 1.862 3.61 2.987 9.818 9.819 9.818 25.732 0 35.549z" fill="#ee6161" style="fill: rgb(211, 69, 69);"></path></g><g><path d="m358.573 196.848c-11 11-28.83 11.007-39.83.007-3.787-3.787-6.272-8.381-7.447-13.223 11.021 8.289 26.764 7.411 36.801-2.626 7.22-7.22 9.697-17.385 7.439-26.622 1.062.793 2.081 1.671 3.044 2.633 11.001 11.001 10.993 28.831-.007 39.831z" fill="#ee6161" style="fill: rgb(211, 69, 69);"></path></g><g><path d="m49.119 362.871c-7.371 6.93-17.748-3.451-10.819-10.819 7.371-6.929 17.748 3.451 10.819 10.819z" fill="#000000"></path></g><g><path d="m247.827 339.434-2.928 2.928c-41.423 41.423-93.579 65.29-147.22 71.111-29.637 3.224-59.743.93-88.732-6.968-6.311-36.403 4.594-75.207 32.703-103.316l249.663-249.662c22.814 43.385 31.657 92.201 26.521 139.791-5.762 53.381-29.096 105.205-70.007 146.116z" fill="#fed2a4"></path></g><g><path d="m247.824 339.437-2.923 2.923c-41.423 41.423-93.578 65.292-147.218 71.11-29.645 3.228-59.742.934-88.736-6.965-2.123-12.26-2.293-24.775-.517-37.07.227 4.346.715 8.671 1.458 12.968 26.707 7.27 54.433 9.386 81.728 6.413 49.415-5.358 97.463-27.344 135.623-65.504l2.697-2.697c37.686-37.686 59.176-85.423 64.478-134.597 4.275-39.569-1.947-80.05-18.652-116.943l15.551-15.551c22.814 43.384 31.655 92.204 26.523 139.793-5.761 53.385-29.098 105.206-70.012 146.12z" fill="#ffbd86" style="fill: rgb(226, 160, 106);"></path></g><g><path d="m457.625 219.839-249.663 249.663c-22.966 22.966-53.057 34.448-83.156 34.441-6.751 0-13.502-.577-20.16-1.738-7.898-28.988-10.192-59.094-6.968-88.732 5.821-53.641 29.688-105.797 71.111-147.22l2.928-2.928c40.911-40.911 92.735-64.244 146.116-70.007 47.591-5.136 96.407 3.707 139.792 26.521z" fill="#fed2a4"></path></g><g><path d="m457.629 219.839-249.664 249.664c-22.962 22.963-53.06 34.444-83.158 34.444-6.753 0-13.506-.58-20.159-1.741-1.161-4.247-2.194-8.523-3.107-12.805 3.015.241 6.045.354 9.074.354 30.105.007 60.195-11.481 83.158-34.444l244.554-244.554c6.54 2.733 12.975 5.755 19.302 9.082z" fill="#ffbd86" style="fill: rgb(226, 160, 106);"></path></g><g><path d="m404.333 163.613c8.354 0 16.708-3.179 23.067-9.539h.001c12.719-12.72 12.719-33.416-.001-46.136-12.718-12.72-33.416-12.719-46.135 0-12.719 12.72-12.719 33.416.001 46.136 6.359 6.36 14.714 9.539 23.067 9.539zm-12.474-45.08c17.251-15.859 40.799 7.715 24.948 24.947-17.16 15.899-40.839-7.808-24.948-24.947z" fill="#000000"></path><path d="m477.426 38.106c-19.298-20.775-46.68-34.566-75.025-37.77-4.105-.487-7.837 2.437-8.33 6.546-.494 4.108 2.437 7.838 6.545 8.331 90.631 10.592 128.185 123.964 63.309 187.737l-7.742 7.742c-4.237-2.111-8.525-4.09-12.854-5.95 5.09-5.298 7.806-12.234 7.648-19.606-.058-2.715 1.328-5.116 3.708-6.422 6.629-3.639 11.358-9.666 13.315-16.969 1.958-7.304.876-14.887-3.045-21.353-1.407-2.322-1.407-5.094 0-7.416 3.921-6.467 5.002-14.05 3.045-21.353-1.957-7.304-6.686-13.33-13.315-16.97-2.38-1.307-3.765-3.708-3.708-6.422.163-7.56-2.691-14.668-8.039-20.017-5.346-5.347-12.478-8.194-20.015-8.038-2.68.055-5.115-1.328-6.422-3.709-3.64-6.629-9.668-11.357-16.97-13.313-7.303-1.959-14.887-.876-21.354 3.046-2.322 1.408-5.094 1.408-7.415 0-6.466-3.922-14.05-5.005-21.354-3.047-7.303 1.957-13.329 6.686-16.97 13.315-1.307 2.38-3.664 3.77-6.422 3.708-7.348-.169-14.307 2.556-19.605 7.648-1.861-4.329-3.839-8.617-5.95-12.854l7.743-7.743c16.354-16.355 37.02-27.113 59.763-31.112 4.074-.716 6.797-4.601 6.081-8.676-.716-4.074-4.595-6.794-8.676-6.081-25.789 4.534-49.221 16.732-67.763 35.274 0 0-261.255 261.255-261.262 261.262-48.328 46.626-48.596 130.373.008 176.904 22.344 22.345 51.654 35.188 83.032 36.518.039.002.079.003.119.004 34.757 1.453 69.078-11.839 93.76-36.522.012-.012 261.255-261.255 261.255-261.255 23.325-23.325 36.526-54.323 37.169-87.283.642-32.888-12.159-64.669-34.264-88.154zm-160.831 40.703c2.429-2.43 5.669-3.725 9.099-3.654 8.286.191 15.894-4.22 19.878-11.476 1.655-3.015 4.395-5.164 7.715-6.054 3.317-.89 6.766-.398 9.707 1.386 7.078 4.293 15.874 4.292 22.952 0 2.94-1.783 6.39-2.274 9.707-1.385 3.32.889 6.06 3.039 7.715 6.053 3.985 7.257 11.637 11.689 19.878 11.477 3.467-.058 6.67 1.224 9.099 3.653 2.43 2.431 3.728 5.662 3.654 9.1-.177 8.277 4.22 15.893 11.476 19.878 3.014 1.655 5.164 4.394 6.054 7.714s.397 6.767-1.385 9.707c-4.293 7.079-4.293 15.874 0 22.953 1.782 2.94 2.275 6.387 1.385 9.707-.89 3.319-3.04 6.059-6.054 7.714-7.256 3.984-11.654 11.601-11.476 19.878.074 3.437-1.223 6.669-3.654 9.099-1.797 1.798-4.039 2.977-6.471 3.437-17.109-5.885-34.777-9.867-52.736-11.933 3.258-12.095-.304-25.535-9.263-34.339-10.309-10.309-25.406-12.963-38.192-7.983-1.83-19.927-6.014-39.531-12.522-58.452.459-2.439 1.634-4.68 3.434-6.48zm10.067 81.312c8.141-5.823 19.424-4.999 26.617 2.196 5.858 5.707 7.678 14.934 4.51 22.436-10.508-.56-21.089-.464-31.693.301.602-8.333.784-16.652.566-24.933zm-279.715 304.084c-13.685-13.685-23-30.107-27.961-47.519 23.122 5.076 46.83 6.784 70.434 5.033-1.715 23.746-.017 47.384 5.071 70.526-17.793-5.066-34.102-14.598-47.544-28.04zm155.718 0c-21.474 21.474-51.278 33.19-81.514 32.185-3.517-.117-7.028-.399-10.504-.849-6.643-26.549-8.501-53.861-5.521-81.259 1.723-15.872 5.092-31.641 10.015-46.865 1.273-3.937-.887-8.16-4.823-9.433-3.937-1.273-8.16.886-9.433 4.823-4.608 14.251-7.934 28.951-9.915 43.78-25.396 2.121-50.679.088-75.307-6.069-1.506-11.698-1.146-23.592 1.093-35.193.015-.078.032-.155.047-.232 4.296-21.766 15.161-41.383 30.656-57.116 14.21-14.427 229.775-229.775 241.795-241.795 17.7 37.506 25.147 78.82 21.687 120.428-68.137 8.476-130.769 47.285-171.525 102.055-9.72 12.933-18.285 26.805-25.324 41.378-1.794 3.714-.247 8.183 3.464 9.991 3.718 1.811 8.203.268 10.016-3.451 36.021-73.873 109.313-126.99 191.066-135.816 43.599-4.704 87.054 2.595 126.333 21.133 0-.001-242.305 242.304-242.306 242.305z" fill="#000000"></path><path d="m260.618 247.101c-6.93 7.371 3.451 17.748 10.819 10.819 6.93-7.371-3.45-17.748-10.819-10.819z" fill="#000000"></path><path d="m253.232 333.085c-2.988 2.988-2.988 7.831 0 10.819 7.374 6.931 17.747-3.453 10.819-10.819-2.988-2.988-7.832-2.988-10.819 0z" fill="#000000"></path><path d="m302.46 306.598c-2.988 2.988-2.988 7.831 0 10.819 7.374 6.931 17.747-3.453 10.819-10.819-2.987-2.988-7.831-2.988-10.819 0z" fill="#000000"></path><path d="m157.881 428.341c-6.931 7.374 3.453 17.747 10.819 10.819 6.931-7.373-3.452-17.746-10.819-10.819z" fill="#000000"></path><path d="m71.992 343.694c-6.93 7.371 3.451 17.748 10.819 10.819 6.93-7.371-3.451-17.748-10.819-10.819z" fill="#000000"></path><path d="m242.298 179.373c2.988-2.988 2.988-7.831 0-10.819s-7.832-2.988-10.819 0c-6.931 7.374 3.452 17.747 10.819 10.819z" fill="#000000"></path></g></g></svg>