<!-- icon666.com - MILLIONS vector ICONS FREE --><svg viewBox="0 0 512 512" xmlns="http://www.w3.org/2000/svg"><circle cx="256" cy="174" fill="#da8846" r="137.5"></circle><path d="m354.11 270.34a137.539 137.539 0 0 1 -230.54-133.43 14.631 14.631 0 0 1 3.46-.41h8.83a250.8 250.8 0 0 1 184.71 81.13l1.04 1.13a170.5 170.5 0 0 1 32.5 51.58z" fill="#c3773d"></path><path d="m336 125.5a30.009 30.009 0 0 0 -22.112-28.945 30 30 0 0 0 -27.888-41.055 30 30 0 0 0 -60 0 30 30 0 0 0 -27.888 41.055 30 30 0 0 0 0 57.89 30 30 0 0 0 27.888 41.055 30 30 0 0 0 60 0 30 30 0 0 0 27.888-41.055 30.008 30.008 0 0 0 22.112-28.945z" fill="#8bc932"></path><path d="m256 263a7.5 7.5 0 0 1 -7.5-7.5v-194.383a7.5 7.5 0 0 1 15 0v194.383a7.5 7.5 0 0 1 -7.5 7.5z" fill="#80b524"></path><path d="m252.315 145.638-4.607 3.806 1.489 5.781a13.011 13.011 0 0 1 -11.8 16.23l-5.965.368-2.182 5.538a13.01 13.01 0 0 1 -19.095 6.2l-5.026-3.2-5.026 3.2a13.01 13.01 0 0 1 -19.1-6.2l-2.183-5.539-5.964-.367a13.011 13.011 0 0 1 -11.8-16.231l1.489-5.78-4.607-3.806a13.01 13.01 0 0 1 0-20.061l4.607-3.806-1.489-5.781a13.011 13.011 0 0 1 11.8-16.23l5.965-.368 2.182-5.538a13.01 13.01 0 0 1 19.1-6.2l5.026 3.2 5.026-3.2a13.01 13.01 0 0 1 19.1 6.2l2.183 5.539 5.964.367a13.011 13.011 0 0 1 11.8 16.231l-1.489 5.78 4.607 3.806a13.01 13.01 0 0 1 -.005 20.061z" fill="#8b6838" style="fill: rgb(228, 168, 83);"></path><path d="m248.67 163.3a12.982 12.982 0 0 1 -11.27 8.16l-5.97.36-2.18 5.54a13.012 13.012 0 0 1 -19.09 6.21l-5.03-3.21-5.03 3.21a13.012 13.012 0 0 1 -19.09-6.21l-2.18-5.54-5.97-.37a13.006 13.006 0 0 1 -11.8-16.23l1.49-5.78-4.61-3.8a12.914 12.914 0 0 1 -4.63-8.53 250.674 250.674 0 0 1 95.36 26.19z" fill="#80633f" style="fill: rgb(112, 62, 0);"></path><path d="m393.5 174a137.5 137.5 0 0 1 -235.61 96.34 170.5 170.5 0 0 1 32.5-51.58l1.04-1.13a250.8 250.8 0 0 1 184.71-81.13h8.83a14.631 14.631 0 0 1 3.46.41 137.14 137.14 0 0 1 5.07 37.09z" fill="#c3773d"></path><circle cx="291.671" cy="163" fill="#f15d40" r="72.5"></circle><circle cx="291.671" cy="163" fill="#dc4f3c" r="45.002"></circle><circle cx="285.307" cy="140.222" fill="#ffb355" r="7.499" style="fill: rgb(242, 148, 33);"></circle><path d="m357.38 193.64a72.5 72.5 0 0 1 -133.71-5.49 250.923 250.923 0 0 1 135.71-51.09 72.327 72.327 0 0 1 -2 56.58z" fill="#dc4f3c"></path><path d="m332.46 182.02a44.982 44.982 0 0 1 -84.87-10.08q4.155-2.49 8.41-4.8a250.5 250.5 0 0 1 74.72-26.49 45.032 45.032 0 0 1 1.74 41.37z" fill="#cc4032"></path><path d="m399.949 162.726-24.349 296.227a30.035 30.035 0 0 1 -29.956 27.547h-169.92a30.028 30.028 0 0 1 -30.058-30v-112.91a169.848 169.848 0 0 1 44.727-114.83l1.042-1.13a250.77 250.77 0 0 1 184.708-81.13h8.827a15.012 15.012 0 0 1 14.979 16.226z" fill="#ffcb80" style="fill: rgb(242, 189, 115);"></path><path d="m366.334 343.59v112.91a30.028 30.028 0 0 1 -30.058 30h-169.92a30.035 30.035 0 0 1 -29.956-27.547l-24.349-296.227a15.012 15.012 0 0 1 14.979-16.226h8.827a250.77 250.77 0 0 1 184.708 81.13l1.042 1.13a169.848 169.848 0 0 1 44.727 114.83z" fill="#ffcb80" style="fill: rgb(242, 189, 115);"></path><g fill="#ffb355"><path d="m256 177.14a249.872 249.872 0 0 0 -64.565 50.49l-1.042 1.13a169.848 169.848 0 0 0 -44.727 114.83v134.66a29.883 29.883 0 0 1 -9.268-19.3l-10.398-126.53a169.824 169.824 0 0 1 44.357-103.66l1.042-1.13a249.872 249.872 0 0 1 64.565-50.49q4.944-2.7 10.02-5.17c2.3 1.12 4.6 2.28 6.863 3.48 1.059.56 2.111 1.12 3.153 1.69z" fill="#ffb355" style="fill: rgb(242, 148, 33);"></path><path d="m256 177.14q-10.294 5.61-20.039 12.17-9.74-6.555-20.039-12.17a250.761 250.761 0 0 0 -94.954-29.37 14.913 14.913 0 0 1 6.061-1.27h8.828a250.8 250.8 0 0 1 120.143 30.64z" fill="#ffb355" style="fill: rgb(242, 148, 33);"></path><circle cx="345.307" cy="228.504" r="7.499" fill="#ffb355" style="fill: rgb(242, 148, 33);"></circle><circle cx="308.671" cy="214.437" r="7.499" fill="#ffb355" style="fill: rgb(242, 148, 33);"></circle><circle cx="317.63" cy="244.718" r="7.499" fill="#ffb355" style="fill: rgb(242, 148, 33);"></circle></g><path d="m395.068 332.381-6.851 116.468a40 40 0 0 1 -39.931 37.651h-184.567a40 40 0 0 1 -39.931-37.651l-6.851-116.468a15 15 0 0 1 14.974-15.881h248.183a15 15 0 0 1 14.974 15.881z" fill="#f3eade" style="fill: rgb(255, 200, 0);"></path><path d="m382.923 466.5a39.963 39.963 0 0 1 -34.64 20h-184.56a40 40 0 0 1 -39.93-37.65l-6.87-116.63a15.009 15.009 0 0 1 14.99-15.72h15.27l7.71 131.17a20 20 0 0 0 19.97 18.83z" fill="#f1ddc8" style="fill: rgb(237, 166, 44);"></path><path d="m401.55 146.267a22.473 22.473 0 0 0 -3.917-3.364 145.026 145.026 0 0 0 -112.473-110.943 37.436 37.436 0 0 0 -58.314-.008 145.886 145.886 0 0 0 -106.076 89.623 7.5 7.5 0 1 0 13.984 5.425 130.973 130.973 0 0 1 70.329-72.6 37.572 37.572 0 0 0 -15.922 24.1 20.455 20.455 0 0 0 -15.13 12.605l-.432 1.1-1.2.073a20.511 20.511 0 0 0 -18.6 25.586l.3 1.165-.932.77a20.5 20.5 0 0 0 -7.127 19.416q-5.087-.2-10.185-.211h-8.825a22.512 22.512 0 0 0 -22.453 24.341l12.435 151.307c-.509.449-1 .919-1.471 1.416a22.588 22.588 0 0 0 -6.091 16.757l6.85 116.465a47.548 47.548 0 0 0 47.419 44.71h184.568a47.548 47.548 0 0 0 47.413-44.71l1.589-27.007a7.5 7.5 0 1 0 -14.974-.881l-1.589 27.007a32.533 32.533 0 0 1 -32.439 30.591h-184.568a32.534 32.534 0 0 1 -32.444-30.591l-6.851-116.469a7.5 7.5 0 0 1 7.487-7.94h114.76a7.5 7.5 0 1 0 0-15h-89.748a161.883 161.883 0 0 1 38.984-75.156l1.053-1.143a243.276 243.276 0 0 1 179.184-78.701h8.826a7.545 7.545 0 0 1 3.022.623l.015.006a7.528 7.528 0 0 1 2.511 1.8 7.409 7.409 0 0 1 1.956 5.683l-12.074 146.896c-.1 0-.2-.008-.307-.008h-89.172a7.5 7.5 0 0 0 0 15h89.173a7.5 7.5 0 0 1 7.487 7.94l-3.735 63.5a7.5 7.5 0 0 0 7.047 7.927c.15.009.3.013.447.013a7.5 7.5 0 0 0 7.48-7.059l3.736-63.5a22.592 22.592 0 0 0 -6.091-16.757c-.471-.5-.966-.97-1.477-1.421l12.435-151.3a22.537 22.537 0 0 0 -5.873-17.076zm-145.55-113.267a22.525 22.525 0 0 1 22.5 22.5 7.5 7.5 0 0 0 7.5 7.5 22.522 22.522 0 0 1 22.482 21.781 79.457 79.457 0 0 0 -44.172 3.043c-.274.1-.538.215-.81.317v-27.024a7.5 7.5 0 0 0 -15 0v34.526l-.3.19a20.459 20.459 0 0 0 -10.344-3.559l-1.2-.073-.432-1.1a20.51 20.51 0 0 0 -30.1-9.779l-1 .634-1-.635c-.071-.045-.145-.085-.216-.129a22.534 22.534 0 0 1 22.092-18.192 7.5 7.5 0 0 0 7.5-7.5 22.525 22.525 0 0 1 22.5-22.5zm83.579 108.618a52.492 52.492 0 0 0 -98.356 6.824 7.5 7.5 0 1 0 14.41 4.166 37.756 37.756 0 0 1 2.05-5.458 37.457 37.457 0 0 1 66.462-2.841 258.863 258.863 0 0 0 -68.145 24.325 257.52 257.52 0 0 0 -28.915-12.973 64.99 64.99 0 0 1 125.4-15.564q-6.471.603-12.906 1.521zm-176.857-1.762a5.511 5.511 0 0 1 0-8.5l4.607-3.806a7.5 7.5 0 0 0 2.486-7.652l-1.488-5.781a5.509 5.509 0 0 1 5-6.874l5.964-.368a7.5 7.5 0 0 0 6.517-4.736l2.182-5.539a5.51 5.51 0 0 1 8.087-2.628l5.026 3.2a7.5 7.5 0 0 0 8.06 0l5.026-3.2a5.509 5.509 0 0 1 8.087 2.627l2.183 5.539a7.5 7.5 0 0 0 6.516 4.736l3.437.212a80.276 80.276 0 0 0 -21.787 43.614 259.633 259.633 0 0 0 -49.237-10.211 7.52 7.52 0 0 0 -.666-.633zm23.2 82.69-1.054 1.143a176.917 176.917 0 0 0 -43.294 85.311h-9.663c-.1 0-.208.007-.312.008l-12.073-146.9a7.511 7.511 0 0 1 7.5-8.112h8.826a244.153 244.153 0 0 1 104.479 23.578 256.923 256.923 0 0 0 -54.411 44.972zm182.106-83.417a79.455 79.455 0 0 0 -42.548-48.629c-.73-.341-1.471-.647-2.208-.965a37.3 37.3 0 0 0 -16.578-35.282 130.359 130.359 0 0 1 74.535 84.747h-5.085q-4.062 0-8.118.129z" fill="#525651" style="fill: rgb(0, 0, 0);"></path><circle cx="269.04" cy="316.5" fill="#525651" r="7.5" style="fill: rgb(0, 0, 0);"></circle></svg>