<!-- icon666.com - MILLIONS vector ICONS FREE --><svg id="Capa_1" enable-background="new 0 0 512.003 512.003" viewBox="0 0 512.003 512.003" xmlns="http://www.w3.org/2000/svg"><g><g><circle cx="375.029" cy="135.87" fill="#f59705" r="128.366"></circle><path d="m304.26 65.101c46.75-46.75 120.583-49.894 170.986-9.449-2.924-3.644-6.069-7.171-9.449-10.551-50.13-50.13-131.407-50.13-181.537 0s-50.13 131.407 0 181.537c3.38 3.38 6.906 6.525 10.551 9.449-40.445-50.403-37.3-124.236 9.449-170.986z" fill="#ef7f02"></path><path d="m371.947 93.249c-9.377-9.377-9.377-24.581 0-33.959s24.581-9.377 33.959 0c2.259 2.259 3.974 4.856 5.144 7.629 10.492-2.968 22.238-.324 30.497 7.935 8.133 8.133 10.821 19.649 8.065 30.019 2.355 1.14 4.562 2.686 6.516 4.64 9.377 9.377 9.377 24.581 0 33.959s-24.581 9.377-33.959 0l-41.085-14.251z" fill="#80d261"></path><g><path d="m381.947 113.249c-9.377-9.377-9.377-24.581 0-33.959 9.377-9.377 24.581-9.377 33.959 0 2.259 2.259 3.974 4.856 5.144 7.629 10.061-2.846 21.265-.517 29.451 6.958-.663-6.943-3.637-13.707-8.954-19.024-8.258-8.258-20.004-10.903-30.497-7.935-1.171-2.773-2.885-5.37-5.144-7.629-9.377-9.377-24.581-9.377-33.959 0-9.377 9.377-9.377 24.581 0 33.959l9.137 35.972 5.395 1.871z" fill="#68ca44"></path></g><g><circle cx="321.009" cy="98.909" fill="#ea433f" r="64.033"></circle><path d="m295.731 73.631c21.569-21.569 54.688-24.516 79.435-8.878-2.493-3.944-5.44-7.684-8.878-11.122-25.006-25.006-65.55-25.006-90.556 0s-25.006 65.55 0 90.556c3.438 3.438 7.177 6.386 11.122 8.878-15.639-24.746-12.692-57.866 8.877-79.434z" fill="#e32928"></path><circle cx="321.009" cy="98.909" fill="#ea433f" r="32.017"></circle><path d="m318.37 96.27c8.913-8.913 21.771-11.466 32.951-7.673-1.528-4.504-4.082-8.737-7.673-12.327-12.503-12.503-32.775-12.503-45.278 0s-12.503 32.775 0 45.278c3.591 3.591 7.823 6.144 12.327 7.673-3.793-11.18-1.24-24.038 7.673-32.951z" fill="#e32928"></path></g><g><circle cx="411.99" cy="189.889" fill="#ea433f" r="64.033"></circle><path d="m386.711 164.611c21.569-21.569 54.688-24.516 79.435-8.878-2.493-3.944-5.44-7.684-8.878-11.122-25.006-25.006-65.55-25.006-90.556 0s-25.006 65.55 0 90.556c3.438 3.438 7.177 6.386 11.122 8.878-15.639-24.746-12.691-57.865 8.877-79.434z" fill="#e32928"></path><path d="m434.629 212.529c-12.503 12.503-37.083 18.442-49.587 5.938-12.503-12.503-8.195-38.713 4.308-51.217 12.503-12.503 32.775-12.503 45.278 0 12.504 12.504 12.504 32.775.001 45.279z" fill="#ea433f"></path><path d="m409.351 187.25c8.913-8.913 21.771-11.466 32.951-7.673-1.528-4.504-4.082-8.737-7.673-12.327-12.503-12.503-32.775-12.503-45.278 0s-16.812 38.713-4.308 51.217c3.591 3.591 8.179 5.654 13.19 6.484-2.537-12.913 2.205-28.788 11.118-37.701z" fill="#e32928"></path></g><path d="m409.246 156.959c-4.528-7.155-11.307-12.021-18.832-14.261 6.892-9.837 5.945-23.494-2.842-32.281-9.849-9.849-25.816-9.849-35.665 0-2.478 2.478-4.332 5.343-5.563 8.401-8.866-3.117-19.126-1.131-26.215 5.958-9.849 9.849-18.676 34.643-8.827 44.492 7.663 7.663 16.544 49.673 16.544 49.673 9.946 15.714 55.241-5.575 70.955-15.521 15.714-9.945 20.39-30.747 10.445-46.461z" fill="#ca2e43"></path><g><path d="m340.129 144.777c7.089-7.089 17.349-9.075 26.215-5.958 1.231-3.058 3.085-5.923 5.563-8.401 6.138-6.138 14.652-8.449 22.581-6.936-.917-4.785-3.211-9.359-6.916-13.064-9.849-9.849-25.816-9.849-35.665 0-2.478 2.478-4.332 5.343-5.563 8.401-8.866-3.117-19.126-1.131-26.215 5.958-9.849 9.849-18.676 34.643-8.827 44.492 2.069 2.069 4.227 6.645 6.275 12.22 5.78-14.413 16.685-30.846 22.552-36.712z" fill="#ac2638"></path></g><path d="m51.864 351.553 115.869 126.514 307.267-247.806c-40.083-40.083-286.036-30.911-396.184 79.237z" fill="#f59705"></path><path d="m98.816 339.498c91.179-91.179 275.413-113.166 358.902-95.299l17.282-13.938c-40.083-40.083-286.036-30.911-396.184 79.237l-26.952 42.055 23.078 25.198z" fill="#ef7f02"></path><path d="m235.324 423.55-146.087-146 193.331-239.721c5.834 5.834 12.533 15.259 19.557 27.297 69.613 119.3 40.718 271.717-66.801 358.424z" fill="#f59705"></path><g fill="#ef7f02"><path d="m299.813 61.244c-6.18-10.186-12.055-18.225-17.245-23.415l-193.332 239.721 20.005 19.993z"></path><circle cx="275.731" cy="144.187" r="16.008"></circle><circle cx="259.929" cy="264.22" r="23.642"></circle></g><g><path d="m155.026 181.956c57.607 57.607 117.847 117.847 175.454 175.454 2.829-2.829-38.839 29.258-86.271 65.393l-23.005-2.363-.149 19.969c-31.816 24.142-63.433 47.887-83.768 62.405-4.111 2.935-9.811 1.937-12.703-2.204-30.601-43.812-68.554-81.996-112.167-112.856-4.065-2.876-5.069-8.473-2.231-12.564 15.708-22.64 38.344-52.244 62.17-83.172l16.881-1.847 1.013-21.369c24.794-32.186 48.795-63.585 64.776-86.846z" fill="#ffe177"></path></g><path d="m220.746 440.408-148.391-148.391 16.881-1.846.995-21.346 153.977 153.977-12.766 9.58z" fill="#ffd23c"></path><ellipse cx="156.953" cy="356.081" fill="#ffd23c" rx="47.487" ry="54.808" transform="matrix(.707 -.707 .707 .707 -205.817 215.276)"></ellipse><path d="m138.197 337.325c15.548-15.548 40.822-16.423 61.199-3.688-2.454-3.927-5.407-7.676-8.865-11.134-21.404-21.404-53.789-23.722-72.334-5.177s-16.227 50.93 5.177 72.334c3.459 3.459 7.207 6.411 11.135 8.865-12.735-20.378-11.86-45.652 3.688-61.2z" fill="#fec304"></path><g><g><path d="m330.585 357.286c.023-.035.013-.043-.028-.028z" fill="#d8ecfe"></path><path d="m36.945 401.72c35.848-51.669 109.187-142.366 144.339-193.506l-26.259-26.259c-35.926 52.169-109.998 142.867-144.84 193.234-2.833 4.095-1.834 9.688 2.231 12.564 7.883 5.578 15.574 11.403 23.077 17.449.227-1.213.702-2.401 1.452-3.482z" fill="#ffd23c"></path><path d="m98.851 318.513c5.916-7.73 11.885-15.517 17.81-23.259l-26.429-26.429c-3.18 4.129-6.373 8.27-9.565 12.409 0 0-8.283 10.747-8.312 10.784z" fill="#fec304"></path></g></g></g><g><path d="m495.78 73.515c-1.901-3.68-6.426-5.123-10.105-3.22-3.681 1.901-5.122 6.426-3.221 10.106 18.177 35.177 17.367 75.838 1.006 108.965-.155-16.738-6.131-33.293-17.464-46.363 8.451-13.683 5.251-31.937-8.082-41.831 2.739-24.671-18.142-45.611-42.946-42.659-9.589-14.036-28.311-17.726-42.395-9.176-13.79-14.33-32.132-21.835-50.757-22.029 47.26-23.191 105.8-13.383 142.792 27.414 2.778 3.063 7.521 3.304 10.595.517 3.067-2.783 3.299-7.526.517-10.594-49.217-54.268-132.57-59.789-188.354-12.574-3.258-2.711-8.031-2.181-10.636 1.049l-51.061 63.313c-2.601 3.224-2.095 7.946 1.129 10.546 3.223 2.6 7.946 2.094 10.546-1.129l45.454-56.359c3.957 5.067 12.849 19.415 12.849 19.415 46.178 79.139 48.05 173.896 10.306 253.37l-30.864-30.864c18.163-10.138 21.35-34.724 6.861-49.213-14.456-14.454-39.041-11.352-49.211 6.863l-61.386-61.386 45.307-56.178c2.601-3.225 2.095-7.946-1.129-10.546-3.225-2.6-7.947-2.095-10.546 1.129l-44.299 54.928-.357-.357c-3.312-3.313-8.83-2.81-11.485 1.057-35.361 51.474-108.46 140.796-144.821 193.205-5.155 7.43-3.333 17.73 4.061 22.961 43.035 30.452 80.163 67.808 110.351 111.029 5.274 7.551 15.685 9.386 23.209 4.013 7.736-5.522 17.663-12.782 29.504-21.577 3.325-2.47 4.019-7.168 1.549-10.493s-7.167-4.019-10.493-1.549c-11.766 8.74-21.616 15.943-29.275 21.411-.436.311-.873.316-1.163.267-.296-.051-.717-.208-1.034-.661-31.182-44.644-69.532-83.23-113.985-114.684-.716-.507-.892-1.459-.4-2.167 14.349-20.682 35.207-48.106 56.743-76.106l27.933 27.933c-15.599 46.464 34.295 96.326 80.73 80.73l27.74 27.74c-7.051 5.341-14.055 10.634-20.889 15.78-3.31 2.491-3.972 7.193-1.481 10.502 2.492 3.309 7.193 3.973 10.503 1.481 55.407-41.714 126.562-96.614 135.965-103.292 4.714-2.149 6.112-8.411 2.395-12.225l143.721-115.91c3.471-2.798 3.744-7.993.596-11.141-.476-.476-.99-.941-1.511-1.404 35.997-42.493 41.852-101.916 16.988-150.037zm-32.693 140.576c-4.805-2.054-10.266-3.875-16.287-5.465 13.851-25.65-4.064-56.886-32.961-58.199-3.526-4.75-8.011-8.672-13.149-11.508.529-1.528.933-3.085 1.227-4.655 45.398-8.143 80.759 38.443 61.17 79.827zm-115.665-12.35c-.299-26.225-4.197-51.925-11.445-76.717 2.645-.294 5.354-.018 7.88.87 3.783 1.33 7.947-.553 9.445-4.276 4.688-11.65 19.915-14.947 28.967-5.897 6.095 6.095 6.938 15.631 2.002 22.674-2.933 4.188-.904 10.031 4.003 11.492 21.405 6.373 25.465 35.205 6.517 47.197-2.078 1.315-6.856 4.04-6.893 4.066-12.679-.386-26.242-.196-40.476.591zm-31.398-126.82c7.924-1.625 16.395.725 22.32 6.652 8.567 8.566 8.913 21.365 4.104 28.615-3.706-.518-7.459-.384-11.116.376-4.28-12.195-9.395-24.107-15.308-35.643zm-16.693-28.242c36.683-15.311 76.598 11.188 78.167 49.777-5.494-1.33-11.367-1.25-16.991.394-1.313-25.75-26.957-43.642-51.882-35.463-2.913-4.988-5.99-9.943-9.294-14.708zm121.899 120.485c15.301 6.212 20.073 25.419 9.875 38.074-6.191-1.076-12.801-1.955-19.788-2.631 8.851-9.743 12.314-23.018 9.913-35.443zm-17.089-97.327c1.473 3.486 5.312 5.33 8.951 4.299 17.551-4.964 33.993 11.038 29.271 28.811-.923 3.473.747 7.112 3.981 8.678 7.569 3.659 11.36 12.599 8.209 20.796-15.251-11.262-34.538-16.082-53.367-13.238-1.556-5.383-4.48-10.404-8.866-14.596 1.243-15.383-2.429-30.413-10.398-43.249 8.578-4.011 18.621-.016 22.219 8.499zm-132.799 182.968c8.94 8.939 4.532 24.269-7.737 27.123l-19.388-19.388c2.839-12.204 18.145-16.713 27.125-7.735zm-189.022 38.57c3.563-4.623 5.024-6.519 8.643-11.213l27.267 27.267c-3.902 2.913-7.012 6.023-9.928 9.928zm46.358 92.98c-28.394-28.395-15.597-72.057 20.949-72.057 39.875 0 67.216 50.796 40.778 77.234-15.59 15.591-43.281 13.269-61.727-5.177zm76.926 10.449 27.188 27.188-11.343 8.512-25.768-25.768c3.951-2.949 7.077-6.12 9.923-9.932zm39.272 18.059-31.993-31.993c15.575-46.392-34.206-96.337-80.72-80.72l-31.97-31.97c20.711-26.913 40.951-53.468 55.864-74.588l162.849 162.851c-13.093 9.825-41.235 31.42-74.03 56.42zm80.276-71.387-7.974-7.974c18.081-36.317 28.332-76.283 30.015-116.725 31.287-1.782 88.309-1.34 115.52 13.758z"></path><path d="m292.353 160.81c4.44-4.44 6.886-10.344 6.886-16.623 0-12.993-10.514-23.508-23.508-23.508-12.993 0-23.508 10.514-23.508 23.508 0 12.992 10.514 23.508 23.508 23.508 6.279 0 12.183-2.445 16.622-6.885zm-25.13-16.623c0-4.703 3.805-8.508 8.508-8.508 7.571 0 11.342 9.197 6.017 14.524h-.001c-1.606 1.607-3.743 2.492-6.016 2.492-4.703 0-8.508-3.805-8.508-8.508z"></path><path d="m309.823 221.822c4.132 0 7.5-3.351 7.5-7.5 0-4.046-3.241-7.492-7.527-7.492-4.06 0-7.473 3.338-7.473 7.492 0 4.093 3.326 7.5 7.5 7.5z"></path><path d="m212.553 190.902c0 4.14 3.337 7.5 7.5 7.5 4.225 0 7.5-3.452 7.5-7.5 0-3.991-3.21-7.492-7.533-7.492-4.084 0-7.467 3.328-7.467 7.492z"></path><path d="m395.714 243.929c-4.207 0-7.481 3.452-7.481 7.493 0 4.023 3.263 7.5 7.5 7.5 4.169 0 7.5-3.386 7.5-7.5 0-3.942-3.13-7.493-7.519-7.493z"></path></g></g></svg>