<!-- icon666.com - MILLIONS vector ICONS FREE --><svg id="Kebab" enable-background="new 0 0 64 64" viewBox="0 0 64 64" xmlns="http://www.w3.org/2000/svg"><g><g><path d="m49.53 29.0728c-.7696-.3092-5.7947-1.9329-9.3214-5.2806-3.3477-3.5267-4.9713-8.5518-5.2806-9.3214-2.9087-7.0518.3528-11.4674 2.7392-12.0222 2.5004-.5686 2.7493.1722 4.6492.154 2.2674-.0344 2.4693-2.2392 5.6942-1.7508 2.1372.3215 2.3361 2.4607 4.5199 3.2123 2.1078.7524 3.5867-.797 5.8948 1.5112 2.3083 2.3083.7589 3.7871 1.5113 5.8949.7516 2.1838 2.8908 2.3826 3.2123 4.5199.4883 3.2248-1.7164 3.4268-1.7508 5.6942-.0182 1.8999.7226 2.1488.154 4.6492-.5548 2.3865-4.9703 5.648-12.0221 2.7393z" fill="#2ac68d"></path><path d="m40.1318 23.6986c-3.3022-3.5143-4.9002-8.4641-5.1973-9.2277-2.0223-4.9073-1.0677-8.5206.5021-10.4722.9051.2828 1.7324.7708 2.4112 1.4496.7849.7849 1.3365 1.789 1.5769 2.8921 1.1455 5.0062 1.3859 10.1539.7071 15.3582zm18.4201 2.4537c-.7849-.7849-1.789-1.3365-2.8992-1.584-5.0063-1.1455-10.1469-1.3789-15.3513-.7 3.5143 3.3022 8.4641 4.9002 9.2348 5.2043 4.9073 2.0223 8.5348 1.0535 10.4723-.5162-.2828-.905-.7778-1.7253-1.4566-2.4041z" opacity=".09"></path><path d="m54.8066 30.999c-1.5439 0-3.4049-.3109-5.5676-1.2025l-.3353-.1257c-1.4692-.5418-5.9441-2.1909-9.2316-5.3123-3.1519-3.3172-4.801-7.7913-5.3436-9.2621l-.125-.3345c-2.0652-5.0075-1.0135-8.3971-.2027-9.9715.8383-1.6293 2.1429-2.7891 3.4887-3.1016 1.7146-.3917 2.527-.2164 3.3134-.0465.4435.0953.8276.1715 1.5058.1798.7301-.0107 1.1766-.3231 1.7405-.7179.8581-.6013 1.9204-1.3542 4.0785-1.0234 1.4007.2103 2.1429 1.0547 2.7983 1.8.5228.5944 1.0166 1.1553 1.8594 1.4456.6478.2317 1.2208.1997 1.8808.1593 1.2269-.0762 2.62-.1539 4.3102 1.5378 1.6918 1.691 1.611 3.0841 1.5394 4.3125-.0396.6607-.0732 1.2322.1555 1.8724.2926.8505.855 1.3435 1.4494 1.8655.7453.6546 1.5897 1.3969 1.8 2.8006.3246 2.1482-.4222 3.2174-1.0242 4.077-.3947.5647-.7072 1.0105-.7179 1.7444-.0061.6371.0838 1.057.1798 1.5005.1692.7864.3429 1.5996-.0457 3.3104-.3137 1.3495-1.4736 2.6542-3.1029 3.4932-.8931.4603-2.373.9983-4.4032.999zm-15.4972-27.985c-.381 0-.8398.0518-1.4708.1958-.663.1539-1.7055.8482-2.4508 2.2953-.6874 1.3344-1.5668 4.2348.2606 8.6684l.1448.3833c.5152 1.3953 2.0804 5.643 4.9808 8.6981 3.0269 2.8714 7.2746 4.4367 8.6707 4.9519l.3826.144c4.4352 1.8305 7.3341.9488 8.6677.2614 1.4479-.7445 2.1429-1.7886 2.2968-2.4554.3124-1.3702.192-1.9272.0411-2.6322-.1052-.4847-.2225-1.0334-.2149-1.848.0183-1.217.5395-1.9623.9998-2.62.5319-.7605.9922-1.4174.7605-2.9499-.1265-.8398-.6142-1.2681-1.2879-1.8602-.6874-.6043-1.4677-1.2886-1.8914-2.5224-.3323-.9305-.285-1.7535-.2423-2.4797.0655-1.1157.1128-1.9212-1.0836-3.1176-1.1964-1.1957-1.9996-1.1461-3.1168-1.0836-.7224.0442-1.547.0907-2.4874-.2446-1.2254-.4214-1.9112-1.2002-2.5148-1.8876-.5929-.6744-1.0212-1.1614-1.8594-1.2871-1.5363-.2332-2.1902.2271-2.9507.759-.6569.4595-1.4037.9815-2.6154.9998-.8002.0023-1.3671-.1097-1.8533-.2141-.381-.0822-.7193-.1546-1.1659-.1546z" fill="#09090a"></path></g><g><path d="m40.657 12.7979c3.9302.9017 15.5862 3.7872 16.4851 6.9049.8989 3.1176-3.3315 7.9104-5.313 11.2802-.8095.8188-2.027 4.4623-6.9516 3.977-5.0053-.4934-11.171-4.9635-11.1243-11.745.0413-6.0011.6235-10.6303 6.9038-10.4171z" fill="#ffd72e"></path><path d="m44.8765 34.9628c-5.0063-.495-11.1723-4.9639-11.1228-11.745.0353-6.0033.6222-10.6349 6.9013-10.4228 2.0223.4667 6.1165 1.4638 9.7227 2.7507-.0517 1.5453-.4627 3.0486-1.1914 4.3923-.3228.5953-.3837 1.2932-.1986 1.9446.0026.0092.0052.0184.0078.0276.2842 1.0109 1.1413 1.7653 2.1842 1.8881 1.5918.1873 3.1704.465 4.733.83.0008.0017.0009.002.0017.0037-1.2162 2.2062-2.9981 4.4972-4.0871 6.3498-.8061.8202-2.0294 4.4619-6.9508 3.981z" opacity=".09"></path><path d="m52.4862 19.341c-.1082 0-.2195-.0229-.3246-.0701-.3886-.1783-.6157-.6615-.4405-1.0524.1738-.3902.5761-.5929.9709-.4207.0046.0015.1143.0511.1189.0526.3917.1791.5639.6424.3856 1.0341-.1311.2873-.4146.4565-.7103.4565zm3.1123 1.3922c.3262-.282.3612-.775.0793-1.1012-.2225-.2561-.5563-.5228-1.0181-.8139-.3627-.2263-.8459-.1204-1.076.2454-.2301.365-.1204.8466.2439 1.076.4283.269.6035.4382.6706.5152.1539.1776.3719.269.5898.269.1813 0 .3627-.0624.5105-.1905z" fill="#f7f7f9"></path><path d="m45.7442 35.784c-.3018 0-.6157-.0152-.9434-.0472-5.7261-.5639-11.8759-5.5135-11.8287-12.5275.0274-3.8423.2301-7.4636 2.3913-9.5372 1.2422-1.1926 2.9781-1.7413 5.3192-1.6537l.1478.0191c7.2868 1.6712 16.1602 4.3193 17.061 7.4499.7819 2.7129-1.5897 6.1986-3.6823 9.2743-.6371.9366-1.2391 1.8213-1.7085 2.6169l-.1174.1532c-.1235.1242-.2515.333-.4146.5799-.8076 1.2231-2.4247 3.6723-6.2244 3.6723zm-5.5005-22.2125c-1.6948 0-2.94.4024-3.7996 1.2269-1.7207 1.6514-1.8869 5.0654-1.9112 8.4215-.0442 6.4798 6.0233 10.5301 10.4204 10.9622 3.542.3643 4.8497-1.6232 5.7139-2.9301.1997-.3041.3749-.5586.5319-.7369.4862-.82 1.0867-1.7009 1.7192-2.6322 1.8061-2.6527 4.0526-5.9547 3.4735-7.9635-.506-1.7596-6.7183-4.247-15.8356-6.3441-.1052-.0023-.2104-.0038-.3125-.0038z" fill="#09090a"></path></g><g><circle cx="40.401" cy="15.197" fill="#ff2727" r="8.583"></circle><circle cx="40.401" cy="15.197" fill="#ffa0a0" r="5.355"></circle><path d="m48.4615 18.1266c-1.5546-2.1693-3.875-3.7604-6.5688-4.3729-.9438-.2146-1.686-.9435-1.8194-1.9022-.1642-1.18-.3834-2.3489-.6486-3.5113-.1202-.5586-.3252-1.089-.6011-1.5769-3.988.7354-7.0074 4.2356-7.0074 8.4358 0 .4101.0283.8061.0919 1.1951.5586 4.08 4.0022 7.2407 8.2095 7.3751.0849.0142.1839.0142.2829.0142 3.7052 0 6.866-2.3547 8.061-5.6569z" opacity=".09"></path><path d="m40.4007 24.5604c-5.1622 0-9.3627-4.1997-9.3627-9.3627s4.2005-9.3634 9.3627-9.3634c5.1637 0 9.3642 4.2005 9.3642 9.3634s-4.2005 9.3627-9.3642 9.3627zm0-17.1654c-4.3026 0-7.802 3.5001-7.802 7.8027 0 4.3018 3.4994 7.802 7.802 7.802s7.8035-3.5001 7.8035-7.802c0-4.3025-3.5009-7.8027-7.8035-7.8027zm0 13.9373c-3.382 0-6.1346-2.7518-6.1346-6.1346s2.7526-6.1353 6.1346-6.1353c3.3835 0 6.1361 2.7526 6.1361 6.1353s-2.7526 6.1346-6.1361 6.1346zm0-10.7092c-2.5224 0-4.5739 2.0522-4.5739 4.5746s2.0515 4.5739 4.5739 4.5739 4.5754-2.0515 4.5754-4.5739-2.053-4.5746-4.5754-4.5746z" fill="#09090a"></path></g><g><circle cx="39.412" cy="24.589" fill="#b26029" r="8.552"></circle><path d="m41.5128 32.8948c-6.347 1.5139-11.9213-4.0605-10.4074-10.4074.9221-3.8658 4.3789-6.4752 8.3531-6.4536.337.0018.6681.023 1.0056.0635.0821 1.8665.0451 3.7479-.1162 5.6388-.0935 1.0959.8203 2.0097 1.9162 1.9162 1.8909-.1613 3.7723-.1983 5.6388-.1162.0405.3375.0617.6687.0635 1.0056.0216 3.9741-2.5879 7.431-6.4536 8.3531z" opacity=".09"></path><path d="m39.4115 33.917c-2.3898 0-4.7796-.9099-6.5994-2.7289-3.6381-3.6381-3.6381-9.5593 0-13.1981 3.6396-3.6381 9.5593-3.6381 13.1989 0 3.6381 3.6388 3.6381 9.56 0 13.1981-1.8198 1.819-4.2097 2.7289-6.5995 2.7289zm-5.4959-14.8236c-3.0299 3.0307-3.0299 7.9612 0 10.9912 3.0315 3.0307 7.9635 3.0307 10.9919 0 3.0299-3.0299 3.0299-7.9605 0-10.9912-3.0299-3.0284-7.962-3.0284-10.9919 0z" fill="#09090a"></path></g><g><path d="m4.0969 52.4034 3.7114 3.7116c3.8736 3.8737 10.2428 3.7246 13.8543-.3947 8.2338-9.3915 20.0021-26.8045 15.4289-46.846-.6264-2.7453-4.0326-3.7103-5.9454-1.644l-27.3503 29.544c-4.1146 4.4446-3.9817 11.3462.3011 15.6291z" fill="#ffc07b"></path><path d="m7.8099 56.1194-3.0264-3.0264c-3.8749-3.8749-3.7265-10.246.396-13.8592 7.0781-6.2013 18.7171-14.4179 32.6118-16.1221-1.7113 13.8876-9.9278 25.5266-16.1292 32.6047-3.6133 4.1224-9.9843 4.2709-13.8522.403z" opacity=".09"></path><path d="m14.5814 59.6989c-2.7343 0-5.387-1.0943-7.3249-3.033l-3.7112-3.7112c-4.599-4.5983-4.74-11.9384-.3216-16.7104l27.3502-29.5443c1.0844-1.1728 2.6482-1.6316 4.1921-1.2162 1.5455.413 2.7282 1.646 3.0863 3.2167 4.4504 19.5034-6.0294 36.6154-15.6032 47.5357-1.8731 2.1353-4.4779 3.3637-7.3341 3.4567-.1111.0045-.2224.006-.3336.006zm19.0781-52.8007c-.727 0-1.4205.301-1.9402.8627l-27.351 29.5442c-3.8462 4.1532-3.7227 10.5423.2804 14.5462l3.7112 3.7112c1.7116 1.7131 4.0778 2.6459 6.5042 2.5712 2.4203-.0793 4.6257-1.1187 6.2115-2.9278 9.3345-10.646 19.5583-27.297 15.2557-46.158-.2332-1.0204-.9693-1.7893-1.9692-2.056-.2347-.0632-.4709-.0937-.7026-.0937zm-1.7073 10.6722c-.431 0-.7803.3494-.7803.7803s.3494.7803.7803.7803.7803-.3494.7803-.7803-.3493-.7803-.7803-.7803zm-12.0467 8.4937c-.431 0-.7803.3494-.7803.7803 0 .431.3494.7803.7803.7803.431 0 .7803-.3494.7803-.7803.0001-.4309-.3493-.7803-.7803-.7803zm-9.6715 9.4084c-.431 0-.7803.3494-.7803.7803s.3494.7803.7803.7803c.431 0 .7803-.3494.7803-.7803s-.3493-.7803-.7803-.7803z" fill="#09090a"></path></g><g><path d="m11.5981 59.9047-3.7137-3.7135c-3.8736-3.8735-3.7244-10.2425.3947-13.8539 9.3914-8.2338 26.8047-20.0025 46.8465-15.4293 2.7452.6264 3.7181 4.0253 1.6518 5.9382-7.002 6.4821-20.7881 19.2445-29.5557 27.3611-4.4436 4.1137-11.3417 3.9791-15.6236-.3026z" fill="#ffc07b"></path><path d="m56.777 32.8486c-7.0003 6.4771-20.7889 19.2475-29.55 27.358-4.4548 4.1154-11.3491 3.981-15.627-.297l-3.1042-3.1042c4.2851 4.2851 11.1794 4.4195 15.627.297 8.7611-8.1105 22.5567-20.8738 29.5571-27.3509.8769-.8202 1.2021-1.895 1.0819-2.9204.1202.0212.2404.0566.3606.0778 2.7507.6293 3.7265 4.0234 1.6546 5.9397z" opacity=".09"></path><path d="m19.5683 64c-3.0841 0-6.1635-1.1858-8.5221-3.5436l-3.7135-3.7143c-2.0164-2.0164-3.1199-4.8071-3.0261-7.6587.0937-2.8562 1.3214-5.4594 3.4582-7.3325 10.9203-9.5745 28.03-20.0536 47.5342-15.6032 1.5744.3589 2.8089 1.5432 3.222 3.0901.4115 1.5348-.0427 3.0978-1.2132 4.1814l-29.5558 27.3619c-2.3235 2.1505-5.2559 3.2189-8.1837 3.2189zm-7.4187-4.647c4.0031 4.0023 10.3899 4.1273 14.5416.282l29.5557-27.361c.7392-.6836 1.0257-1.6674.7666-2.6329-.2667-1.0013-1.0379-1.7383-2.0621-1.9722-18.8518-4.2996-35.5104 5.9211-46.1579 15.2556-1.8084 1.5851-2.8478 3.7905-2.9271 6.2108-.08 2.4203.8573 4.7903 2.5697 6.5034zm36.3508-27.5326c-.431 0-.7803.3494-.7803.7803 0 .431.3494.7803.7803.7803.431 0 .7803-.3494.7803-.7803s-.3493-.7803-.7803-.7803zm-14.7191 3.9642c-.431 0-.7803.3494-.7803.7803 0 .431.3494.7803.7803.7803.431 0 .7803-.3494.7803-.7803s-.3493-.7803-.7803-.7803zm-4.9129 12.4902c-.431 0-.7803.3494-.7803.7803 0 .431.3494.7803.7803.7803.431 0 .7803-.3494.7803-.7803s-.3493-.7803-.7803-.7803zm-13.801-.4682c-.431 0-.7803.3494-.7803.7803 0 .431.3494.7803.7803.7803.431 0 .7803-.3494.7803-.7803s-.3493-.7803-.7803-.7803z" fill="#09090a"></path></g></g></svg>