<!-- icon666.com - MILLIONS vector ICONS FREE --><svg id="Capa_1" enable-background="new 0 0 512.001 512.001" viewBox="0 0 512.001 512.001" xmlns="http://www.w3.org/2000/svg"><g><g><path d="m137.004 119.851s-8.965-30.349 5.567-48.844 38.312-21.138 48-35.67c9.689-14.531 34.663-27.837 61.369-27.837s54.008 18.149 55.329 32.681 50.642-3.963 59.17 33.523c3.991 17.542 30.665 25.536.28 72.41s-228.55 30.581-228.55 30.581z" fill="#9ff497" style="fill: rgb(160, 226, 141);"></path><path d="m219.458 184.891h-36.146v-111.389c0-3.78 3.064-6.844 6.844-6.844h22.459c3.78 0 6.844 3.064 6.844 6.844v111.389z" fill="#ff982a"></path><path d="m194.781 205.148h-36.146v-111.389c0-3.78 3.064-6.844 6.844-6.844h22.459c3.78 0 6.844 3.064 6.844 6.844v111.389z" fill="#ffab56"></path><path d="m338.322 191.937h-36.146v-111.389c0-3.78 3.064-6.844 6.844-6.844h22.459c3.78 0 6.844 3.064 6.844 6.844v111.389z" fill="#ffab56"></path><path d="m278.89 207.79h-36.146v-111.389c0-3.78 3.064-6.844 6.844-6.844h22.459c3.78 0 6.844 3.064 6.844 6.844v111.389z" fill="#ff7383" style="fill: rgb(241, 129, 55);"></path><path d="m150.483 504.5h188.359v-182.811c0-111.472-90.366-201.837-201.837-201.837-10.615 0-19.22 8.605-19.22 19.22v332.731c0 18.058 14.639 32.697 32.698 32.697z" fill="#ffe270"></path><path d="m151.806 320.565v183.935h187.036v-182.811c0-75.245-41.179-140.864-102.226-175.574-51.615 40.698-84.81 103.769-84.81 174.45z" fill="#ffd250"></path><path d="m361.518 504.5h-188.359v-182.811c0-111.472 90.366-201.837 201.837-201.837 10.615 0 19.22 8.605 19.22 19.22v332.731c0 18.058-14.639 32.697-32.698 32.697z" fill="#ffe270"></path></g><g><path d="m260.619 22.823c-3.264-2.551-7.978-1.973-10.527 1.29-2.551 3.264-1.974 7.978 1.29 10.528l12.957 10.128c3.259 2.544 7.971 1.98 10.528-1.29 2.551-3.264 1.974-7.978-1.29-10.528z" fill="#000000"></path><path d="m401.716 471.803v-332.732c0-10.011-5.537-18.748-13.706-23.324 2.489-16.043-4.086-26.088-8.998-33.579-2.364-3.604-4.405-6.718-5.192-9.86-1.007-4.018-5.084-6.46-9.098-5.453-4.018 1.007-6.459 5.079-5.453 9.098 1.403 5.603 4.35 10.096 7.199 14.441 4.293 6.547 8.064 12.312 6.874 21.979-9.33.073-18.515.76-27.52 2.022v-33.847c0-7.908-6.435-14.343-14.343-14.343h-22.459c-1.397 0-2.744.21-4.022.584l-4.245-8.41c-1.867-3.698-6.377-5.181-10.075-3.315-3.697 1.866-5.182 6.377-3.315 10.075l7.356 14.573c-.092 1.577-.014-3.962-.042 48.672-2.794 1.165-5.555 2.393-8.286 3.674v-35.657c0-7.909-6.435-14.344-14.343-14.344h-12.328l10.622-5.784c3.638-1.981 4.98-6.536 3-10.174-1.982-3.639-6.534-4.98-10.174-3l-6.177 3.364c-.574-4.658-.812-7.466-.816-7.524-.342-4.127-3.966-7.198-8.093-6.855-4.127.342-7.197 3.963-6.856 8.09.037.449.815 9.691 3.027 22.924-5.272 2.122-9.008 7.281-9.008 13.304v40.386c-2.734-1.459-5.498-2.851-8.286-4.183v-14.967c0-4.143-3.358-7.5-7.5-7.5s-7.5 3.357-7.5 7.5v8.516c-3.198-1.228-6.423-2.382-9.677-3.449v-28.946c0-6.924-4.933-12.718-11.469-14.053v-5.547h21.146v14.479c0 4.143 3.358 7.5 7.5 7.5s7.5-3.357 7.5-7.5v-15.136c0-4.492-2.08-8.505-5.323-11.137 2.365-8.726 3.494-14.265 3.548-14.533.82-4.06-1.805-8.014-5.864-8.835-4.057-.823-8.016 1.804-8.838 5.862-.013.063-1.152 5.64-3.518 14.3h-16.806c-7.909 0-14.344 6.435-14.344 14.343v5.914h-10.333c-7.909 0-14.344 6.435-14.344 14.343v19.069c-2.697-.179-5.403-.306-8.118-.382-1.542-8.457-3.254-25.725 5.452-36.805 6.54-8.324 15.604-13.156 24.371-17.829 8.971-4.782 18.248-9.728 23.972-18.313 7.915-11.877 29.927-24.499 55.126-24.499 24.905 0 47.065 17.122 47.86 25.861.298 3.275 2.087 9.17 10.722 11.843 3.934 1.218 8.767 1.66 13.884 2.128 6.646.607 14.18 1.297 20.472 3.742 3.862 1.504 8.207-.413 9.707-4.273 1.501-3.86-.412-8.207-4.273-9.707-8.259-3.211-17.285-4.036-24.539-4.699-3.662-.335-8.98-.821-11.185-1.619-2.951-19.166-33.933-38.276-62.648-38.276-27.131 0-55.565 13.112-67.608 31.178-3.631 5.445-10.543 9.131-18.548 13.397-9.664 5.151-20.618 10.99-29.109 21.798-11.867 15.104-10.602 35.941-8.637 47.531-10.335 3.694-17.752 13.578-17.752 25.167v251.506c0 4.143 3.358 7.5 7.5 7.5s7.5-3.357 7.5-7.5v-12.68l40.375 41.073v60.917l-40.375-41.075v-19.132c0-4.143-3.358-7.5-7.5-7.5s-7.5 3.357-7.5 7.5v52.121c0 22.166 18.033 40.199 40.198 40.199 18.821 0 203.582-.001 211.036-.001 12.787 0 24.189-6.008 31.557-15.342.221-.25.43-.508.612-.779 5.038-6.714 8.027-15.052 8.027-24.075zm-215.648-195.681c4.434-18.385 11.483-35.761 20.74-51.705l179.908 183.027v64.359c0 2.55-.384 5.012-1.092 7.334zm-60.783-86.63 54.82 55.771c-7.18 18.246-11.971 38.12-13.703 58.864l-41.118-41.831v-72.804zm55.374 307.508v-110.78l108.894 110.78zm62.712-337.959c-6.362 5.159-12.416 10.682-18.131 16.539l-41.979-42.707c21.289 5.187 41.548 13.985 60.11 26.168zm64.842-19.866 78.503 79.865v72.804l-125.457-127.633c14.315-10.368 30.086-18.844 46.954-25.036zm66.783-11.823c6.462 0 11.72 5.258 11.72 11.72v58.57l-62.47-63.554c16.185-4.383 33.197-6.736 50.75-6.736zm-125.61 46.179 137.33 139.711v72.804l-171.65-174.627c9.743-14.087 21.294-26.828 34.32-37.888zm81.436-56.474c-7.192 1.551-14.247 3.471-21.146 5.743v-41.595h21.146zm-80.578-19.999h21.146v42.783c-5.254 3.005-10.361 6.239-15.319 9.674-1.926-1.335-3.866-2.642-5.827-3.908zm-84.109-2.642h21.146v23.997c-6.954-1.711-14.008-3.071-21.146-4.06zm-29.13 32.936c7.025 0 13.993.379 20.888 1.112l57.243 58.236c-10.863 12.844-20.628 27.513-28.534 43.775l-61.317-62.38v-29.022c0-6.464 5.257-11.721 11.72-11.721zm-11.72 229.147v-72.805l40.375 41.074v72.804zm0 115.303v-11.591l36.163 36.79h-10.965c-13.894 0-25.198-11.305-25.198-25.199zm185.301 25.198-129.927-132.178c.407-36.802-1.137-49.035 1.977-70.792l194.308 197.676c-4.266 3.314-9.617 5.295-15.425 5.295h-50.933z" fill="#000000"></path></g></g></svg>