<?xml version="1.0" encoding="iso-8859-1"?>
<!-- Uploaded to: SVG Repo, www.svgrepo.com, Generator: SVG Repo Mixer Tools -->
<svg height="800px" width="800px" version="1.1" id="Layer_1" xmlns="http://www.w3.org/2000/svg" xmlns:xlink="http://www.w3.org/1999/xlink" 
	 viewBox="0 0 512.001 512.001" xml:space="preserve">
<path style="fill:#F48911;" d="M184.356,329.217c-3.936,3.934-10.317,3.934-14.253,0l-47.217-47.192
	c-3.936-3.935-3.936-10.312-0.001-14.247l47.218-47.193c3.937-3.935,10.317-3.935,14.253,0l47.217,47.193
	c3.936,3.935,3.936,10.312,0,14.247L184.356,329.217z"/>
<path style="fill:#E0D9AF;" d="M322.024,316.249l-31.04-134.69c-1.533-6.655-7.46-11.368-14.291-11.368h-41.384
	c-6.833,0-12.757,4.714-14.292,11.368l-31.04,134.69H322.024z"/>
<path style="opacity:0.1;enable-background:new    ;" d="M223.289,316.249l31.041-134.69c1.534-6.655,7.46-11.368,14.292-11.368
	h-33.312c-6.833,0-12.757,4.714-14.292,11.368l-31.04,134.69H223.289z"/>
<path style="fill:#B0CE6F;" d="M351.92,356.98c-3.936,3.934-10.317,3.934-14.253,0l-47.216-47.193
	c-3.937-3.934-3.937-10.311-0.001-14.246l47.217-47.193c3.936-3.932,10.316-3.932,14.253,0l47.217,47.193
	c3.936,3.935,3.936,10.312,0,14.246L351.92,356.98z"/>
<path style="fill:#B3B3B3;" d="M300.456,417.799h-88.908l-26.769,65.207c-1.276,3.108-0.918,6.645,0.953,9.434
	c1.872,2.791,5.01,4.464,8.372,4.464H317.9c3.36,0,6.499-1.673,8.372-4.464c1.87-2.789,2.228-6.327,0.953-9.434L300.456,417.799z"/>
<g>
	<path style="fill:#C6BA83;" d="M100.406,322.781c0,11.475-9.307,20.778-20.788,20.778H30.482c-11.481,0-20.788-9.303-20.788-20.778
		l0,0c0-11.475,9.307-20.778,20.788-20.778h49.135C91.099,302.004,100.406,311.306,100.406,322.781L100.406,322.781z"/>
	<path style="fill:#C6BA83;" d="M502.309,322.781c0,11.475-9.308,20.778-20.788,20.778h-49.136
		c-11.479,0-20.787-9.303-20.787-20.778l0,0c0-11.475,9.307-20.778,20.787-20.778h49.136
		C493.001,302.004,502.309,311.306,502.309,322.781L502.309,322.781z"/>
</g>
<ellipse style="fill:#B0CE6F;" cx="192.378" cy="301.38" rx="34.649" ry="34.628"/>
<path style="fill:#FFC38D;" d="M149.567,255.569c27.95,27.935,36,65.183,17.98,83.195c-18.021,18.01-55.289,9.966-83.238-17.97
	c-27.95-27.935-36-65.184-17.98-83.195C84.352,219.588,121.617,227.633,149.567,255.569z"/>
<path style="fill:#754C24;" d="M102.769,249.102c3.576,3.573,3.574,9.365-0.001,12.938c-3.575,3.574-9.372,3.575-12.946,0.001
	c-3.576-3.574-3.576-9.368,0-12.94C93.398,245.527,99.195,245.527,102.769,249.102z"/>
<ellipse style="fill:#F48911;" cx="391.441" cy="306.416" rx="34.649" ry="34.628"/>
<path style="fill:#FFC38D;" d="M292.765,370.831c-3.936,3.934-10.318,3.934-14.254,0l-47.216-47.193
	c-3.937-3.935-3.937-10.312,0-14.247l47.217-47.192c3.936-3.935,10.317-3.935,14.255,0l47.217,47.192
	c3.935,3.935,3.935,10.312,0,14.247L292.765,370.831z"/>
<path style="fill:#E0D9AF;" d="M50.882,302.004c8.512,82.768,78.483,147.331,163.543,147.331h83.153
	c85.06,0,155.032-64.562,163.543-147.331H50.882z"/>
<path style="opacity:0.1;enable-background:new    ;" d="M95.38,302.004H50.882c8.512,82.768,78.483,147.331,163.543,147.331h44.498
	C173.863,449.335,103.892,384.773,95.38,302.004z"/>
<g>
	<path style="fill:#FCE9C3;" d="M376.475,82.501h-52.093c-4.328,0-7.837-3.509-7.837-7.837c0-4.328,3.509-7.837,7.837-7.837h52.093
		c14.112,0,25.594-11.474,25.594-25.578c0.001-14.103-11.48-25.576-25.594-25.576H353.41c-4.328,0-7.837-3.509-7.837-7.837
		S349.082,0,353.41,0h23.065c22.755,0,41.267,18.505,41.267,41.25C417.743,63.996,399.231,82.501,376.475,82.501z"/>
	<path style="fill:#FCE9C3;" d="M282.124,128.677c-4.328,0-7.837-3.509-7.837-7.837v-18.179c0-19.759,16.082-35.834,35.848-35.834
		h43.649c4.328,0,7.837,3.509,7.837,7.837c0,4.328-3.509,7.837-7.837,7.837h-43.649c-11.125,0-20.175,9.044-20.175,20.16v18.179
		C289.961,125.168,286.452,128.677,282.124,128.677z"/>
</g>
<g>
	<path style="fill:#F2D8A0;" d="M170.066,176.143h-59.694c-16.024,0-29.06-13.028-29.06-29.041s13.036-29.041,29.06-29.041h27.468
		c4.328,0,7.837-3.509,7.837-7.837s-3.509-7.837-7.837-7.837h-27.468c-24.666,0-44.733,20.059-44.733,44.714
		s20.067,44.714,44.733,44.714h59.694c4.328,0,7.837-3.509,7.837-7.837C177.903,179.651,174.394,176.143,170.066,176.143z"/>
	<path style="fill:#F2D8A0;" d="M196.861,19.954h-36.386c-4.328,0-7.837,3.509-7.837,7.837s3.509,7.837,7.837,7.837h36.386
		c18.416,0,33.399,14.974,33.399,33.379c0,18.406-14.983,33.38-33.399,33.38h-32.226c-4.328,0-7.837,3.509-7.837,7.837
		s3.509,7.837,7.837,7.837h32.227c27.059,0,49.073-22.006,49.073-49.054S223.92,19.954,196.861,19.954z"/>
	<path style="fill:#F2D8A0;" d="M379.753,117.775h-18.718c-4.328,0-7.837,3.509-7.837,7.837s3.509,7.837,7.837,7.837h18.718
		c14.973,0,27.155,12.174,27.155,27.138s-12.181,27.138-27.155,27.138h-52.137c-4.328,0-7.837,3.509-7.837,7.837
		c0,4.328,3.509,7.837,7.837,7.837h52.137c23.616,0,42.828-19.205,42.828-42.812C422.58,136.98,403.368,117.775,379.753,117.775z"/>
</g>
<path style="fill:#E0D9AF;" d="M354.255,493.547c0,5.863-4.755,10.616-10.621,10.616H168.37c-5.867,0-10.621-4.753-10.621-10.616
	v-5.309c0-5.863,4.755-10.616,10.621-10.616h175.263c5.867,0,10.621,4.753,10.621,10.616v5.309H354.255z"/>
<g>
	<path style="fill:#FFFFFF;" d="M370.888,350.589c16.434,6.808,21.953,12.327,28.761,28.761
		c6.808-16.434,12.326-21.953,28.761-28.761c-16.435-6.808-21.953-12.326-28.761-28.761
		C392.841,338.263,387.322,343.782,370.888,350.589z"/>
	<circle style="fill:#FFFFFF;" cx="368.997" cy="387.803" r="12.689"/>
</g>
<path d="M481.521,294.167h-49.402c-5.27-17.465-21.511-30.222-40.68-30.222c-3.91,0-7.695,0.54-11.293,1.533l-22.687-22.675
	c-3.383-3.38-7.882-5.241-12.665-5.241s-9.282,1.861-12.666,5.243l-15.432,15.424l-7.18-31.156
	c-0.973-4.218-5.178-6.847-9.397-5.876c-4.217,0.972-6.849,5.178-5.878,9.397l6.589,28.59l-2.527-2.526
	c-3.383-3.382-7.883-5.245-12.666-5.245c-4.786,0-9.284,1.863-12.667,5.245l-37.53,37.51h-1.206
	c-2.386-13.883-11.529-25.48-23.921-31.274l18.338-79.574c0.719-3.116,3.455-5.292,6.656-5.292h41.384
	c3.201,0,5.936,2.177,6.654,5.291l4.152,18.017c0.973,4.218,5.181,6.844,9.397,5.876c4.217-0.973,6.848-5.178,5.876-9.397
	L298.62,179.8c-2.367-10.271-11.384-17.446-21.927-17.446h-41.384c-10.543,0-19.561,7.173-21.928,17.446l-10.999,47.725
	l-12.487-12.48c-3.383-3.382-7.883-5.245-12.667-5.245c-4.785,0-9.283,1.863-12.667,5.245l-23.216,23.203
	c-15.779-11.512-33.371-18.092-49.317-18.092c-12.646,0-23.449,4.116-31.24,11.902c-10.664,10.659-14.346,26.667-10.369,45.074
	c1.229,5.685,3.175,11.402,5.734,17.037H30.482c-15.784,0-28.625,12.837-28.625,28.615c0,15.778,12.841,28.615,28.625,28.615h24.977
	c9.648,23.067,24.313,43.958,43.221,61.116c25.087,22.765,56.03,37.436,89.082,42.588l-6.029,14.685h-13.365
	c-10.178,0-18.458,8.278-18.458,18.453v5.309c0,10.175,8.281,18.453,18.458,18.453h108.531c4.328,0,7.837-3.509,7.837-7.837
	c0-4.328-3.509-7.837-7.837-7.837H168.37c-1.536,0-2.785-1.247-2.785-2.779v-5.309c0-1.533,1.25-2.779,2.785-2.779h175.263
	c1.536,0,2.785,1.247,2.785,2.779v5.309c0,1.533-1.25,2.779-2.785,2.779h-35.387c-4.328,0-7.837,3.509-7.837,7.837
	c0,4.328,3.509,7.837,7.837,7.837h35.387c10.178,0,18.458-8.278,18.458-18.453v-5.309c0-10.175-8.281-18.453-18.458-18.453h-13.365
	l-6.029-14.685c33.053-5.153,63.995-19.824,89.082-42.588c18.909-17.157,33.574-38.049,43.221-61.116h24.977
	c15.783,0,28.625-12.837,28.625-28.615C510.144,307.005,497.304,294.167,481.521,294.167z M30.482,335.723
	c-7.141,0-12.952-5.805-12.952-12.941s5.811-12.941,12.952-12.941h13.481c1.275,8.81,3.23,17.458,5.824,25.882L30.482,335.723
	L30.482,335.723z M391.439,279.619c10.365,0,19.349,5.924,23.808,14.548h-47.616C372.089,285.542,381.074,279.619,391.439,279.619z
	 M343.206,253.891c0.543-0.543,1.163-0.656,1.588-0.656c0.425,0,1.046,0.114,1.587,0.655l19.014,19.005
	c-6.869,5.346-12.062,12.745-14.636,21.272h-14.923l-16.462-16.454L343.206,253.891z M284.052,267.743
	c0.543-0.542,1.163-0.656,1.587-0.656c0.424,0,1.044,0.114,1.587,0.657l26.439,26.424h-56.051L284.052,267.743z M218.194,294.167
	h-36.031c-1.389-4.831-3.25-9.659-5.57-14.416c4.431-3.242,9.885-5.168,15.785-5.168
	C204.661,274.582,215.035,282.884,218.194,294.167z M175.643,226.128c0.543-0.543,1.163-0.657,1.587-0.657
	c0.424,0,1.043,0.114,1.586,0.657l19.415,19.406l-3.105,13.474c-0.91-0.059-1.825-0.098-2.749-0.098
	c-8.797,0-16.973,2.693-23.759,7.289c-3.908-5.652-8.427-11.091-13.511-16.171c-0.564-0.564-1.133-1.12-1.705-1.67L175.643,226.128z
	 M71.871,243.141c6.049-6.046,14.303-7.315,20.16-7.315c16.717,0,36.156,9.452,51.997,25.285
	c10.033,10.028,17.529,21.518,21.68,33.054h-56.989l18.151-18.142c3.062-3.059,3.063-8.022,0.003-11.082
	c-3.061-3.063-8.023-3.063-11.082-0.003l-29.241,29.228H73.713c-3.776-6.693-6.506-13.569-7.97-20.348
	C62.928,260.799,65.105,249.905,71.871,243.141z M198.677,469.785l5.311-12.938c3.465,0.209,6.944,0.325,10.436,0.325h83.153
	c3.492,0,6.972-0.116,10.436-0.325l5.311,12.938H198.677z M402.789,400.904c-28.849,26.177-66.213,40.594-105.211,40.594h-83.153
	c-38.998,0-76.363-14.416-105.212-40.594c-26.484-24.032-43.822-56.102-49.404-91.064h392.382
	C446.611,344.803,429.274,376.873,402.789,400.904z M481.521,335.723h-19.306c2.595-8.423,4.549-17.072,5.824-25.882h13.481
	c7.142,0,12.951,5.805,12.951,12.941S488.662,335.723,481.521,335.723z"/>
</svg>