<?xml version="1.0" encoding="iso-8859-1"?>
<!-- Uploaded to: SVG Repo, www.svgrepo.com, Generator: SVG Repo Mixer Tools -->
<svg height="800px" width="800px" version="1.1" id="Layer_1" xmlns="http://www.w3.org/2000/svg" xmlns:xlink="http://www.w3.org/1999/xlink" 
	 viewBox="0 0 511.999 511.999" xml:space="preserve">
<g>
	<path style="fill:#B0CE6F;" d="M266.545,296.654c-9.695-9.696-13.436-23.954-9.764-37.211c0.98-3.537,3.743-6.3,7.28-7.281
		c13.258-3.673,27.514,0.069,37.21,9.766c9.696,9.696,13.438,23.954,9.766,37.211c-0.98,3.537-3.743,6.3-7.28,7.28
		C290.5,310.09,276.241,306.349,266.545,296.654z"/>
	<path style="fill:#B0CE6F;" d="M307.296,276.993c9.696-9.695,23.954-13.436,37.211-9.764c3.537,0.979,6.3,3.743,7.281,7.28
		c3.673,13.258-0.069,27.514-9.766,37.21s-23.954,13.438-37.211,9.766c-3.537-0.98-6.3-3.743-7.28-7.28
		C293.859,300.948,297.6,286.689,307.296,276.993z"/>
</g>
<g>
	<ellipse style="fill:#F48911;" cx="437.394" cy="331.023" rx="35.943" ry="17.972"/>
	<ellipse style="fill:#F48911;" cx="401.45" cy="295.078" rx="17.972" ry="35.944"/>
</g>
<g>
	<path style="fill:#FFAB5F;" d="M439.573,318.314c-14.036,14.037-31.105,19.727-38.123,12.708
		c-4.505-4.504-3.775-13.143,1.031-22.464c2.685-5.208,6.645-10.629,11.676-15.66c14.038-14.037,31.108-19.727,38.125-12.708
		C459.302,287.208,453.611,304.277,439.573,318.314z"/>
	<path style="fill:#FFAB5F;" d="M385.045,316.085c-8.288,0-15.867,3.023-21.708,8.016c-6.047-8.635-16.061-14.286-27.402-14.286
		c-8.597,0-16.435,3.248-22.359,8.581c-6-8.954-16.208-14.85-27.796-14.85c-18.466,0-33.437,14.97-33.437,33.437v31.347
		c0,18.466,14.97,33.437,33.437,33.437c8.597,0,16.435-3.248,22.359-8.581c6,8.954,16.208,14.85,27.796,14.85
		c8.288,0,15.867-3.023,21.708-8.016c6.047,8.635,16.061,14.286,27.402,14.286c18.466,0,33.437-14.97,33.437-33.437v-31.347
		C418.482,331.055,403.511,316.085,385.045,316.085z"/>
</g>
<path style="opacity:0.1;enable-background:new    ;" d="M385.045,316.085c-8.288,0-15.867,3.023-21.708,8.016
	c-6.047-8.635-16.061-14.286-27.402-14.286c-8.597,0-16.435,3.248-22.359,8.581c-6-8.954-16.208-14.85-27.796-14.85
	c-18.466,0-33.437,14.97-33.437,33.437v21.416c0-18.466,14.97-33.437,33.437-33.437c11.588,0,21.796,5.896,27.796,14.85
	c5.924-5.333,13.761-8.581,22.359-8.581c11.34,0,21.356,5.651,27.402,14.286c5.842-4.994,13.421-8.016,21.708-8.016
	c18.466,0,33.437,14.97,33.437,33.437v-21.416C418.482,331.055,403.511,316.085,385.045,316.085z"/>
<path style="fill:#F2FFE9;" d="M487.579,375.999H24.42c-9.16,0-16.584,7.424-16.584,16.584c0,9.159,7.425,16.584,16.584,16.584
	h31.181c12.408,19.942,34.5,33.225,59.717,33.225H396.68c25.218,0,47.309-13.284,59.717-33.225h31.181
	c9.161,0,16.585-7.424,16.585-16.584C504.163,383.423,496.739,375.999,487.579,375.999z"/>
<path style="fill:#F48911;" d="M48.687,368.447c-9.15-9.15-15.491-20.68-17.851-32.459c-0.521-2.605,0.338-5.294,2.276-7.113
	c1.938-1.818,4.678-2.506,7.245-1.818l39.748,10.652c0.661,0.178,1.372-0.014,1.855-0.497c0.485-0.484,0.675-1.194,0.498-1.856
	l-10.65-39.749c-0.689-2.567-0.001-5.306,1.815-7.244c1.818-1.937,4.508-2.798,7.115-2.277c11.78,2.36,23.307,8.701,32.458,17.852
	c21.903,21.904,25.255,54.193,7.47,71.978C102.88,393.702,70.59,390.351,48.687,368.447z"/>
<path style="fill:#FFAB5F;" d="M250.214,405.369c-1.041,1.041-2.261,1.901-3.615,2.534c-47.118,21.986-77.739,19.55-105.701-8.411
	c-31.71-31.708-40.943-78.883-23.523-120.185c0.643-1.528,1.576-2.899,2.726-4.05c1.151-1.15,2.521-2.083,4.05-2.726
	c41.301-17.419,88.477-8.187,120.185,23.522c27.963,27.961,30.397,58.584,8.41,105.702
	C252.114,403.108,251.255,404.328,250.214,405.369z"/>
<path style="opacity:0.1;enable-background:new    ;" d="M174.319,399.493c-31.71-31.708-40.943-78.884-23.523-120.185
	c0.643-1.528,1.576-2.899,2.726-4.05c1.151-1.15,2.521-2.084,4.05-2.726c8.51-3.589,17.269-6.028,26.092-7.392
	c-19.671-3.061-40.232-0.742-59.513,7.392c-1.529,0.644-2.899,1.576-4.05,2.726c-1.151,1.151-2.084,2.522-2.726,4.05
	c-17.421,41.302-8.187,88.477,23.523,120.185c19.922,19.922,41.201,26.875,68.828,21.28
	C196.931,417.647,185.413,410.586,174.319,399.493z"/>
<g>
	<path style="fill:#FCE9C3;" d="M418.51,187.04h-26.122c-4.329,0-7.837-3.509-7.837-7.837c0-4.328,3.508-7.837,7.837-7.837h26.122
		c13.813,0,25.049-11.237,25.049-25.05c0-13.813-11.237-25.049-25.049-25.049h-22.69c-4.329,0-7.837-3.509-7.837-7.837
		s3.508-7.837,7.837-7.837h22.69c22.454,0,40.723,18.268,40.723,40.723S440.965,187.04,418.51,187.04z"/>
	<path style="fill:#FCE9C3;" d="M315.219,232.487c-4.328,0-7.837-3.509-7.837-7.837v-17.892c0-19.516,15.876-35.392,35.392-35.392
		h21.896c4.329,0,7.837,3.509,7.837,7.837c0,4.328-3.508,7.837-7.837,7.837h-21.896c-10.872,0-19.718,8.845-19.718,19.718v17.892
		C323.055,228.978,319.547,232.487,315.219,232.487z"/>
</g>
<path style="fill:#F2D8A0;" d="M359.967,146.289H308.68c-23.301,0-42.258-18.958-42.258-42.259s18.958-42.259,42.258-42.259h18.413
	c4.329,0,7.837,3.509,7.837,7.837s-3.508,7.837-7.837,7.837H308.68c-14.659,0-26.584,11.926-26.584,26.585
	s11.925,26.585,26.584,26.585h51.288c4.329,0,7.837,3.509,7.837,7.837C367.804,142.78,364.296,146.289,359.967,146.289z"/>
<circle style="fill:#FFFFFF;" cx="206.89" cy="292.403" r="22.988"/>
<path style="fill:#F48911;" d="M227.639,376.033c-10.179-10.179-17.234-23.003-19.86-36.107c-0.58-2.898,0.377-5.891,2.533-7.912
	c2.156-2.023,5.204-2.788,8.059-2.022l44.215,11.847c0.735,0.197,1.527-0.015,2.065-0.553s0.751-1.328,0.552-2.064l-11.846-44.217
	c-0.766-2.855-0.002-5.902,2.02-8.058c2.023-2.155,5.016-3.113,7.913-2.532c13.105,2.626,25.927,9.679,36.107,19.858
	c24.365,24.366,28.093,60.284,8.309,80.067C287.923,404.125,252.003,400.398,227.639,376.033z"/>
<circle style="fill:#754C24;" cx="206.89" cy="292.403" r="9.005"/>
<ellipse style="fill:#FFE266;" cx="437.572" cy="369.067" rx="27.408" ry="27.387"/>
<path style="fill:#DAF7E9;" d="M48.891,395.139c9.555,27.502,35.673,47.252,66.427,47.252H396.68
	c30.757,0,56.874-19.751,66.428-47.252H48.891z"/>
<path style="opacity:0.1;enable-background:new    ;" d="M80.76,395.139H48.891c9.555,27.502,35.673,47.252,66.427,47.252h31.869
	C116.433,442.391,90.315,422.64,80.76,395.139z"/>
<path style="fill:#F2FFE9;" d="M504.163,392.583c0,9.159-7.424,16.584-16.585,16.584H24.42c-9.16,0-16.584-7.424-16.584-16.584l0,0
	c0-9.16,7.425-16.584,16.584-16.584h463.158C496.739,375.999,504.163,383.423,504.163,392.583L504.163,392.583z"/>
<path style="opacity:0.1;enable-background:new    ;" d="M39.706,392.583c0-9.16,7.424-16.584,16.584-16.584H24.42
	c-9.16,0-16.584,7.424-16.584,16.584c0,9.159,7.425,16.584,16.584,16.584H56.29C47.13,409.165,39.706,401.741,39.706,392.583z"/>
<circle cx="206.89" cy="292.403" r="9.005"/>
<path d="M249.367,173.455c0,4.328,3.508,7.837,7.837,7.837c4.329,0,7.837-3.509,7.837-7.837c0-13.148-3.477-26.075-10.058-37.383
	c-2.177-3.742-6.975-5.009-10.714-2.833c-3.742,2.177-5.009,6.974-2.833,10.714C246.624,152.873,249.367,163.073,249.367,173.455z"
	/>
<path d="M487.579,368.162h-14.784c-0.169-6.602-2.165-12.755-5.497-17.98c8.62-4.65,13.878-11.396,13.878-19.16
	c0-10.423-9.453-19.023-23.837-23.156c1.63-2.933,2.957-5.878,3.92-8.769c3.388-10.165,2.168-18.848-3.435-24.45
	c-3.468-3.468-8.27-5.302-13.887-5.302c-5.968,0-12.652,2.051-19.338,5.767c-4.135-14.372-12.732-23.816-23.15-23.816
	c-14.713,0-25.809,18.822-25.809,43.78c0,4.939,0.438,9.634,1.25,13.992c-4.288,0.866-8.418,2.405-12.223,4.567
	c-2.791-2.705-5.939-4.986-9.334-6.796c5.673-10.366,7.251-22.715,4.007-34.425c-3.113-11.224-14.636-14.41-25.04-14.41
	c-7.6,0-15.091,1.923-21.73,5.458c-1.663-2.52-3.579-4.897-5.757-7.077c-11.585-11.585-29.069-16.146-44.846-11.776
	c-6.153,1.706-11.034,6.588-12.737,12.739c-2.276,8.212-2.168,16.736,0.047,24.673c-1.322,1.511-2.33,3.215-3.013,5.029
	c-4.068-3.745-8.351-7.173-12.821-10.273c-5.369-9.085-15.258-15.196-26.553-15.196c-1.197,0-2.377,0.076-3.54,0.209
	c-19.156-6.275-39.917-7.466-59.671-3.467c-17.561-17.438-28.456-41.579-28.456-68.223c0.001-32.86,21.138-60.86,50.526-71.161
	c8.101,10.071,12.964,22.851,12.964,36.751c0,4.329,3.509,7.837,7.837,7.837c4.329,0,7.837-3.509,7.837-7.837
	c0-14.938-4.441-28.852-12.048-40.521c2.721-0.299,5.48-0.464,8.28-0.464c12.152,0,23.811,3.676,33.716,10.63
	c3.543,2.488,8.431,1.631,10.916-1.911c2.488-3.542,1.632-8.429-1.91-10.917c-12.557-8.816-27.328-13.475-42.722-13.475
	c-6.865,0-13.554,0.768-19.989,2.215c-13.297-12.383-31.108-19.978-50.666-19.978c-50.215,0-91.067,40.852-91.068,91.068
	c0.001,50.595,33.773,93.426,79.949,107.204c-1.096,2.827-2.073,5.678-2.94,8.546c-7.378-4.711-15.437-8.045-23.626-9.686
	c-11.091-2.219-20.968,8.313-18.038,19.233l7.998,29.851l-29.853-8c-10.94-2.93-21.449,6.962-19.23,18.041
	c2.178,10.87,7.334,21.516,14.744,30.634H24.42C10.955,368.162,0,379.117,0,392.583c0,13.466,10.955,24.42,24.42,24.42h26.97
	c14.389,20.451,38.071,33.225,63.928,33.225h199.196c4.329,0,7.837-3.509,7.837-7.837c0-4.328-3.508-7.837-7.837-7.837H115.318
	c-16.549,0-31.977-6.554-43.378-17.551h368.119c-11.402,10.999-26.831,17.551-43.379,17.551h-44.551
	c-4.329,0-7.837,3.509-7.837,7.837c0,4.328,3.508,7.837,7.837,7.837h44.551c25.856,0,49.539-12.774,63.929-33.225h26.969
	c13.467,0,24.421-10.955,24.421-24.42C512,379.117,501.045,368.162,487.579,368.162z M465.502,331.022
	c0,1.777-3.618,5.099-10.491,7.456c-5.144-2.942-11.094-4.634-17.436-4.634c-1.832,0-3.627,0.156-5.382,0.427
	c4.424-2.796,8.801-6.296,12.921-10.416c0.723-0.723,1.424-1.461,2.112-2.204C459.153,323.578,465.502,328.663,465.502,331.022z
	 M457.097,368.162h-39.043c0.48-10.358,9.037-18.645,19.522-18.645C448.061,349.517,456.617,357.803,457.097,368.162z
	 M419.698,298.439c9.27-9.27,18.854-13.42,24.24-13.42c1.329,0,2.352,0.259,2.805,0.712c0.739,0.74,1.255,3.589-0.352,8.41
	c-1.994,5.981-6.498,12.772-12.358,18.632c-5.691,5.691-11.495,9.444-16.378,11.5c-2.707-3.49-5.955-6.54-9.626-9.012
	c0.398-0.988,0.855-2.019,1.418-3.112C411.855,307.479,415.4,302.737,419.698,298.439z M401.45,266.97
	c2.358,0,7.442,6.346,9.369,18.265c-7.198,6.687-13.496,14.766-17.232,23.912c-0.228-0.048-0.453-0.1-0.68-0.145
	c-0.96-3.883-1.59-8.533-1.59-13.926C391.314,276.82,398.508,266.97,401.45,266.97z M312.837,282.535
	c5.63-5.629,13.452-8.857,21.463-8.857c2.742,0,5.472,0.371,8.116,1.103c0.879,0.243,1.577,0.941,1.82,1.819
	c2.447,8.836,0.741,18.22-4.408,25.564c-1.287-0.122-2.587-0.188-3.893-0.188c-2.974,0-5.908,0.332-8.768,0.953l2.664-2.664
	c3.06-3.06,3.06-8.023,0-11.082c-3.062-3.06-8.023-3.06-11.083,0l-11.722,11.722c-0.815-0.878-1.65-1.733-2.504-2.575
	C305.632,292.437,308.47,286.902,312.837,282.535C318.466,276.906,308.47,286.902,312.837,282.535z M264.334,261.534
	c0.243-0.879,0.941-1.577,1.819-1.82c2.642-0.732,5.372-1.103,8.114-1.103c8.011,0,15.834,3.228,21.463,8.858
	c1.723,1.723,3.194,3.635,4.429,5.673c-1.822,2.02-3.451,4.177-4.866,6.451l-5.473-5.473c-3.062-3.06-8.023-3.06-11.083,0
	c-1.65,1.65-2.401,3.852-2.273,6.01c-3.819-1.462-7.712-2.611-11.633-3.397c-0.26-0.052-0.521-0.092-0.782-0.131
	C262.901,271.715,262.946,266.538,264.334,261.534z M279.928,345.48l-6.892-6.892c-0.056-0.467-0.14-0.933-0.264-1.394
	l-11.847-44.22c-0.052-0.597,0.223-0.888,0.824-0.875c11.604,2.325,23.007,8.616,32.106,17.715
	c8.764,8.764,14.768,19.312,17.361,30.501c0.977,4.216,5.183,6.844,9.405,5.864c4.216-0.978,6.842-5.188,5.864-9.404
	c-1.159-5-2.859-9.884-5.045-14.593c4.246-2.926,9.278-4.531,14.494-4.531c7.567,0,14.718,3.377,19.566,9.121v16.479
	c0,4.328,3.508,7.837,7.837,7.837c4.329,0,7.837-3.509,7.837-7.837v-15.21c4.117-2.661,8.928-4.121,13.871-4.121
	c13.133,0,23.984,9.943,25.431,22.696c-4.887,5.883-7.909,13.366-8.119,21.545h-76.391c0.38-1.301,0.732-2.614,1.018-3.956
	c0.898-4.234-1.805-8.395-6.038-9.293c-4.231-0.899-8.395,1.805-9.294,6.038c-0.541,2.547-1.32,4.947-2.303,7.211h-78.376
	c-7.904-8.679-13.376-19.139-15.507-29.773c-0.015-0.604,0.279-0.88,0.879-0.828l44.211,11.846c0.463,0.124,0.931,0.208,1.4,0.264
	l6.892,6.891c3.254,3.253,8.773,2.948,11.655-0.636C282.973,352.851,282.717,348.269,279.928,345.48z M236.837,299.691
	c0.659,0.626,1.313,1.257,1.958,1.902c5.041,5.041,9.144,10.148,12.349,15.434l3.935,14.686l-34.677-9.292
	c-1.466-0.393-2.95-0.573-4.417-0.561C226.276,318.677,234.271,310.235,236.837,299.691z M206.89,277.256
	c8.354,0,15.151,6.797,15.151,15.151s-6.797,15.151-15.151,15.151s-15.151-6.797-15.151-15.151S198.536,277.256,206.89,277.256z
	 M166.914,271.677c5.438,0,10.813,0.434,16.086,1.277c-4.331,5.31-6.936,12.083-6.936,19.454c0,16.996,13.827,30.824,30.824,30.824
	c1.032,0,2.052-0.053,3.059-0.153c-1.815,0.746-3.511,1.822-4.998,3.218c-4.159,3.902-5.975,9.57-4.855,15.169
	c1.858,9.27,5.694,18.389,11.124,26.696h-83.576c-13.442-26.271-14.978-57.526-3.045-85.816c0.489-1.161,1.438-2.107,2.599-2.594
	C139.901,274.393,153.264,271.677,166.914,271.677z M44.567,172.338c0.001-41.572,33.822-75.395,75.395-75.395
	c12.252,0,23.638,3.775,33.063,10.217c-31.511,14.339-53.475,46.123-53.476,82.941c0,27.874,10.253,53.394,27.177,73.003
	c-1.883,0.685-3.754,1.419-5.613,2.204c-0.582,0.245-1.147,0.519-1.7,0.814C76.615,256.377,44.568,218.043,44.567,172.338z
	 M79.155,345.489l6.015,6.015c3.254,3.252,8.773,2.948,11.655-0.636c2.473-3.076,2.217-7.658-0.572-10.447l-6.013-6.013
	c-0.054-0.362-10.799-40.588-10.799-40.588c7.982,1.644,15.845,5.413,22.728,10.811c-3.261,21.64-0.373,43.615,8.183,63.532H60.239
	c-2.087-1.604-4.103-3.348-6.011-5.257c-8.007-8.007-13.562-18.017-15.659-28.214C38.569,334.691,78.789,345.437,79.155,345.489z
	 M487.579,401.329H24.42c-4.823,0-8.747-3.924-8.747-8.747s3.924-8.747,8.747-8.747h463.158c4.823,0,8.748,3.924,8.748,8.747
	C496.327,397.406,492.402,401.329,487.579,401.329z"/>
</svg>