<?xml version="1.0" encoding="iso-8859-1"?>
<!-- Uploaded to: SVG Repo, www.svgrepo.com, Generator: SVG Repo Mixer Tools -->
<svg xmlns="http://www.w3.org/2000/svg" xmlns:xlink="http://www.w3.org/1999/xlink" version="1.1" id="Capa_1"  viewBox="0 0 470 470" xml:space="preserve" width="512" height="512">
<g>
	<rect x="138.61" y="7.5" style="fill:#FEC8BB;" width="30" height="365"/>
	<rect x="78.61" y="7.5" style="fill:#FEC8BB;" width="30" height="365"/>
	<path style="fill:#84B044;" d="M359.554,166.33c-2.764,0-5.486,0.164-8.168,0.461c-12.6-21.096-35.508-35.323-61.783-35.661   v153.116l138.837-20.471c2.702-7.626,4.071-15.835,4.071-24.392C432.511,199.033,399.904,166.33,359.554,166.33z"/>
	<path style="fill:#A2C352;" d="M351.376,166.862c-2.283-0.348-4.596-0.532-6.95-0.532c-2.17,0-4.309,0.164-6.428,0.461   c-9.878-21.024-27.81-35.221-48.394-35.661c-0.328-0.01-0.655-0.01-0.983-0.01c-10.658,0-20.853,2.284-30.006,6.384l-37.427,64.857   l30.707,61.414v20.471l146.729-20.471c2.119-7.626,3.275-15.835,3.275-24.392C401.9,202.022,379.842,171.223,351.376,166.862z"/>
	<path style="fill:#EF431D;" d="M258.614,107.5v-30c-49.71,0-90,40.29-90,90s40.29,90,90,90v-30c0-2.5-20-60-20-60L258.614,107.5z"/>
	<path style="fill:#FD7555;" d="M198.614,167.5c0,33.08,26.91,60,60,60v-120C225.524,107.5,198.614,134.42,198.614,167.5z"/>
	<path style="fill:#99D9FF;" d="M227.504,257.5l-115,25l20-120C184.894,162.5,227.504,205.12,227.504,257.5z"/>
	<path style="fill:#CCECFF;" d="M37.504,257.5l95,25v-120C80.114,162.5,37.504,205.12,37.504,257.5z"/>
	<path style="fill:#CCECFF;" d="M132.504,192.5l-10,85l75-20C197.504,221.6,168.394,192.5,132.504,192.5z"/>
	<path style="fill:#EDF8FF;" d="M67.504,257.5l65,25v-90C96.604,192.5,67.504,221.6,67.504,257.5z"/>
	<path style="fill:#99D9FF;" d="M167.504,257.5l-55,25l20-60C151.794,222.5,167.504,238.2,167.504,257.5z"/>
	<path style="fill:#CCECFF;" d="M132.504,222.5v55l-35-20C97.504,238.2,113.204,222.5,132.504,222.5z"/>
	<path style="fill:#FDCE6E;" d="M402.5,272.5l-175,190h30c96.65,0,175-78.35,175-175v-15H402.5z"/>
	<path style="fill:#FEFDCA;" d="M402.5,287.5v-15h-365v15c0,96.65,78.35,175,175,175h15C324.15,462.5,402.5,384.15,402.5,287.5z"/>
	<path style="fill:#FFFFFF;" d="M447.5,257.5h-425c-8.284,0-15,6.716-15,15s6.716,15,15,15h425c8.284,0,15-6.716,15-15   S455.784,257.5,447.5,257.5z"/>
	<path d="M447.5,250h-8.157c0.441-3.484,0.669-7.032,0.669-10.62c0-44.418-36.092-80.556-80.455-80.556   c-1.405,0-2.836,0.04-4.282,0.119c-14.912-21.903-40.029-35.327-66.653-35.327c-7.712,0-15.242,1.087-22.511,3.19V77.5   c0-4.142-3.357-7.5-7.5-7.5c-34.699,0-65.218,18.225-82.5,45.603V7.5c0-4.142-3.357-7.5-7.5-7.5h-30c-4.143,0-7.5,3.358-7.5,7.5   v125.149c0,4.142,3.357,7.5,7.5,7.5s7.5-3.358,7.5-7.5V15h15v144.069c-9.084-2.645-18.684-4.069-28.61-4.069   c-5.578,0-11.051,0.455-16.39,1.316V7.5c0-4.142-3.357-7.5-7.5-7.5h-30c-4.143,0-7.5,3.358-7.5,7.5v137.227   c0,4.142,3.357,7.5,7.5,7.5s7.5-3.358,7.5-7.5V15h15v144.923C62.181,172.476,33.348,207.719,30.276,250H22.5   C10.094,250,0,260.093,0,272.5S10.094,295,22.5,295h7.666c3.949,97.166,84.216,175,182.334,175h45   c98.118,0,178.385-77.834,182.334-175h7.666c12.406,0,22.5-10.093,22.5-22.5S459.906,250,447.5,250z M288.621,138.617   c22.956,0,44.539,12.268,56.326,32.017c1.507,2.524,4.343,3.932,7.27,3.61c2.506-0.279,4.976-0.42,7.34-0.42   c36.092,0,65.455,29.408,65.455,65.556c0,3.611-0.275,7.164-0.813,10.62h-67.736l25.236-25.236c2.929-2.929,2.929-7.678,0-10.606   c-2.93-2.929-7.678-2.929-10.607,0L335.249,250h-39.127v-72.116c0-4.142-3.357-7.5-7.5-7.5s-7.5,3.358-7.5,7.5V250H266.11V142.572   C273.296,139.96,280.844,138.617,288.621,138.617z M251.11,85.338v15.09c-27.643,3.071-50.888,22.908-57.906,50.36   c-1.025,4.013,1.396,8.098,5.409,9.124c0.623,0.16,1.248,0.236,1.862,0.236c3.345,0,6.395-2.255,7.262-5.645   c5.316-20.798,22.609-35.976,43.373-38.958V250h-16.386c-2.739-37.695-25.954-69.797-58.545-85.213   C177.537,123.057,210.01,89.057,251.11,85.338z M132.5,170c45.721,0,83.358,35.251,87.175,80h-15.063   c-3.765-36.466-34.668-65-72.113-65c-13.434,0-26.562,3.711-37.965,10.733c-3.527,2.172-4.626,6.792-2.454,10.319   s6.793,4.624,10.319,2.454c9.037-5.564,19.445-8.506,30.1-8.506c29.163,0,53.306,21.828,56.995,50h-15.171   c-3.554-19.868-20.949-35-41.824-35s-38.27,15.132-41.824,35H75.495c1.056-8.054,3.801-15.804,8.104-22.744   c2.183-3.52,1.099-8.144-2.422-10.326c-3.519-2.183-8.144-1.1-10.326,2.422c-5.778,9.318-9.338,19.791-10.463,30.648H45.325   C49.142,205.251,86.779,170,132.5,170z M158.952,250h-52.904c3.274-11.528,13.889-20,26.452-20S155.678,238.472,158.952,250z    M447.5,280h-350c-4.143,0-7.5,3.358-7.5,7.5s3.357,7.5,7.5,7.5h327.324c-3.938,88.892-77.479,160-167.324,160h-45   c-89.845,0-163.386-71.108-167.324-160H67.5c4.143,0,7.5-3.358,7.5-7.5s-3.357-7.5-7.5-7.5h-45c-4.136,0-7.5-3.364-7.5-7.5   s3.364-7.5,7.5-7.5h407.796c0.069,0,17.204,0,17.204,0c4.136,0,7.5,3.364,7.5,7.5S451.636,280,447.5,280z"/>
</g>















</svg>