<!-- icon666.com - MILLIONS vector ICONS FREE --><svg xmlns="http://www.w3.org/2000/svg" xmlns:xlink="http://www.w3.org/1999/xlink" id="icon" viewBox="0 0 512 512"><defs><linearGradient id="linear-gradient" x1="93.45" y1="68.918" x2="125.095" y2="206.048" gradientUnits="userSpaceOnUse"><stop offset="0" stop-color="#e7eaff"></stop><stop offset="0.995" stop-color="#a9bfdc"></stop></linearGradient><linearGradient id="linear-gradient-2" x1="117.001" y1="203.51" x2="117.001" y2="436.923" gradientUnits="userSpaceOnUse"><stop offset="0" stop-color="#ffeaae"></stop><stop offset="0.995" stop-color="#ffd18f"></stop></linearGradient><linearGradient id="linear-gradient-3" x1="175.712" y1="289.523" x2="171.532" y2="456.709" gradientUnits="userSpaceOnUse"><stop offset="0" stop-color="#f2bc77"></stop><stop offset="0.995" stop-color="#e2ab6e"></stop></linearGradient><linearGradient id="linear-gradient-4" x1="329.24" y1="197.036" x2="321.974" y2="368.31" xlink:href="#linear-gradient-2"></linearGradient><linearGradient id="linear-gradient-5" x1="319.987" y1="222.455" x2="327.732" y2="411.787" xlink:href="#linear-gradient-3"></linearGradient><linearGradient id="linear-gradient-6" x1="296.081" y1="223.433" x2="303.826" y2="412.765" xlink:href="#linear-gradient-3"></linearGradient><linearGradient id="linear-gradient-7" x1="377.776" y1="220.091" x2="385.522" y2="409.423" xlink:href="#linear-gradient-3"></linearGradient><linearGradient id="linear-gradient-8" x1="262.481" y1="224.808" x2="270.227" y2="414.14" xlink:href="#linear-gradient-3"></linearGradient><linearGradient id="linear-gradient-9" x1="309.045" y1="326.507" x2="402.906" y2="506.067" xlink:href="#linear-gradient"></linearGradient></defs><title>sauce</title><path d="M179.724,142.374a17.809,17.809,0,0,0-17.669-15.58H147.3l-18.226-88.46a7.839,7.839,0,0,0-7.678-6.258H112.61a7.839,7.839,0,0,0-7.678,6.258l-18.226,88.46H71.948a17.809,17.809,0,0,0-17.669,15.58l-4.7,37.253H184.422Z" style="" fill="url(#linear-gradient)"></path><path d="M51.749,176.911h130.5a19.773,19.773,0,0,1,19.773,19.773V455.3A24.627,24.627,0,0,1,177.4,479.924H56.6A24.627,24.627,0,0,1,31.976,455.3V196.685A19.773,19.773,0,0,1,51.749,176.911Z" style="fill: rgb(255, 213, 0);" fill="url(#linear-gradient-2)"></path><path d="M202.027,451.98v-196.9a54.083,54.083,0,0,0-27.206,46.891v5.387a43.474,43.474,0,0,0-30.482,48.1C150.071,393.953,169.988,427.235,202.027,451.98Z" style="fill: rgb(255, 187, 0);" fill="url(#linear-gradient-3)"></path><polygon points="86.706 126.794 147.297 126.794 142.982 105.851 91.021 105.851 86.706 126.794" style="" fill="#7d98af"></polygon><path d="M192.539,338.659v-36.69c0-16.446,14.094-29.778,31.48-29.778h6.746v-8.508c0-15.272,13.087-27.651,29.231-27.651h4.5s4.015-38.453,65.152-38.657c10.805-.036,20.88-5.784,25.131-15.181a27.9,27.9,0,0,0,1.388-3.753c1.489-5.144,8.684-6.268,11.9-1.888a36.129,36.129,0,0,1,6.361,29.721A13.231,13.231,0,0,0,384.8,221.9l.139.029a13.979,13.979,0,0,0,2.859.281h0c16.345,0,29.6,12.534,29.6,28V270.6h4.5c18.627,0,33.728,14.285,33.728,31.9V336Z" style="fill: rgb(240, 137, 20);" fill="url(#linear-gradient-4)"></path><polygon points="192.539 306.312 192.539 338.66 455.619 336.001 455.619 306.312 192.539 306.312" style="fill: rgb(218, 132, 11);" fill="url(#linear-gradient-5)"></polygon><path d="M328.451,230.089a5.943,5.943,0,0,0-4.808-5.834l-47.777-9.292c-10.239,10.208-11.373,21.069-11.373,21.069h58.015A5.943,5.943,0,0,0,328.451,230.089Z" style="fill: rgb(218, 132, 11);" fill="url(#linear-gradient-6)"></path><path d="M349.026,270.6h68.368V250.761l-70.376,4.386a7.853,7.853,0,0,0-5.474,5.2h0A7.855,7.855,0,0,0,349.026,270.6Z" style="fill: rgb(218, 132, 11);" fill="url(#linear-gradient-7)"></path><path d="M293.66,261.093l-56.087-15.138a26.655,26.655,0,0,0-6.808,17.728v8.508h61.424a5.646,5.646,0,0,0,5.294-7.607h0A5.644,5.644,0,0,0,293.66,261.093Z" style="fill: rgb(218, 132, 11);" fill="url(#linear-gradient-8)"></path><path d="M460.9,329.812H187.257a19.17,19.17,0,0,0-18.908,22.065c12.155,81.644,94.2,105.285,94.2,105.285v10.753a12.009,12.009,0,0,0,12.009,12.009H373.6a12.008,12.008,0,0,0,12.009-12.009V457.162s82.043-23.641,94.2-105.285A19.171,19.171,0,0,0,460.9,329.812Z" style="" fill="url(#linear-gradient-9)"></path></svg>